<?xml version="1.0" encoding="utf-8"?>
<!-- Generator: Adobe Illustrator 15.1.0, SVG Export Plug-In . SVG Version: 6.00 Build 0)  -->
<!DOCTYPE svg PUBLIC "-//W3C//DTD SVG 1.1//EN" "http://www.w3.org/Graphics/SVG/1.1/DTD/svg11.dtd" [
	<!ENTITY st0 "fill:#231F20;">
]>
<svg version="1.1" id="Layer_1" xmlns="http://www.w3.org/2000/svg" xmlns:xlink="http://www.w3.org/1999/xlink" x="0px" y="0px"
	 width="519.86621px" height="94.56543px" viewBox="0 0 519.86621 94.56543" style="enable-background:new 0 0 519.86621 94.56543;"
	 xml:space="preserve">
<g>
	<path style="&st0;" d="M29.01025,32.40576h-7.99902c-1.771-2.77686-3.37109-5.17773-4.7998-7.20117
		c-1.4292-2.02344-2.98047-4.10986-4.65283-6.25928H8.51562v9.42041c0,0.48828,0.07666,0.91748,0.23047,1.28711
		c0.15332,0.37012,0.48145,0.65283,0.98389,0.84814c0.25098,0.09766,0.69092,0.18799,1.31885,0.27197
		c0.62793,0.0835,1.1582,0.13281,1.59082,0.14648v1.48633H0.07959v-1.48633c0.33447-0.02783,0.81934-0.07666,1.45459-0.14648
		c0.63477-0.06982,1.07812-0.16016,1.32959-0.27197c0.41846-0.18164,0.72217-0.44678,0.91064-0.7959
		c0.18799-0.34863,0.28223-0.79541,0.28223-1.33936V6.88721c0-0.48828-0.06982-0.9209-0.20898-1.29785
		c-0.13965-0.37695-0.46777-0.6626-0.98389-0.8584C2.51465,4.60547,2.06104,4.49023,1.50293,4.38574
		c-0.55859-0.10449-1.0332-0.1709-1.42334-0.19873V2.70068h13.71143c1.25635,0,2.43506,0.12891,3.53809,0.38721
		c1.10205,0.2583,2.1001,0.67334,2.99316,1.24561c0.86523,0.55811,1.55615,1.28711,2.07275,2.1875
		c0.51611,0.8999,0.77441,1.98535,0.77441,3.25537c0,1.14453-0.1748,2.15576-0.52344,3.03516s-0.86523,1.64014-1.54883,2.28174
		c-0.62793,0.60059-1.38184,1.12012-2.26123,1.55957c-0.87891,0.43994-1.84912,0.81348-2.90967,1.12012
		c1.46533,1.93994,2.68311,3.57275,3.65283,4.89844c0.97021,1.32617,2.15967,2.93799,3.56934,4.83594
		c0.61426,0.8374,1.16895,1.45459,1.66455,1.85254c0.49512,0.39795,0.98682,0.72217,1.47559,0.97363
		c0.36279,0.18115,0.81641,0.3208,1.36084,0.41846s0.99756,0.15381,1.36084,0.16748V32.40576z M17.99902,10.26904
		c0-1.79736-0.5166-3.22217-1.54932-4.27393c-1.0332-1.05225-2.49121-1.57812-4.375-1.57812H8.51562v12.72803h2.74268
		c1.92578,0,3.53027-0.61621,4.81445-1.84961C17.35693,14.0625,17.99902,12.38721,17.99902,10.26904z"/>
	<path style="&st0;" d="M49.75537,21.87598c0,1.45166-0.23047,2.87842-0.69141,4.28076
		c-0.46094,1.40283-1.11768,2.59277-1.96973,3.56934c-0.96436,1.1167-2.08203,1.94678-3.35303,2.49121
		c-1.27148,0.54443-2.69629,0.81641-4.2749,0.81641c-1.31348,0-2.56396-0.24805-3.75098-0.74316
		c-1.1875-0.49512-2.24268-1.21729-3.16455-2.1665c-0.9082-0.93506-1.63135-2.07568-2.16895-3.42285
		c-0.5376-1.34668-0.80664-2.85742-0.80664-4.53223c0-3.22363,0.93945-5.86133,2.81836-7.91309
		c1.87891-2.05127,4.34131-3.07715,7.38721-3.07715c2.8916,0,5.27686,0.97363,7.15625,2.92041
		C48.81592,16.0459,49.75537,18.63867,49.75537,21.87598z M45.42236,21.91797c0-1.04688-0.10498-2.15283-0.31494-3.31836
		c-0.20947-1.16504-0.52441-2.15234-0.94336-2.96191c-0.44775-0.86523-1.03516-1.55957-1.76172-2.08301
		c-0.72705-0.52344-1.61523-0.78516-2.66357-0.78516c-1.07666,0-1.99609,0.26562-2.75781,0.7959
		c-0.76221,0.53027-1.38086,1.25586-1.85596,2.17676c-0.44727,0.85156-0.76221,1.82129-0.94385,2.91016
		c-0.18213,1.08838-0.27246,2.14209-0.27246,3.16064c0,1.33984,0.10791,2.57861,0.3252,3.71582
		c0.21631,1.1377,0.5625,2.15332,1.03809,3.0459c0.4751,0.89355,1.07275,1.59473,1.79297,2.104
		c0.72021,0.50977,1.61133,0.76416,2.67383,0.76416c1.74756,0,3.13184-0.84424,4.15234-2.5332
		C44.91162,27.22119,45.42236,24.89062,45.42236,21.91797z"/>
	<path style="&st0;" d="M62.27393,32.9502c-2.98682,0-5.32471-0.99072-7.01318-2.97266
		c-1.68848-1.98145-2.53271-4.64014-2.53271-7.97607c0-1.45117,0.22656-2.80811,0.68018-4.07129s1.11279-2.41113,1.97852-3.44385
		c0.82324-0.99072,1.85596-1.79004,3.09814-2.39697c1.2417-0.60693,2.5957-0.91064,4.06104-0.91064
		c2.02344,0,3.67041,0.48535,4.94043,1.45508c1.27002,0.97021,1.90527,2.29199,1.90527,3.9668
		c0,0.69824-0.16748,1.31543-0.50244,1.85254c-0.33496,0.5376-0.88672,0.80615-1.65381,0.80615
		c-0.82373,0-1.4624-0.2085-1.91553-0.62598c-0.45361-0.41748-0.68066-0.8833-0.68066-1.39795
		c0-0.62598,0.08398-1.26953,0.25146-1.93018s0.26465-1.14453,0.29297-1.45068c-0.25049-0.43066-0.62305-0.71924-1.11719-0.86572
		c-0.49414-0.146-1.02686-0.21924-1.59717-0.21924c-0.66846,0-1.30518,0.14355-1.91064,0.4292
		c-0.60596,0.28613-1.19385,0.81348-1.76416,1.58057c-0.51562,0.69824-0.93311,1.64014-1.25293,2.82617
		c-0.32031,1.18652-0.48047,2.60303-0.48047,4.24951c0,2.5957,0.57471,4.71387,1.72461,6.35352
		c1.14941,1.64014,2.6582,2.45996,4.5249,2.45996c1.35156,0,2.48389-0.33008,3.39648-0.98926
		c0.9126-0.65967,1.75928-1.64844,2.53955-2.96729l1.33789,0.87891c-0.9209,1.64697-2.13525,2.95166-3.64258,3.91455
		C65.43506,32.46875,63.87842,32.9502,62.27393,32.9502z"/>
	<path style="&st0;" d="M94.07275,32.40576h-6.22803c-1.08984-1.5752-2.25635-3.26221-3.5-5.06104
		c-1.24365-1.79834-2.53662-3.54834-3.87744-5.24902l-1.71826,1.60156v4.89844c0,0.50244,0.09082,0.91797,0.27197,1.24561
		c0.18115,0.32812,0.47461,0.56885,0.87939,0.72217c0.33496,0.13965,0.65576,0.24463,0.96289,0.31396
		c0.30664,0.07031,0.6626,0.11865,1.06787,0.14648v1.38184H71.81982v-1.38184c0.31885-0.02783,0.65137-0.05908,0.99805-0.09424
		c0.34619-0.03467,0.6377-0.08691,0.87354-0.15723c0.3877-0.12549,0.67871-0.34521,0.87256-0.65967
		c0.19434-0.31396,0.2915-0.72266,0.2915-1.22559V4.87988c0-0.5166-0.1084-1.00195-0.32471-1.45605
		c-0.21631-0.45361-0.49902-0.79932-0.84766-1.03711c-0.29297-0.22314-0.75049-0.36963-1.37109-0.43945
		c-0.62109-0.06982-1.12012-0.11865-1.49707-0.14697V0.46045L78.45605,0l0.29297,0.31396v21.8374
		c1.08936-1.08789,2.26611-2.25586,3.52979-3.50439c1.26416-1.24805,2.32861-2.36084,3.19482-3.3374
		c0.11182-0.12598,0.2334-0.29053,0.36621-0.49365c0.13232-0.20264,0.19873-0.36719,0.19873-0.49316
		c0-0.37793-0.30371-0.6582-0.91064-0.83984c-0.60693-0.18213-1.18945-0.30811-1.74756-0.37842v-1.33936h9.08057v1.29785
		c-1.17236,0.34863-2.2085,0.78467-3.10889,1.30811s-1.58789,0.99463-2.06201,1.41309
		c-0.33496,0.2793-0.81006,0.73242-1.4248,1.35889c-0.61475,0.62744-1.47412,1.44922-2.57764,2.46631
		c1.14453,1.41016,2.43262,3.1001,3.86426,5.06885c1.43115,1.96924,2.4751,3.39307,3.13135,4.27295
		c0.61426,0.82373,1.16553,1.36133,1.6543,1.6123c0.48828,0.25146,1.2002,0.40527,2.13525,0.46045V32.40576z"/>
	<path style="&st0;" d="M113.49902,27.54932c-0.86523,1.64648-2.02344,2.9585-3.4751,3.93555
		c-1.45166,0.97656-3.11914,1.46533-5.00293,1.46533c-1.66113,0-3.11572-0.29346-4.36475-0.87939s-2.27881-1.38184-3.08789-2.38623
		c-0.80957-1.00488-1.41309-2.17725-1.81055-3.51709c-0.39795-1.33984-0.59668-2.75635-0.59668-4.24951
		c0-1.33984,0.2124-2.65527,0.63818-3.94629c0.42578-1.29053,1.05029-2.45264,1.87402-3.48535
		c0.79541-0.99072,1.78223-1.79004,2.96191-2.39697c1.1792-0.60693,2.50146-0.91064,3.9668-0.91064
		c1.50732,0,2.79834,0.2373,3.87305,0.71191c1.07422,0.47461,1.94678,1.12354,2.6167,1.94678
		c0.6416,0.78174,1.12012,1.70264,1.43408,2.76318c0.31396,1.06104,0.4707,2.2124,0.4707,3.4541v1.38184H99.32715
		c0,1.35645,0.12842,2.58789,0.38721,3.69287c0.25781,1.10498,0.66602,2.07666,1.22461,2.91602
		c0.54395,0.81152,1.25586,1.45166,2.13525,1.91992c0.87891,0.46875,1.92578,0.70312,3.14014,0.70312
		c1.2417,0,2.31299-0.2915,3.21338-0.87354c0.8999-0.58203,1.76855-1.63086,2.60596-3.146L113.49902,27.54932z M108.87256,19.67773
		c0-0.77881-0.06641-1.61377-0.19873-2.50391c-0.13281-0.89062-0.34521-1.63477-0.63818-2.2334
		c-0.32129-0.64014-0.76123-1.16162-1.31885-1.56543c-0.55859-0.40332-1.27734-0.60547-2.15625-0.60547
		c-1.46533,0-2.68311,0.60889-3.65332,1.82617c-0.96973,1.21777-1.49658,2.91162-1.58008,5.08203H108.87256z"/>
	<path style="&st0;" d="M128.63428,31.50537c-0.90723,0.37695-1.76562,0.69482-2.57471,0.95264
		c-0.80957,0.2583-1.80029,0.38721-2.97266,0.38721c-1.73047,0-2.94824-0.43604-3.65283-1.30811
		c-0.70508-0.87207-1.05713-2.104-1.05713-3.69482V13.8584h-3.72656v-2.00977h3.81006V5.42188h3.81006v6.42676h5.92432v2.00977
		h-5.88232v11.53467c0,0.86523,0.03125,1.5874,0.09424,2.1665c0.0625,0.5791,0.2124,1.08545,0.44971,1.51758
		c0.22314,0.40527,0.55811,0.71191,1.00488,0.92139c0.44678,0.20898,1.04688,0.31396,1.80029,0.31396
		c0.34863,0,0.86182-0.03174,1.53906-0.09424c0.67676-0.06299,1.1543-0.14307,1.43359-0.24072V31.50537z"/>
</g>
<g>
	<path style="&st0;" d="M190.14697,2.70068l-0.31396,1.38135c-0.34912,0.01416-0.7749,0.09424-1.27686,0.24072
		c-0.50244,0.14648-0.97021,0.33887-1.40283,0.57568c-0.57227,0.32129-1.05371,0.69092-1.44434,1.10986
		c-0.39111,0.41846-0.78174,0.99072-1.17236,1.71631c-1.4375,2.66602-3.38818,6.31543-5.85107,10.94873
		c-2.46338,4.6333-4.99268,9.33643-7.58838,14.10938h-1.86328l-2.43066-22.92236l-12.99756,22.92236h-1.84229
		c-0.32129-6.3501-0.59326-11.69189-0.81641-16.0249c-0.22363-4.3335-0.39062-7.6167-0.50244-9.84961
		c-0.02832-0.44629-0.11182-0.82324-0.25098-1.13037c-0.13965-0.30664-0.41211-0.62109-0.81641-0.94189
		c-0.29346-0.2373-0.66699-0.41504-1.12012-0.53418c-0.45361-0.11816-0.86182-0.19141-1.22461-0.21973l0.31396-1.38135h11.95215
		l-0.31396,1.38135c-1.66113,0.09814-2.77393,0.27588-3.33887,0.53369c-0.56543,0.25879-0.84766,0.56885-0.84766,0.93164
		c0,0.2793,0.00684,0.69092,0.02051,1.23535c0.01416,0.54443,0.03516,1.10254,0.06348,1.6748
		c0.0415,0.96387,0.14307,2.9082,0.3042,5.83301s0.36084,6.60693,0.59961,11.04688l12.48145-22.21826h1.91553l2.48926,22.67627
		c1.74365-3.33252,3.26367-6.2915,4.56055-8.87793c1.29736-2.58691,2.45459-4.91162,3.47314-6.97559
		c0.61328-1.26855,1.04248-2.23096,1.28711-2.88721c0.24463-0.65576,0.3667-1.11621,0.3667-1.38135
		c0-0.44678-0.31787-0.80615-0.95312-1.07812c-0.63525-0.27246-1.55273-0.44287-2.75293-0.51318l0.31396-1.38135H190.14697z"/>
	<path style="&st0;" d="M199.80078,29.63965h-0.146c-0.30713,0.25146-0.67285,0.56934-1.09766,0.95312
		c-0.42529,0.38428-0.92334,0.75098-1.49512,1.1001c-0.54346,0.34961-1.13574,0.65283-1.77686,0.91162
		c-0.64111,0.2583-1.33789,0.38721-2.09033,0.38721c-2.021,0-3.60645-0.72607-4.75635-2.17871
		c-1.1499-1.45312-1.72461-3.43652-1.72461-5.95117c0-1.73242,0.3208-3.41553,0.9624-5.05029
		c0.6416-1.63379,1.52686-3.10107,2.65674-4.40039c1.07373-1.24268,2.34961-2.24512,3.82812-3.00635
		c1.47803-0.76172,2.99854-1.14209,4.56055-1.14209c0.98975,0,1.93506,0.13281,2.83447,0.39795
		c0.89941,0.26562,1.60742,0.56592,2.12354,0.90088l3.8418-0.98486l0.25195,0.31396l-3.18896,13.51758
		c-0.11182,0.43311-0.22705,0.96094-0.3457,1.58252s-0.17773,1.07959-0.17773,1.37256c0,0.79639,0.16748,1.33447,0.50244,1.61377
		c0.33545,0.2793,0.90186,0.41895,1.69824,0.41895c0.26562,0,0.64355-0.04199,1.13281-0.12549
		c0.48926-0.08398,0.8667-0.17432,1.13232-0.27197l-0.31445,1.33936c-1.25879,0.50244-2.1958,0.86572-2.81104,1.08887
		s-1.36328,0.33496-2.24414,0.33496c-1.00732,0-1.8042-0.29346-2.3916-0.87988
		C200.17822,31.29492,199.85693,30.54736,199.80078,29.63965z M202.81787,16.39551c0-0.46094-0.04932-0.90088-0.14697-1.32031
		c-0.09766-0.41895-0.2998-0.81055-0.60742-1.17383c-0.2793-0.34912-0.66309-0.62842-1.15186-0.83838
		c-0.48877-0.20898-1.10303-0.31396-1.84277-0.31396c-1.01953,0-2.01074,0.33545-2.97412,1.00586
		c-0.96387,0.67041-1.8291,1.57178-2.59668,2.70361c-0.72656,1.06201-1.31982,2.34717-1.78076,3.85645
		s-0.69092,3.03906-0.69092,4.58984c0,0.85205,0.04883,1.60693,0.146,2.26367c0.09766,0.65674,0.28564,1.25732,0.56445,1.80225
		c0.26465,0.53125,0.64746,0.94336,1.14893,1.23682s1.13525,0.43994,1.90137,0.43994c0.77979,0,1.59814-0.21973,2.45508-0.66016
		c0.85645-0.44043,1.82129-1.2124,2.89404-2.31641L202.81787,16.39551z"/>
	<path style="&st0;" d="M232.18213,13.58594c-0.01416,0.80957-0.31055,1.40625-0.88965,1.79004
		c-0.5791,0.38428-1.21045,0.57568-1.89404,0.57568c-0.41895,0-0.89307-0.07324-1.42334-0.21973s-0.94873-0.26855-1.25586-0.36621
		c-0.62793,0.55811-1.35742,1.38135-2.1875,2.47021c-0.83008,1.08838-1.61523,2.28857-2.35449,3.60059
		c0.33447,1.32568,0.63428,2.45947,0.89941,3.40186c0.26465,0.94189,0.55078,1.88721,0.85742,2.83643
		c0.26514,0.85107,0.68018,1.53174,1.24561,2.04102c0.56543,0.50977,1.30859,0.76416,2.22949,0.76416
		c0.33496,0,0.79541-0.04736,1.38184-0.14258c0.58594-0.09521,1.03906-0.20117,1.36035-0.31787l-0.37646,1.39209
		c-1.33984,0.5625-2.34863,0.92822-3.02539,1.09668c-0.67676,0.16895-1.40576,0.25342-2.1875,0.25342
		c-0.97705,0-1.78271-0.22363-2.41797-0.66992c-0.63477-0.44629-1.14795-1.36768-1.53857-2.76318
		c-0.2793-1.01855-0.50635-1.87354-0.68115-2.56445s-0.34619-1.37793-0.51367-2.06201
		c-0.64209,0.96289-1.17236,1.78271-1.59082,2.45947c-0.41895,0.67725-1.11621,1.60889-2.09277,2.79492
		c-0.85156,1.03271-1.63281,1.76562-2.34473,2.19824c-0.71143,0.43213-1.43701,0.64893-2.17627,0.64893
		c-0.65625,0-1.19678-0.19238-1.62256-0.57568c-0.42529-0.38379-0.63818-0.91748-0.63818-1.60156
		c0-0.65576,0.25146-1.21729,0.75293-1.68506c0.50244-0.46777,1.19287-0.70166,2.07178-0.70166
		c0.4458,0,0.88184,0.08057,1.30713,0.24072c0.42529,0.16064,0.86816,0.31104,1.32861,0.4502
		c0.53027-0.50244,1.23047-1.28369,2.10254-2.34473c0.87158-1.06006,1.68408-2.26758,2.4375-3.62158
		c-0.26465-0.99072-0.55322-2.0791-0.86621-3.26562c-0.31299-1.18604-0.6084-2.22559-0.88623-3.11914
		c-0.36328-1.12109-0.78174-1.84131-1.25586-2.15967c-0.47461-0.31836-1.08203-0.47803-1.82129-0.47803
		c-0.40527,0-0.83398,0.05615-1.2876,0.16748c-0.45361,0.11182-0.87598,0.22363-1.2666,0.33496l0.39795-1.39111
		c1.07422-0.4502,2.04053-0.81885,2.89893-1.10693c0.8584-0.28857,1.44092-0.43262,1.74805-0.43262
		c0.96289,0,1.76172,0.23389,2.39697,0.70117c0.63477,0.46777,1.14062,1.37109,1.51758,2.71094
		c0.43213,1.54932,0.68652,2.49512,0.76367,2.83691c0.07617,0.3418,0.22656,1.01514,0.44971,2.02002
		c0.66992-1.03271,1.21387-1.90527,1.63281-2.6167c0.41846-0.71191,1.10254-1.65381,2.05176-2.82617
		c0.87939-1.10254,1.69238-1.85938,2.43896-2.27148c0.74707-0.41162,1.4624-0.61768,2.146-0.61768
		c0.61475,0,1.13428,0.19922,1.56006,0.59668C231.99023,12.44531,232.1958,12.95801,232.18213,13.58594z"/>
	<path style="&st0;" d="M242.81689,30.12402l-0.31396,1.33984c-1.28418,0.51611-2.31006,0.87598-3.07764,1.07812
		s-1.42334,0.30322-1.96777,0.30322c-1.1167,0-1.95361-0.29004-2.51172-0.86963c-0.55859-0.57959-0.8374-1.29541-0.8374-2.14795
		c0-0.32129,0.02783-0.65674,0.0835-1.00586s0.14648-0.78906,0.27246-1.32031l2.21143-8.90674
		c0.11133-0.48877,0.21924-1.0127,0.32422-1.57178c0.10449-0.55859,0.15674-1.03418,0.15674-1.42529
		c0-0.78174-0.12891-1.30225-0.38672-1.56055c-0.25781-0.25879-0.78369-0.38818-1.57764-0.38818
		c-0.30664,0-0.71436,0.04932-1.22266,0.14648c-0.5083,0.09766-0.89453,0.18164-1.15918,0.25146l0.31396-1.33984
		c1.08789-0.48828,2.06396-0.85107,2.9292-1.08887c0.86475-0.23682,1.54834-0.35547,2.05078-0.35547
		c1.14355,0,1.97412,0.27246,2.49023,0.81738s0.77393,1.27832,0.77393,2.2002c0,0.25146-0.02783,0.59375-0.0835,1.02686
		c-0.05615,0.43311-0.13965,0.86621-0.25146,1.29932l-2.22461,8.90625c-0.13867,0.54541-0.25977,1.07959-0.36377,1.60352
		s-0.15576,0.95361-0.15576,1.28906c0,0.79639,0.17725,1.34131,0.53174,1.63477s0.92871,0.43994,1.72168,0.43994
		c0.26367,0,0.64258-0.03467,1.13672-0.10498C242.17334,30.30566,242.55273,30.22168,242.81689,30.12402z M244.30322,3.34961
		c0,0.79541-0.2583,1.48975-0.77441,2.08301c-0.5166,0.59326-1.15869,0.88965-1.92627,0.88965
		c-0.71143,0-1.32568-0.28271-1.84229-0.84814c-0.51611-0.56494-0.77441-1.21045-0.77441-1.93604
		c0-0.76758,0.2583-1.4375,0.77441-2.00977c0.5166-0.57227,1.13086-0.8584,1.84229-0.8584
		c0.79541,0,1.44434,0.26904,1.94678,0.80615S244.30322,2.6377,244.30322,3.34961z"/>
	<path style="&st0;" d="M263.41504,15.62402c0,1.48145-0.46338,2.75391-1.3916,3.81641s-2.27832,1.9082-4.05078,2.53711
		c-1.29785,0.47559-2.60986,0.85986-3.93555,1.15332c-1.32617,0.29395-2.7915,0.53809-4.396,0.73389
		c0,2.20508,0.4082,3.89062,1.22461,5.05566s2.0127,1.74805,3.59033,1.74805c1.39502,0,2.62695-0.34912,3.69482-1.04688
		c1.06738-0.69775,2.11719-1.73779,3.15039-3.11914l1.19336,0.87939c-1.1167,1.70264-2.51221,3.06348-4.18701,4.08203
		s-3.41211,1.52783-5.2124,1.52783c-2.47021,0-4.35791-0.69141-5.6626-2.07422c-1.30518-1.38281-1.95752-3.3457-1.95752-5.88818
		c0-1.75977,0.27539-3.43994,0.82715-5.03955c0.55078-1.59912,1.35693-3.0625,2.41748-4.38965
		c1.03271-1.29932,2.29932-2.34668,3.7998-3.14307c1.5-0.79639,3.15723-1.19434,4.97168-1.19434
		c2.00977,0,3.49951,0.40869,4.46924,1.22656C262.93066,13.30664,263.41504,14.35205,263.41504,15.62402z M259.56396,15.10889
		c0-0.54297-0.07715-0.9707-0.23047-1.28418c-0.15381-0.31348-0.34912-0.54688-0.58594-0.69971
		c-0.25146-0.16699-0.5166-0.27148-0.7959-0.31348s-0.56494-0.0625-0.85791-0.0625c-1.6748,0-3.2207,0.91895-4.63721,2.75732
		c-1.4165,1.83789-2.31299,4.12891-2.68994,6.87207c0.97656-0.13916,2.07959-0.3374,3.30762-0.59521
		c1.22803-0.25732,2.24658-0.59521,3.05615-1.01318c1.1582-0.59863,2.02051-1.36816,2.58545-2.30811
		C259.28125,17.52197,259.56396,16.4043,259.56396,15.10889z"/>
	<path style="&st0;" d="M284.22363,14.6748c0,0.39062-0.05566,0.81982-0.16699,1.28711
		c-0.1123,0.46777-0.27246,0.85547-0.48145,1.16211c-0.25098,0.37695-0.52734,0.6665-0.82715,0.86865
		c-0.2998,0.20264-0.72949,0.30371-1.28711,0.30371c-0.75391,0-1.31934-0.18848-1.69629-0.56543
		c-0.37695-0.37646-0.56445-0.79541-0.56445-1.25586c0-0.43262,0.10449-0.91748,0.31348-1.45508
		c0.20898-0.53711,0.42578-1.0708,0.64941-1.60156c-0.16797,0-0.44336,0.0459-0.82617,0.13672
		c-0.38379,0.09082-0.84668,0.26855-1.38965,0.53418s-1.15918,0.66406-1.84766,1.19531
		c-0.68945,0.53125-1.42383,1.23682-2.20312,2.11719l-3.37305,15.00391h-3.90527l3.05371-13.58057
		c0.06934-0.33545,0.1709-0.83838,0.30371-1.50879c0.13184-0.67041,0.19824-1.16699,0.19824-1.48779
		c0-0.78271-0.13281-1.30615-0.39746-1.57178s-0.79492-0.39844-1.58984-0.39844c-0.30664,0-0.69727,0.05225-1.1709,0.15674
		c-0.47461,0.10498-0.84375,0.19238-1.10938,0.26172l0.31445-1.33984c1.08789-0.48828,2.05078-0.85107,2.88867-1.08838
		c0.83691-0.2373,1.55566-0.35596,2.15625-0.35596c1.11621,0,1.91113,0.30371,2.38574,0.91162s0.71191,1.51904,0.71191,2.73438
		h0.125c1.66113-1.43848,2.9209-2.44434,3.7793-3.01709s1.75488-0.85889,2.69043-0.85889c0.44629,0,0.87891,0.05566,1.29785,0.16748
		s0.77441,0.30029,1.06836,0.56494c0.30664,0.29297,0.5332,0.63184,0.67969,1.01514
		C284.15039,13.39453,284.22363,13.94922,284.22363,14.6748z"/>
</g>
<g>
	<path style="&st0;" d="M325.16113,6.0083c1.46582,1.33936,2.62695,2.9585,3.48535,4.85645s1.28809,4.06104,1.28809,6.48975
		c0,3.44678-0.8623,6.47559-2.58594,9.08496c-1.72363,2.60986-4.16211,4.4873-7.31641,5.63135
		c0.04199,1.66064,0.54492,3.09814,1.50781,4.3125c0.96289,1.21387,2.09961,1.82129,3.41211,1.82129
		c0.80859,0,1.51758-0.04932,2.125-0.14648c0.60645-0.09814,1.1543-0.20947,1.64258-0.33496v1.8418
		c-0.79492,0.33496-1.97461,0.67334-3.53711,1.01562c-1.56348,0.3418-3.20312,0.5127-4.91992,0.5127
		c-2.34473,0-4.27441-0.70117-5.78809-2.104c-1.51465-1.40234-2.3623-3.35986-2.54395-5.87158
		c-1.98145-0.1958-3.82324-0.68408-5.52637-1.46533c-1.70312-0.78174-3.20312-1.83496-4.50098-3.16113
		c-1.26953-1.31152-2.27832-2.86816-3.02441-4.66846c-0.74707-1.80029-1.12012-3.78174-1.12012-5.94531
		c0-2.42822,0.41504-4.62939,1.24512-6.60449c0.83105-1.97461,1.97168-3.6665,3.42285-5.07666
		c1.4375-1.38135,3.14355-2.44531,5.11816-3.19238c1.97559-0.74609,4.0791-1.11963,6.3125-1.11963
		c2.21875,0,4.30176,0.36279,6.24805,1.08838C322.05273,3.69824,323.7373,4.70996,325.16113,6.0083z M319.78125,27.25293
		c0.62793-1.271,1.08105-2.70947,1.36035-4.31543s0.41895-3.42188,0.41895-5.44727c0-1.71777-0.12207-3.39014-0.36621-5.01758
		c-0.24414-1.62695-0.65918-3.07568-1.24512-4.34717c-0.60059-1.271-1.39648-2.29053-2.38672-3.05859
		c-0.99121-0.76807-2.22656-1.15234-3.70508-1.15234c-2.52637,0-4.44531,1.19775-5.75684,3.59326
		c-1.3125,2.39551-1.96777,5.77881-1.96777,10.1499c0,1.85791,0.14258,3.61084,0.42871,5.25879s0.73633,3.08643,1.35059,4.31543
		c0.62793,1.24316,1.42285,2.21045,2.38574,2.90186s2.14941,1.03711,3.55957,1.03711c1.38086,0,2.56738-0.34912,3.55859-1.04736
		C318.40625,29.4248,319.19531,28.46826,319.78125,27.25293z"/>
	<path style="&st0;" d="M359.93262,31.96631l-9.98535,0.60693l-0.31348-0.29297V29.5376h-0.12598
		c-0.47363,0.43311-0.9375,0.85547-1.38965,1.2666c-0.45312,0.41211-0.99316,0.78516-1.62012,1.12012
		c-0.71094,0.37695-1.38379,0.65576-2.01758,0.8374c-0.63379,0.18115-1.55762,0.27197-2.76953,0.27197
		c-2.10449,0-3.71777-0.63477-4.83984-1.90479c-1.12109-1.27002-1.68164-3.06348-1.68164-5.38037v-9.41992
		c0-0.54443-0.10449-0.9873-0.3125-1.32959c-0.20801-0.3418-0.48535-0.64502-0.83203-0.91064
		c-0.27734-0.20898-0.63867-0.35889-1.08203-0.44971c-0.44434-0.09082-0.84668-0.1499-1.20703-0.17822v-1.52832l10.1123-0.54395
		l0.22949,0.31396v13.9209c0,1.4375,0.27539,2.49854,0.82617,3.18213c0.55176,0.68408,1.30859,1.02588,2.27148,1.02588
		c0.99121,0,1.88086-0.2583,2.66895-0.7749c0.78809-0.51611,1.36426-1.06738,1.72754-1.65381v-11.2832
		c0-0.47412-0.09082-0.8999-0.27246-1.27686s-0.44629-0.68359-0.7959-0.92139c-0.25098-0.16748-0.61035-0.27881-1.07715-0.33496
		c-0.46777-0.05518-0.94629-0.09717-1.43457-0.12549v-1.52832l10.17383-0.54395L356.5,11.70215v16.16113
		c0,0.48828,0.09668,0.90381,0.29102,1.24561s0.47852,0.63135,0.85352,0.86865c0.2627,0.16748,0.60645,0.28271,1.0293,0.34521
		c0.42383,0.06299,0.84277,0.10156,1.25879,0.11523V31.96631z"/>
	<path style="&st0;" d="M385.57617,31.96631c-0.61328,0.26514-1.33691,0.50928-2.17285,0.73242s-1.71973,0.33496-2.65332,0.33496
		c-1.71289,0-2.97363-0.25488-3.78125-0.76416s-1.3584-1.23828-1.65039-2.1875h-0.125
		c-0.47559,0.47461-0.93359,0.87939-1.37402,1.21436s-0.91211,0.62109-1.41504,0.8584
		c-0.65723,0.30664-1.28906,0.53662-1.89746,0.69043s-1.45703,0.23047-2.54785,0.23047c-1.62109,0-3.00488-0.479-4.15137-1.43604
		c-1.14648-0.95752-1.71973-2.22559-1.71973-3.80518c0-0.90869,0.12598-1.68066,0.37793-2.31641
		c0.25195-0.63623,0.6084-1.19873,1.06934-1.68799c0.41895-0.44727,0.90527-0.81787,1.45703-1.11133
		s1.15625-0.56592,1.81348-0.81738c1.25879-0.46143,2.76758-0.93994,4.5293-1.43604c1.76074-0.49609,3.04688-0.93994,3.8584-1.33154
		v-2.00977c0-0.34863-0.02832-0.80908-0.08398-1.38184c-0.05566-0.57178-0.1748-1.05322-0.35645-1.44434
		c-0.19531-0.44629-0.50293-0.82324-0.9209-1.13037c-0.41895-0.30664-0.9707-0.46045-1.6543-0.46045
		c-0.61426,0-1.12793,0.0874-1.53906,0.26172c-0.41211,0.17432-0.74414,0.35254-0.99512,0.53369
		c0.04199,0.2793,0.16113,0.70508,0.35645,1.27686c0.19629,0.57227,0.29492,1.12354,0.29492,1.65381
		c0,0.2373-0.06348,0.53369-0.18945,0.88965s-0.30762,0.63867-0.5459,0.84814c-0.32227,0.2793-0.68262,0.49512-1.08105,0.64893
		c-0.39941,0.15332-1.01172,0.22998-1.83691,0.22998c-1.17578,0-2.06445-0.28271-2.66699-0.84766
		c-0.60156-0.56543-0.90234-1.30127-0.90234-2.2085c0-0.78174,0.31055-1.48291,0.93164-2.104
		c0.62109-0.62061,1.37793-1.13379,2.27148-1.53857c0.87891-0.41895,1.89062-0.74316,3.03516-0.97363
		c1.14453-0.22998,2.20508-0.34521,3.18164-0.34521c1.35352,0,2.5957,0.08057,3.72656,0.24072
		c1.13086,0.16064,2.14941,0.49219,3.05664,0.99414c0.86523,0.48877,1.55176,1.19727,2.06152,2.125
		c0.50977,0.92822,0.76465,2.13867,0.76465,3.63184c0,1.57764-0.03223,3.44727-0.09473,5.61035
		c-0.0625,2.16357-0.09375,3.58691-0.09375,4.27051c0,0.62842,0.09375,1.12354,0.28223,1.48633
		c0.18848,0.36328,0.47754,0.63525,0.86914,0.81641c0.2373,0.11182,0.61035,0.17822,1.12012,0.19922
		c0.50879,0.021,0.97266,0.03125,1.3916,0.03125V31.96631z M375.19336,21.05957c-0.78516,0.26611-1.5625,0.57031-2.33301,0.91309
		c-0.76953,0.34277-1.40039,0.70264-1.88965,1.08057c-0.51855,0.3916-0.9248,0.89209-1.21875,1.50049
		c-0.29492,0.6084-0.44141,1.3252-0.44141,2.15039c0,1.09131,0.24902,1.88184,0.74609,2.37158s1.10938,0.73438,1.83789,0.73438
		c0.77051,0,1.4043-0.15723,1.90137-0.47217c0.49707-0.31445,0.93457-0.70264,1.31348-1.16455L375.19336,21.05957z"/>
	<path style="&st0;" d="M414.23535,31.96631l-10.32031,0.60693l-0.31445-0.29297V30.354l-0.14551-0.0415
		c-0.68359,0.73975-1.60742,1.38525-2.77051,1.93604c-1.16406,0.55127-2.33789,0.82715-3.52246,0.82715
		c-2.81543,0-5.13672-1.04688-6.96289-3.14014c-1.8252-2.09326-2.73828-4.80078-2.73828-8.12256
		c0-2.94434,1.02051-5.47021,3.0625-7.57812c2.04199-2.10693,4.5127-3.16064,7.41211-3.16064
		c1.14258,0,2.21582,0.12891,3.21973,0.38721c1.00293,0.2583,1.80469,0.56201,2.4043,0.91064v-6.8457
		c0-0.51611-0.10547-1.00098-0.31445-1.45459s-0.48828-0.80615-0.83691-1.05713c-0.43359-0.30713-0.97363-0.52686-1.62305-0.65967
		c-0.64844-0.13232-1.30176-0.22656-1.95703-0.28271V0.54443L410.15234,0l0.31543,0.33496V27.7793
		c0,0.53076,0.08594,0.97705,0.25977,1.33984c0.17285,0.36328,0.4541,0.64893,0.84277,0.8584
		c0.29199,0.15381,0.71875,0.26514,1.28027,0.33496c0.5625,0.06982,1.02344,0.11182,1.38477,0.12549V31.96631z M403.55957,28.23975
		V16.41211c-0.09766-0.3208-0.2334-0.67676-0.40723-1.06738c-0.1748-0.39062-0.41504-0.76074-0.7207-1.10986
		c-0.27832-0.29297-0.65137-0.55078-1.11719-0.77441c-0.4668-0.22314-0.99219-0.33496-1.57715-0.33496
		c-1.3916,0-2.5332,0.78857-3.4248,2.36572c-0.89062,1.57715-1.33594,3.80322-1.33594,6.67773
		c0,1.13037,0.0791,2.146,0.23926,3.0459c0.16016,0.90039,0.44238,1.72021,0.84668,2.45996
		c0.40332,0.73975,0.92188,1.31885,1.55566,1.7373c0.63281,0.41895,1.39551,0.62793,2.28613,0.62793
		c0.84961,0,1.55273-0.16357,2.10938-0.4917C402.57031,29.2207,403.08594,28.78418,403.55957,28.23975z"/>
</g>
<g>
	<path style="&st0;" d="M453.9082,31.40723c-0.90039,0.68555-2.4668,1.19434-3.99414,1.19434
		c-3.09277,0-5.24609-2.23193-5.24609-4.97266c0-3.26953,2.56445-5.20752,5.28516-5.20752c1.46875,0,2.76074,0.56787,3.38672,1.0376
		l-0.52832,1.625c-0.41113-0.29346-1.46777-1.05713-2.89746-1.0376c-1.68359,0.01953-3.42578,1.05713-3.42578,3.54346
		c0,1.97705,1.46875,3.38672,3.46484,3.38672c0.82227,0,1.60547-0.17627,2.11426-0.50879V28.4707h-2.48633v-1.54639h4.32715
		V31.40723z"/>
	<path style="&st0;" d="M464.24121,24.16406h-4.75684v2.48584h4.16992v1.54688h-4.16992v2.6626h4.95312v1.54639h-6.75488v-9.78857
		h6.55859V24.16406z"/>
	<path style="&st0;" d="M472.81348,32.60156c-2.95605,0-5.24609-2.17285-5.24609-4.97266c0-3.15186,2.48633-5.20752,5.24609-5.20752
		c2.70215,0,5.20801,1.99707,5.20801,5.20752C478.02148,30.23291,475.8291,32.60156,472.81348,32.60156z M472.79395,24.04639
		c-1.76172,0-3.38672,1.25293-3.38672,3.54346c0,1.74219,1.2334,3.38672,3.44531,3.38672c2.0166,0,3.32812-1.64453,3.32812-3.38672
		C476.18066,25.49512,474.6543,24.04639,472.79395,24.04639z"/>
	<path style="&st0;" d="M486.25977,28.4707l3.19141,3.68066v0.25439h-2.03613l-3.13281-3.75879h-1.13477v3.75879h-1.80176v-9.78857
		h3.77832c2.0166,0,3.44629,1.21387,3.44629,2.99512C488.57031,27.12012,487.74805,28.13818,486.25977,28.4707z M485.0459,24.06592
		h-1.89844v3.15186h1.85938c1.07715,0,1.72266-0.5874,1.72266-1.625S486.02539,24.06592,485.0459,24.06592z"/>
	<path style="&st0;" d="M501.05762,31.40723c-0.90039,0.68555-2.4668,1.19434-3.99414,1.19434
		c-3.09277,0-5.24609-2.23193-5.24609-4.97266c0-3.26953,2.56445-5.20752,5.28516-5.20752c1.46875,0,2.76074,0.56787,3.38672,1.0376
		l-0.52832,1.625c-0.41113-0.29346-1.46777-1.05713-2.89746-1.0376c-1.68359,0.01953-3.42578,1.05713-3.42578,3.54346
		c0,1.97705,1.46875,3.38672,3.46484,3.38672c0.82227,0,1.60547-0.17627,2.11426-0.50879V28.4707h-2.48633v-1.54639h4.32715
		V31.40723z"/>
	<path style="&st0;" d="M506.94629,32.40576h-1.80078v-9.78857h1.80078V32.40576z"/>
	<path style="&st0;" d="M517.04688,30.2915h-4.05273l-0.91992,2.11426h-1.87891l4.62012-9.88623h0.3916l4.65918,9.88623h-1.86035
		L517.04688,30.2915z M513.64062,28.78418h2.74121l-1.3125-2.93652h-0.13672L513.64062,28.78418z"/>
</g>
<g>
	<path style="&st0;" d="M20.53857,86.46191c-0.64355-3.12988-1.28662-5.57422-2.44434-8.48926
		c-1.20068-3.04492-3.94482-5.53125-6.9458-5.53125H8.96143v10.0332c0,0.94336,0.30029,1.75781,1.3291,2.14355
		c0.55762,0.21484,2.48682,0.38574,3.25879,0.42871v1.41504H0v-1.41504c0.77197-0.04297,2.52979-0.21387,3.0874-0.42871
		c1.02881-0.38574,1.3291-1.2002,1.3291-2.14355V61.29297c0-0.94336-0.25732-1.80078-1.3291-2.14355
		C2.31543,58.8916,0.77197,58.63477,0,58.5918v-1.41504h14.92139c4.33057,0,8.96143,1.92969,8.96143,6.68848
		c0,4.67383-3.55859,6.1748-8.18945,7.46094v0.42871c2.57227,0.60059,5.78809,2.01562,7.16016,5.44531
		c0.68604,1.71484,1.54395,4.45898,1.7583,5.05957c0.68604,2.10156,1.88623,2.27246,2.70117,2.44434
		c0.85742,0.1709,1.84375,0.2998,2.61572,0.34277v1.41504H20.53857z M12.69189,58.80566H8.96143v11.96289h2.74414
		c3.81592,0,6.90332-2.48633,6.90332-6.47461C18.60889,60.39258,15.95068,58.80566,12.69189,58.80566z"/>
	<path style="&st0;" d="M40.17236,87.0625c-5.14502,0-9.68994-3.98828-9.68994-10.41992c0-6.2168,3.9873-10.54688,9.99023-10.54688
		s9.77588,4.41602,9.77588,10.24707S46.64697,87.0625,40.17236,87.0625z M40.42969,67.55273
		c-4.45898,0-5.6167,4.75977-5.6167,8.74707c0,4.97363,1.58643,9.30469,5.6167,9.30469c3.81641,0,5.48828-4.20215,5.48828-9.21875
		C45.91797,72.0127,44.58887,67.55273,40.42969,67.55273z"/>
	<path style="&st0;" d="M62.72412,86.97656c-6.38867,0-9.56152-4.45898-9.56152-10.50488
		c0-5.40234,3.81592-10.37598,9.81885-10.37598c4.54492,0,6.86035,2.40039,6.86035,5.05859
		c0,1.84375-0.77197,2.74414-2.40137,2.74414c-0.85742,0-2.40088-0.47168-2.40088-2.14355c0-1.80078,0.6001-1.80078,0.6001-2.61523
		c-0.21436-1.24316-1.15771-1.58691-2.74414-1.58691c-2.57275,0-5.40234,2.27246-5.40234,8.74707
		c0,4.8457,2.40088,8.49023,6.25977,8.49023c2.74414,0,4.33057-1.28711,5.87451-3.77344l1.3291,0.85742
		C69.32715,84.7041,66.23975,86.97656,62.72412,86.97656z"/>
	<path style="&st0;" d="M87.67627,86.46191c-0.98633-3.30176-4.03027-9.34766-6.81738-9.34766
		c-1.11475,0-1.50098,0.34375-1.84375,0.64355v5.0166c0,0.94336,0.38574,1.58691,1.15771,1.88672
		c0.64307,0.25684,1.24316,0.42871,2.01514,0.47168v1.3291H72.06885v-1.3291c0.77197-0.04297,1.28662-0.08594,1.88672-0.25781
		c0.81494-0.25684,1.15771-0.94238,1.15771-1.88574V59.32031c-0.08594-1.02832-0.47168-2.01465-1.15771-2.48633
		c-0.6001-0.42871-2.10107-0.55762-2.87256-0.60059v-1.28613l7.63184-0.47168l0.30029,0.2998v21.65332
		c1.9292-1.80078,4.71631-4.45898,6.51709-6.38867c0.21484-0.21484,0.55762-0.68652,0.55762-0.94336
		c0-0.72852-1.54346-1.0293-2.6582-1.1582v-1.28613h9.00391v1.24414c-2.27246,0.64258-4.20166,1.71484-5.18799,2.57227
		c-1.15771,0.98633-2.52979,2.18652-3.94482,3.60156c4.20215,1.97266,5.74561,5.74609,7.67529,9.43262
		c0.34277,0.64355,1.11475,1.07227,1.84375,1.37207c0.72852,0.30078,1.50049,0.30078,1.67188,0.30078v1.28613H87.67627z"/>
	<path style="&st0;" d="M104.99561,86.97656c-6.60303,0-9.68994-4.80273-9.68994-10.59082
		c0-5.27344,3.47266-10.29004,9.26123-10.29004c6.00293,0,8.18945,3.94434,8.18945,8.40332v1.11523H99.50732
		c0,5.53125,1.92969,9.17578,6.68896,9.17578c2.91553,0,4.24463-1.37207,5.70264-3.81641l1.3291,0.81445
		C111.68457,84.83301,108.68311,86.97656,104.99561,86.97656z M104.52393,67.55273c-2.74414,0-4.8877,2.53027-5.0166,6.56055
		l9.13281-0.08594C108.64014,70.94043,107.86865,67.55273,104.52393,67.55273z"/>
	<path style="&st0;" d="M123.81592,86.89062c-3.51562,0-5.23096-2.05762-5.23096-5.87402V68.66797h-3.9873v-1.92969h4.07324v-6.2168
		h3.73047v6.2168h5.78809v1.92969h-5.74561v11.79102c0,2.44434,0.68604,3.94434,3.04443,3.94434
		c1.84375,0,2.18652-1.62891,2.3584-3.25781h1.45752C129.00439,84.31836,127.24609,86.89062,123.81592,86.89062z"/>
</g>
<g>
	<path style="&st0;" d="M190.88721,58.54883c-0.81445,0.04297-2.01514,0.38574-2.87256,0.85742
		c-1.11475,0.55762-1.92969,1.50098-2.74414,2.70117L168.7627,86.80469h-1.97217V65.15234l-14.44971,21.65234h-1.97217
		c0,0,0-21.48145,0-25.38281c0-1.20117-0.12891-1.92969-0.98633-2.3584c-0.64307-0.34277-1.92969-0.51465-2.74414-0.55762
		l0.38574-1.3291h12.52002l-0.38574,1.3291c-1.3291,0.08594-2.52979,0.2998-3.25879,0.55762
		c-1.11475,0.42871-1.37207,1.37207-1.37207,2.22949c0,1.92969,0,19.16602,0,19.16602l12.13428-18.52246
		c0.08594-0.51465,0.12891-0.81543,0.12891-1.3291c0-0.77246-0.34326-1.20117-0.98633-1.54395s-1.9292-0.51465-2.74414-0.55762
		l0.38574-1.3291h12.52051l-0.38623,1.3291c-1.3291,0.08594-2.52979,0.2998-3.2583,0.55762
		c-1.11475,0.42871-1.37207,1.37207-1.37207,2.22949v19.16602l10.59033-16.16504c1.41504-2.18652,1.80078-2.87207,1.80078-3.68652
		c0-1.28711-2.01514-1.92969-3.9873-2.05859l0.38574-1.37207h11.53418L190.88721,58.54883z"/>
	<path style="&st0;" d="M199.37256,86.93359c-1.84375,0-3.98779-0.42871-4.03076-3.85938h-0.08545
		c-1.62939,2.3584-3.6875,3.98828-6.13184,3.98828c-2.87256,0-5.87402-1.41504-5.87402-6.77441
		c0-4.41699,4.2876-13.97852,12.00586-13.97852c1.84375,0,3.51562,0.98633,3.90186,3.12988h0.12842l0.98633-2.83008h3.85889
		l-4.84521,13.93555c-0.42871,1.15723-0.68604,2.57227-0.68604,3.34473c0,1.15723,0.68604,1.5,1.50049,1.5
		c2.01562,0,3.13037-2.78711,4.07373-5.10156l1.24316,0.42871C204.0459,84.14648,202.4165,86.93359,199.37256,86.93359z
		 M194.99902,67.68164c-4.4165,0-7.58936,8.18945-7.58936,13.29199c0,3.85938,1.37207,4.15918,2.48682,4.15918
		c2.44385,0,4.2876-1.92969,5.61719-4.15918l3.12988-9.51855C198.12891,68.83984,197.05713,67.68164,194.99902,67.68164z"/>
	<path style="&st0;" d="M226.7251,75.14258l-0.94336-0.47168c0.47168-0.90039,1.45801-3.90234,1.45801-5.48828
		c0-0.94336-0.12891-1.50098-0.94336-1.50098c-3.90186,0-6.26025,8.10352-6.68896,9.69043
		c-0.47168,1.80078-0.85742,3.47266-0.85742,4.58789c0,3.38672,1.84375,3.34473,2.52979,3.34473
		c1.80078,0,3.21582-1.88672,4.50195-5.0166l1.24365,0.42871c-1.50098,3.64453-3.21582,6.2168-6.7749,6.2168
		c-1.50049,0-4.84473-0.17188-4.84473-5.57422h-0.12891c-0.98633,2.44434-3.12988,5.61719-6.56006,5.61719
		c-2.57275,0-3.43018-1.2002-3.43018-2.91602c0-2.61523,2.05811-4.8877,3.43018-6.0459l1.02881,0.51465
		c-0.90039,1.50098-1.45752,2.83008-1.45752,4.20215c0,1.71484,0,2.6582,0.90039,2.6582c3.77295,0,5.91699-6.13086,6.81738-8.96094
		c0.68604-2.18652,1.15771-4.20215,1.15771-5.66016c0-2.83008-1.37207-2.91504-2.14404-2.91504
		c-2.05811,0-3.72998,2.8291-4.71631,5.40234l-1.28662-0.38574c1.50098-3.81641,3.60205-6.56055,6.60352-6.56055
		c1.84375,0,4.75928,0.21484,4.75928,5.14551h0.12842c0.90039-2.3584,3.34473-5.14551,6.08887-5.14551
		c1.67188,0,3.00098,1.2002,3.00098,3.55859S228.09717,73.89844,226.7251,75.14258z"/>
	<path style="&st0;" d="M236.37012,86.93359c-1.62939,0-4.28809-0.72852-4.28809-3.34473c0-1.02832,0.30029-2.10059,0.85791-3.55859
		l2.82959-7.24609c0.55762-1.50098,0.94336-2.91602,0.94336-3.43066c0-1.15723-0.38574-1.5-1.2002-1.5
		c-1.92969,0-3.21582,2.8291-4.20215,5.40234l-1.28613-0.38574c1.50049-3.81641,3.17285-6.56055,6.2168-6.56055
		c1.84375,0,4.15918,0.64355,4.15918,3.64453c0,1.0293-0.85742,3.08691-1.3291,4.33105l-2.40137,6.25977
		c-0.47168,1.2002-0.94287,2.70117-0.94287,3.34473c0,1.37207,0.77148,1.5,1.41455,1.5c1.92969,0,2.87305-2.05762,4.20215-5.10156
		l1.24365,0.42871C241.08643,84.36133,239.37158,86.93359,236.37012,86.93359z M240.31445,61.50781
		c-1.41455,0-2.18652-1.07227-2.18652-2.40137c0-1.62988,1.15771-3.00195,2.9585-3.00195c1.20068,0,2.01514,1.1582,2.01514,2.3584
		C243.10156,60.09277,242.07275,61.50781,240.31445,61.50781z"/>
	<path style="&st0;" d="M249.23145,77.54395c-0.25732,0.98535-0.51465,2.48633-0.51465,3.68652
		c0,2.74414,1.07227,3.94531,3.30176,3.94531c3.12988,0,4.97363-2.53027,6.51758-5.48828l1.28613,0.60059
		c-2.6582,5.05859-5.78857,6.77441-8.57568,6.77441c-3.04395,0-6.56006-1.41504-6.56006-6.86035
		c0-4.63086,4.33057-13.89258,12.34863-13.89258c1.92969,0,3.55908,0.98633,3.55908,3.08691
		C260.59424,74.54199,253.43359,76.90039,249.23145,77.54395z M255.70605,67.63867c-2.48682,0-5.05957,4.54492-6.21729,8.61816
		c6.0459-1.07129,8.06104-4.33008,8.06104-6.38867C257.5498,68.49609,257.07812,67.63867,255.70605,67.63867z"/>
	<path style="&st0;" d="M278,72.14062c-1.50098,0-2.10156-0.81445-2.10156-1.80078c0-1.02832,0.98633-1.54297,0.98633-1.92969
		c0-0.38574,0.04297-0.51367-0.64258-0.51367c-1.50098,0-3.47363,3.21582-4.7168,5.48828l-3.9873,13.07715h-3.85938
		l4.24512-13.67773c0.2998-0.90039,0.81445-2.91602,0.81445-3.43066c0-1.15723-0.38574-1.5-1.2002-1.5
		c-1.92969,0-3.21582,2.8291-4.20215,5.40234l-1.28662-0.38574c1.50049-3.81641,3.17334-6.56055,6.21729-6.56055
		c1.84375,0,3.90234,0.72852,3.90234,3.94434l0.12793,0.04297c1.28613-2.05762,2.70117-3.9873,5.27441-3.9873
		c1.80078,0,2.78711,1.28613,2.78711,2.61523S279.50098,72.14062,278,72.14062z"/>
</g>
<g>
	<path style="&st0;" d="M324.22852,94.56543c-5.31738,0-7.84668-2.87207-8.49023-7.50293
		c-0.51367,0.08496-1.37207,0.1709-2.14355,0.1709c-8.53223,0-15.86426-5.87402-15.86426-15.09277
		c0-9.69043,7.11719-15.73535,16.03613-15.73535c8.5752,0,15.99316,5.74512,15.99316,15.2207
		c0,5.95996-2.91602,11.10547-8.01855,13.80664c1.0293,3.47363,3.98828,4.41699,5.57422,4.41699
		c2.57227,0,4.11621-1.54395,5.05957-3.00195l1.1582,0.77148C332.33203,89.7207,329.07324,94.56543,324.22852,94.56543z
		 M313.7666,58.29199c-5.10254,0-7.93262,5.0166-7.93262,13.63477c0,3.38672,0.38574,6.43164,1.41504,8.83203
		c1.50098-2.95801,3.94434-4.11621,6.25977-4.11621c3.17285,0,5.23145,1.58691,6.47461,4.63086h0.25781
		c1.07129-2.31543,1.5-5.70215,1.5-9.51855C321.74121,64.98047,319.72656,58.29199,313.7666,58.29199z M311.87988,79.38672
		c-1.20117,0-2.95898,0.42969-3.77344,3.00195c1.28613,1.92969,3.17285,3.04395,5.66016,3.04395
		c0.72852,0,1.24316-0.08594,1.80078-0.21387C315.22461,81.31641,314.45215,79.38672,311.87988,79.38672z"/>
	<path style="&st0;" d="M347.97852,86.63379l-0.2998-0.30078v-2.61523h-0.12891c-1.62891,1.62891-3.30176,3.34473-6.98926,3.34473
		c-3.9873,0-5.61621-2.95898-5.61621-6.98926v-9.17578c-0.08594-1.07227-0.42969-1.67188-1.11523-2.14355
		c-0.51465-0.34375-1.41504-0.55762-2.18652-0.60059v-1.28613l9.26074-0.55762l0.21484,0.2998V79.9873
		c0,2.83008,1.15723,4.28809,2.5293,4.28809c2.3584,0,3.55957-1.75781,3.98828-2.61621V70.76855
		c-0.08594-0.90039-0.38574-1.62891-1.0293-2.10059c-0.42871-0.34277-1.41504-0.42871-2.40137-0.47168v-1.3291l9.26172-0.55762
		l0.2998,0.2998V82.2168c0.08594,0.90039,0.42871,1.58691,1.11523,2.05859c0.51465,0.34277,1.41504,0.42871,2.18652,0.47168v1.28613
		L347.97852,86.63379z"/>
	<path style="&st0;" d="M375.54492,87.0625c-2.78711,0-4.03027-1.1582-4.8877-2.83008h-0.12891
		c-1.41504,1.54395-3.08691,2.87305-6.47461,2.87305c-2.95801,0-5.23047-2.10156-5.23047-4.93164
		c0-3.6875,2.10059-4.97363,4.28809-5.78809c2.48633-0.94336,5.83105-1.75781,7.45996-2.6582v-1.92969
		c0-1.41504-0.1709-4.33008-2.6582-4.33008c-1.11523,0-1.75781,0.42871-2.18652,0.81445
		c0.04297,0.64258,0.55762,1.67188,0.55762,2.83008c0,0.94336-1.1582,2.44336-3.43066,2.44336s-3.08691-1.45801-3.08691-2.87305
		c0-2.70117,4.67383-4.67285,8.44629-4.67285c4.7168,0,8.5332,0.77148,8.5332,6.55957c0,3.90234-0.25781,8.4043-0.25781,9.81934
		c0,0.51465,0.17188,1.97266,1.54395,1.97266c1.11426,0,1.50098-1.84375,1.54395-3.43066h1.54297
		C380.94824,85.00391,379.14648,87.0625,375.54492,87.0625z M365.29785,80.97363c0,2.14355,1.0293,3.08691,2.31543,3.08691
		c1.45801,0,2.14355-0.68555,2.8291-1.58594l0.17188-7.03223C367.57031,76.60059,365.29785,77.62891,365.29785,80.97363z"/>
	<path style="&st0;" d="M396.98047,86.63379l-0.2998-0.30078v-1.84375l-0.17188-0.04297
		c-0.94336,0.98633-3.08691,2.65918-5.74512,2.65918c-5.0166,0-8.91895-4.20215-8.91895-10.80566
		c0-6.0459,4.63086-10.29004,9.60449-10.29004c2.6582,0,4.67383,0.98633,5.18848,1.24316v-7.63184
		c-0.08594-0.90039-0.42871-2.01562-1.11523-2.4873c-0.81445-0.55762-2.57227-0.81445-3.81543-0.90039v-1.24316l10.76172-0.51465
		l0.2998,0.2998v27.39844c0.04297,1.0293,0.38672,1.62988,1.07227,2.10156c0.51465,0.34277,1.80078,0.42871,2.57227,0.47168v1.28613
		L396.98047,86.63379z M396.6377,70.9834c-0.38574-1.3291-1.3291-3.21582-3.60156-3.21582c-2.4873,0-4.45996,3.30176-4.45996,8.875
		c0,4.03125,1.28711,7.88965,4.63086,7.88965c1.62988,0,2.53027-0.77148,3.43066-1.92969V70.9834z"/>
</g>
<g>
	<path style="&st0;" d="M453.92773,80.94141l-3.07324,5.61816h-0.15723l-3.07324-5.61816h-0.05859l-0.7832,5.52051h-1.82129
		l1.56641-9.88672h0.3916l3.89551,6.98926h0.05957l3.75879-6.98926h0.3916l1.56543,9.88672h-1.82031l-0.7832-5.52051H453.92773z"/>
	<path style="&st0;" d="M462.14551,86.46191h-1.80078v-9.78809h1.80078V86.46191z"/>
</g>
<g>
	<path style="&st0;" d="M468.29102,84.91504h4.3457v1.54688h-6.14746v-9.78809h1.80176V84.91504z"/>
	<path style="&st0;" d="M477.68555,84.91504h4.3457v1.54688h-6.14746v-9.78809h1.80176V84.91504z"/>
</g>
<g>
	<path style="&st0;" d="M491.83691,78.21973h-4.75684v2.48633H491.25v1.54688h-4.16992v2.66211h4.95312v1.54688h-6.75488v-9.78809
		h6.55859V78.21973z"/>
	<path style="&st0;" d="M500.76074,82.52734l3.19141,3.67969v0.25488h-2.03613l-3.13281-3.75879h-1.13477v3.75879h-1.80176v-9.78809
		h3.77832c2.0166,0,3.44629,1.21289,3.44629,2.99512C503.07129,81.17578,502.24902,82.19434,500.76074,82.52734z
		 M499.54688,78.12207h-1.89844v3.15234h1.85938c1.07715,0,1.72266-0.58789,1.72266-1.625
		C501.23047,78.61133,500.52637,78.12207,499.54688,78.12207z"/>
</g>
</svg>
