<?xml version="1.0" encoding="utf-8"?>
<!-- Generator: Adobe Illustrator 15.1.0, SVG Export Plug-In . SVG Version: 6.00 Build 0)  -->
<!DOCTYPE svg PUBLIC "-//W3C//DTD SVG 1.1//EN" "http://www.w3.org/Graphics/SVG/1.1/DTD/svg11.dtd" [
	<!ENTITY st0 "fill:#231F20;">
]>
<svg version="1.1" id="Layer_1" xmlns="http://www.w3.org/2000/svg" xmlns:xlink="http://www.w3.org/1999/xlink" x="0px" y="0px"
	 width="446.9209px" height="228.75195px" viewBox="0 0 446.9209 228.75195" style="enable-background:new 0 0 446.9209 228.75195;"
	 xml:space="preserve">
<g>
	<path style="&st0;" d="M0.62793,3.74512c1.54785-0.02539,2.9458-0.47461,4.16895-1.24902l1.12305,0.125v14.4541l2.62158,0.37402
		v0.87402H1.20215v-0.87402l2.62109-0.37402V4.41895c-1.17334,0.27441-2.39648,0.32422-3.19531,0.125V3.74512z"/>
	<path style="&st0;" d="M12.73242,15.42773c0.84863,0,1.54785,0.69824,1.54785,1.54785c0,0.84863-0.69922,1.52246-1.54785,1.52246
		s-1.52295-0.67383-1.52295-1.52246C11.20947,16.12598,11.88379,15.42773,12.73242,15.42773z"/>
</g>
<g>
	<path style="&st0;" d="M55.43408,10.58496v6.49023l2.47119,0.37402v0.87402h-7.13965v-0.87402l2.24707-0.37402V1.94727
		l-2.24707-0.37402V0.69922h6.31592c2.896,0,6.19092,1.37305,6.19092,5.01758c0,2.99512-2.37158,4.86816-6.31592,4.86816H55.43408z
		 M55.43408,9.43652h1.87207c1.87256,0,3.47021-1.37305,3.47021-3.57031c0-2.8457-1.44824-3.86914-3.69482-3.86914h-1.64746V9.43652
		z"/>
	<path style="&st0;" d="M70.23242,8.03809c-0.64893,0.4248-1.62256,1.62305-1.94678,2.34668v6.81543l1.97217,0.37402v0.74902
		h-5.49219v-0.74902l1.49805-0.37402V8.83691L64.64062,8.1377V7.61426l2.99609-1.04883h0.57373l0.1748,1.77246l0.22461,0.09961
		c1.04883-1.19824,1.84766-1.87207,2.84619-1.87207c0.82373,0,1.49756,0.57422,1.49756,1.57227
		c0,0.87402-0.47412,1.49805-1.27295,1.49805c-0.69922,0-1.17334-0.49902-1.17334-1.37305L70.23242,8.03809z"/>
	<path style="&st0;" d="M77.31934,17.2002l1.49805,0.37402v0.74902h-5.01807v-0.74902l1.49805-0.37402V8.83691L73.6748,8.1377
		V7.61426l3.04541-1.04883h0.59912V17.2002z M76.2959,0.2002c0.79883,0,1.49756,0.69824,1.49756,1.49707
		c0,0.77441-0.69873,1.47363-1.49756,1.47363c-0.77393,0-1.47266-0.69922-1.47266-1.47363
		C74.82324,0.89844,75.52197,0.2002,76.2959,0.2002z"/>
	<path style="&st0;" d="M86.82861,18.32324v-0.74902l1.49756-0.37402v-6.1416c0-2.17188-0.82373-2.89551-2.29639-2.89551
		c-0.99854,0-1.89746,0.47461-2.39648,0.92383v8.11328l1.49756,0.37402v0.74902h-5.01758v-0.74902l1.49805-0.37402V8.83691
		L79.98828,8.1377V7.61426l2.9707-1.04883h0.59912l0.1499,1.24805l0.19971,0.15039c1.17334-0.87402,2.12207-1.39844,3.19531-1.39844
		c1.19824,0,2.27197,0.54883,2.8208,1.74707c1.24805-0.92285,2.47168-1.74707,3.86963-1.74707
		c1.74707,0,3.27002,1.17383,3.27002,3.81934v6.81543l1.49805,0.37402v0.74902h-5.01807v-0.74902l1.49805-0.37402v-6.1416
		c0-2.17188-0.84863-2.89551-2.29688-2.89551c-0.79883,0-1.79736,0.49902-2.47119,0.92383
		c0.0249,0.32422,0.07471,0.67383,0.07471,1.02344v7.08984l1.49805,0.37402v0.74902H86.82861z"/>
	<path style="&st0;" d="M105.59473,16.97559h-0.24951c-1.04834,1.09766-1.84717,1.64746-2.87061,1.64746
		c-1.27344,0-2.27197-1.82227-2.27197-2.94629c0-1.09766,0.59912-2.19629,1.97217-2.77051l3.52002-1.52246v-1.04883
		c0-1.64746-0.69922-2.37109-1.92236-2.37109c-0.54932,0-1.37305,0.34863-1.67236,0.79883
		c0.0249,0.29883,0.14941,0.92285,0.14941,1.42285c0,0.64844-0.52393,0.97363-1.09814,0.97363
		c-0.52441,0-0.97363-0.5-0.97363-1.22363c0-0.54883,0.1748-1.04883,0.69922-1.49805
		c0.89844-0.62402,2.92041-1.87207,3.91895-1.87207c1.79736,0,2.74609,1.24805,2.74609,2.99609v6.36523
		c0,0.54883,0.09961,1.07324,0.64893,1.07324c0.42432,0,0.79883-0.49902,0.97363-0.92383l0.49951,0.2002
		c-0.59961,1.74707-1.77246,2.27148-2.52148,2.27148C106.31885,18.54785,105.66992,17.99902,105.59473,16.97559z
		 M105.71973,12.38184l-2.14697,0.97363c-0.54932,0.22461-1.39795,0.89844-1.39795,1.87207
		c0,0.92383,0.54932,1.72266,1.27295,1.72266c0.94873,0,2.27197-0.89844,2.27197-2.07227V12.38184z"/>
	<path style="&st0;" d="M116.02637,8.03809c-0.64893,0.4248-1.62256,1.62305-1.94678,2.34668v6.81543l1.97217,0.37402v0.74902
		h-5.49219v-0.74902l1.49805-0.37402V8.83691l-1.62305-0.69922V7.61426l2.99609-1.04883h0.57373l0.1748,1.77246l0.22461,0.09961
		c1.04883-1.19824,1.84766-1.87207,2.84619-1.87207c0.82373,0,1.49756,0.57422,1.49756,1.57227
		c0,0.87402-0.47412,1.49805-1.27295,1.49805c-0.69922,0-1.17334-0.49902-1.17334-1.37305L116.02637,8.03809z"/>
	<path style="&st0;" d="M124.43604,6.88965v0.74902l-1.47266,0.375l2.57129,7.21387h0.24951l2.44629-7.21387l-1.82227-0.375V6.88965
		h4.36865v0.74902l-1.54785,0.375l-4.19385,12.58105c-0.92383,2.8457-2.04688,3.96973-3.91895,3.96973
		c-1.09863,0-1.64795-0.59961-1.64795-1.29883c0-0.54883,0.49951-1.04785,1.14844-1.04785
		c0.69873,0,0.94873,0.57422,1.74756,0.57422c0.97363,0,1.72217-1.37305,2.37158-4.14453l-3.84473-10.63379l-1.22314-0.375V6.88965
		H124.43604z"/>
	<path style="&st0;" d="M143.87744,18.32324v-0.74902l1.49756-0.37402v-6.0166c0-2.17188-0.84863-3.02051-2.32129-3.02051
		c-0.99854,0-1.89746,0.47461-2.39648,0.92383v8.11328l1.49756,0.37402v0.74902h-5.01758v-0.74902l1.49805-0.37402V2.29688
		l-1.62256-0.72363V1.04883L140.05811,0h0.59912v7.81348l0.19971,0.15039c1.14795-0.87402,2.19678-1.39844,3.27002-1.39844
		c1.74756,0,3.27051,1.17383,3.27051,3.81934v6.81543l1.49756,0.37402v0.74902H143.87744z"/>
	<path style="&st0;" d="M152.41113,11.4082c-0.02539,0.22461-0.02539,0.47461-0.02539,0.69922
		c0,3.16992,1.72266,4.74316,3.54492,4.74316c1.32324,0,2.42139-0.59961,3.32031-2.04688l0.69873,0.47363
		c-0.74854,1.44824-2.12158,3.3457-4.61816,3.3457c-3.04541,0-4.96777-2.9209-4.96777-5.91699
		c0-3.41992,2.02197-6.14062,4.89307-6.14062c2.7959,0,4.44336,2.37109,4.44336,4.04395c0,0.47461-0.0249,0.79883-0.27441,0.79883
		H152.41113z M152.53564,10.41016h4.59326c0.1001-0.27441,0.125-0.64941,0.125-0.89941c0-1.19824-0.84863-1.92188-2.02197-1.92188
		C153.68408,7.58887,152.86035,8.83691,152.53564,10.41016z"/>
	<path style="&st0;" d="M167.11084,16.97559h-0.24951c-1.04834,1.09766-1.84717,1.64746-2.87109,1.64746
		c-1.27295,0-2.27148-1.82227-2.27148-2.94629c0-1.09766,0.59912-2.19629,1.97217-2.77051l3.52002-1.52246v-1.04883
		c0-1.64746-0.69922-2.37109-1.92236-2.37109c-0.54932,0-1.37305,0.34863-1.67236,0.79883
		c0.0249,0.29883,0.14941,0.92285,0.14941,1.42285c0,0.64844-0.52393,0.97363-1.09814,0.97363
		c-0.52441,0-0.97363-0.5-0.97363-1.22363c0-0.54883,0.1748-1.04883,0.69873-1.49805
		c0.89893-0.62402,2.9209-1.87207,3.91943-1.87207c1.79736,0,2.74609,1.24805,2.74609,2.99609v6.36523
		c0,0.54883,0.09961,1.07324,0.64893,1.07324c0.42432,0,0.79883-0.49902,0.97363-0.92383l0.49902,0.2002
		c-0.59863,1.74707-1.77197,2.27148-2.521,2.27148C167.83496,18.54785,167.18555,17.99902,167.11084,16.97559z M167.23584,12.38184
		l-2.14697,0.97363c-0.54932,0.22461-1.39795,0.89844-1.39795,1.87207c0,0.92383,0.54932,1.72266,1.27295,1.72266
		c0.94873,0,2.27197-0.89844,2.27197-2.07227V12.38184z"/>
	<path style="&st0;" d="M182.08594,16.50098l1.44824,0.69922v0.67383l-2.32178,0.74902h-0.59912l-0.62402-1.17383h-0.22461
		c-1.14844,0.84863-2.22168,1.17383-3.49512,1.17383c-1.69727,0-4.21875-1.69824-4.21875-5.7168
		c0-3.94434,2.67139-6.34082,5.36719-6.34082c1.12354,0,2.04688,0.22461,2.646,0.39941V2.29688l-1.69727-0.72363V1.04883L181.4873,0
		h0.59863V16.50098z M180.06396,8.8623c-0.49902-0.69922-1.47266-1.24805-2.49609-1.24805
		c-1.34814,0-3.41992,1.22266-3.41992,4.69238c0,3.12109,1.82227,4.76855,3.27002,4.76855c1.09863,0,2.09717-0.62402,2.646-1.12305
		V8.8623z"/>
	<path style="&st0;" d="M188.34814,17.2002l1.49756,0.37402v0.74902h-5.01758v-0.74902l1.49805-0.37402V8.83691l-1.62256-0.69922
		V7.61426l3.04541-1.04883h0.59912V17.2002z M187.32471,0.2002c0.79883,0,1.49756,0.69824,1.49756,1.49707
		c0,0.77441-0.69873,1.47363-1.49756,1.47363c-0.77393,0-1.47314-0.69922-1.47314-1.47363
		C185.85156,0.89844,186.55078,0.2002,187.32471,0.2002z"/>
	<path style="&st0;" d="M197.88184,18.32324v-0.74902l1.49756-0.37402v-6.1416c0-2.17188-0.84863-2.89551-2.32129-2.89551
		c-0.99854,0-1.89746,0.47461-2.39648,0.92383v8.11328l1.49756,0.37402v0.74902h-5.01758v-0.74902l1.49805-0.37402V8.83691
		L191.0166,8.1377V7.61426l2.9707-1.04883h0.59912l0.1499,1.24805l0.19971,0.15039c1.17334-0.87402,2.12207-1.39844,3.19531-1.39844
		c1.74756,0,3.27002,1.17383,3.27002,3.81934v6.81543l1.49805,0.37402v0.74902H197.88184z"/>
	<path style="&st0;" d="M205.94141,18.59766c-0.64893-0.57422-1.17334-1.22266-0.79883-2.07129l0.97363-2.17188v-0.4248
		c-0.92383-0.62402-1.64746-1.64746-1.64746-3.2207c0-2.19629,1.52246-4.04395,4.16895-4.04395
		c1.02344,0,1.84717,0.27539,2.5459,0.74902l3.44531-0.19922V8.9873l-2.29688-0.15039c0.24951,0.5,0.42432,1.04883,0.42432,1.72266
		c0,2.5459-1.57275,4.11914-4.29346,4.11914c-0.39941,0-0.82373-0.0498-1.02344-0.125
		c-0.34961,0.09961-0.59912,0.74902-0.59912,1.07324c0,0.64941,0.34912,1.12402,1.14795,1.12402h3.52002
		c1.69775,0,2.9209,0.59863,2.9209,2.5459c0,2.8457-3.14551,5.26758-7.04004,5.26758c-1.69727,0-2.8457-1.07422-2.8457-2.64648
		c0-1.07324,0.59912-2.27148,1.39795-2.99512V18.59766z M210.58447,18.59766h-3.02051
		c-0.92334,0.2998-1.34814,0.97363-1.34814,2.12207c0,1.42285,0.89893,2.27148,2.84619,2.27148
		c1.82227,0,3.86914-1.02344,3.86914-2.87109C212.93115,19.02246,212.05762,18.59766,210.58447,18.59766z M208.5874,7.61426
		c-1.19824,0-2.02197,1.14844-2.02197,3.04492c0,2.12207,0.84863,3.19531,2.02197,3.19531
		c1.32324,0,2.19678-1.14844,2.19678-3.26953C210.78418,9.11133,210.01074,7.61426,208.5874,7.61426z"/>
</g>
<g>
	<path style="&st0;" d="M51.29199,37.77637c1.54785-0.02539,2.9458-0.47461,4.16895-1.24902l1.12305,0.125v14.4541l2.62158,0.37402
		v0.87402h-7.33936v-0.87402l2.62109-0.37402V38.4502c-1.17334,0.27441-2.39648,0.32422-3.19531,0.125V37.77637z"/>
	<path style="&st0;" d="M63.39648,49.45898c0.84863,0,1.54785,0.69824,1.54785,1.54785c0,0.84863-0.69922,1.52246-1.54785,1.52246
		s-1.52295-0.67383-1.52295-1.52246C61.87354,50.15723,62.54785,49.45898,63.39648,49.45898z"/>
	<path style="&st0;" d="M67.7627,37.77637c1.54785-0.02539,2.9458-0.47461,4.16895-1.24902l1.12305,0.125v14.4541l2.62158,0.37402
		v0.87402h-7.33936v-0.87402l2.62109-0.37402V38.4502c-1.17334,0.27441-2.39648,0.32422-3.19531,0.125V37.77637z"/>
</g>
<g>
	<path style="&st0;" d="M119.22168,46.8877h0.97363c0.69922,3.07031,2.52148,4.64258,4.91797,4.64258
		c1.97217,0,3.39502-1.19824,3.39502-3.02051c0-1.54785-0.64893-2.89551-3.76953-4.21875
		c-3.49463-1.49707-5.01758-2.74609-5.01758-5.2666c0-2.12207,1.97217-4.59375,5.29199-4.59375
		c1.59766,0,2.7959,0.47461,3.54492,0.77441l1.04834-0.47461h0.49951l0.49902,5.11719h-0.79883
		c-0.89844-2.8457-2.771-4.26855-4.66797-4.26855c-1.79736,0-3.22021,0.92383-3.22021,2.69629
		c0,1.67188,1.47266,2.94531,4.14404,4.09375c2.87061,1.22363,4.64307,2.47168,4.64307,5.24219
		c0,3.29492-2.44629,5.04297-5.5918,5.04297c-1.24805,0-2.74609-0.4248-3.66992-0.97363l-1.22314,0.49902h-0.99854V46.8877z"/>
	<path style="&st0;" d="M134.66992,45.43945c-0.0249,0.22461-0.0249,0.47461-0.0249,0.69922
		c0,3.16992,1.72266,4.74316,3.54492,4.74316c1.32324,0,2.42139-0.59961,3.32031-2.04688l0.69873,0.47363
		c-0.74902,1.44824-2.12158,3.3457-4.61816,3.3457c-3.04541,0-4.96777-2.9209-4.96777-5.91699
		c0-3.41992,2.02197-6.14062,4.89307-6.14062c2.7959,0,4.44336,2.37109,4.44336,4.04395c0,0.47461-0.0249,0.79883-0.27441,0.79883
		H134.66992z M134.79492,44.44141h4.59326c0.1001-0.27441,0.125-0.64941,0.125-0.89941c0-1.19824-0.84912-1.92188-2.02197-1.92188
		C135.94336,41.62012,135.11963,42.86816,134.79492,44.44141z"/>
	<path style="&st0;" d="M145.9751,46.26367c0,3.29492,1.54785,4.51855,3.49512,4.51855c1.37256,0,2.49609-0.94922,3.09521-1.99707
		l0.77393,0.37402c-0.79883,2.02246-2.34668,3.49512-4.51855,3.49512c-3.04541,0-5.01758-2.72168-5.01758-5.94141
		c0-3.39551,2.24658-6.11621,5.44189-6.11621c2.39648,0,3.76953,1.17383,3.76953,2.49609c0,0.67383-0.32422,1.04883-1.19824,1.04883
		c-1.59766,0-0.92334-2.59668-2.87061-2.59668C147.52295,41.54492,145.9751,43.39258,145.9751,46.26367z"/>
	<path style="&st0;" d="M160.12598,40.59668c2.9209,0,5.29199,2.27148,5.29199,6.04102c0,3.99414-2.37109,6.0166-5.29199,6.0166
		s-5.31738-2.14746-5.31738-6.0166C154.80859,42.91797,157.20508,40.59668,160.12598,40.59668z M160.12598,51.60547
		c1.57275,0,2.9707-0.99805,2.9707-4.99219c0-3.69531-1.39795-4.96777-2.9707-4.96777s-2.9707,1.32227-2.9707,4.96777
		C157.15527,50.20801,158.55322,51.60547,160.12598,51.60547z"/>
	<path style="&st0;" d="M173.62793,52.35449v-0.74902l1.49756-0.37402v-6.1416c0-2.17188-0.84863-2.89551-2.32129-2.89551
		c-0.99854,0-1.89746,0.47461-2.39648,0.92383v8.11328l1.49756,0.37402v0.74902h-5.01758v-0.74902l1.49805-0.37402v-8.36328
		l-1.62305-0.69922v-0.52344l2.9707-1.04883h0.59912l0.1499,1.24805l0.19971,0.15039
		c1.17334-0.87402,2.12207-1.39844,3.19531-1.39844c1.74756,0,3.27002,1.17383,3.27002,3.81934v6.81543l1.49805,0.37402v0.74902
		H173.62793z"/>
	<path style="&st0;" d="M190.14941,50.53223l1.44824,0.69922v0.67383l-2.32178,0.74902h-0.59912l-0.62402-1.17383h-0.22461
		c-1.14844,0.84863-2.22168,1.17383-3.49512,1.17383c-1.69727,0-4.21875-1.69824-4.21875-5.7168
		c0-3.94434,2.67139-6.34082,5.36719-6.34082c1.12354,0,2.04688,0.22461,2.646,0.39941v-4.66797l-1.69727-0.72363v-0.52441
		l3.12061-1.04883h0.59863V50.53223z M188.12744,42.89355c-0.49902-0.69922-1.47266-1.24805-2.49609-1.24805
		c-1.34814,0-3.41992,1.22266-3.41992,4.69238c0,3.12109,1.82227,4.76855,3.27002,4.76855c1.09863,0,2.09717-0.62402,2.646-1.12305
		V42.89355z"/>
	<path style="&st0;" d="M198.6333,51.00684h-0.24951c-1.04834,1.09766-1.84717,1.64746-2.87109,1.64746
		c-1.27295,0-2.27148-1.82227-2.27148-2.94629c0-1.09766,0.59912-2.19629,1.97217-2.77051l3.52002-1.52246v-1.04883
		c0-1.64746-0.69922-2.37109-1.92236-2.37109c-0.54932,0-1.37305,0.34863-1.67236,0.79883
		c0.0249,0.29883,0.14941,0.92285,0.14941,1.42285c0,0.64844-0.52393,0.97363-1.09814,0.97363
		c-0.52441,0-0.97363-0.5-0.97363-1.22363c0-0.54883,0.1748-1.04883,0.69873-1.49805
		c0.89893-0.62402,2.9209-1.87207,3.91943-1.87207c1.79736,0,2.74609,1.24805,2.74609,2.99609v6.36523
		c0,0.54883,0.09961,1.07324,0.64893,1.07324c0.42432,0,0.79883-0.49902,0.97363-0.92383l0.49902,0.2002
		c-0.59863,1.74707-1.77197,2.27148-2.521,2.27148C199.35742,52.5791,198.70801,52.03027,198.6333,51.00684z M198.7583,46.41309
		l-2.14697,0.97363c-0.54932,0.22461-1.39795,0.89844-1.39795,1.87207c0,0.92383,0.54932,1.72266,1.27295,1.72266
		c0.94873,0,2.27197-0.89844,2.27197-2.07227V46.41309z"/>
	<path style="&st0;" d="M209.06445,42.06934c-0.64893,0.4248-1.62256,1.62305-1.94678,2.34668v6.81543l1.97217,0.37402v0.74902
		h-5.49219v-0.74902l1.49805-0.37402v-8.36328l-1.62305-0.69922v-0.52344l2.99609-1.04883h0.57373l0.1748,1.77246l0.22461,0.09961
		c1.04883-1.19824,1.84766-1.87207,2.84619-1.87207c0.82373,0,1.49756,0.57422,1.49756,1.57227
		c0,0.87402-0.47412,1.49805-1.27295,1.49805c-0.69922,0-1.17334-0.49902-1.17334-1.37305L209.06445,42.06934z"/>
	<path style="&st0;" d="M217.47461,40.9209v0.74902l-1.47266,0.375l2.57129,7.21387h0.24951l2.44629-7.21387l-1.82227-0.375V40.9209
		h4.36865v0.74902l-1.54785,0.375l-4.19385,12.58105c-0.92334,2.8457-2.04688,3.96973-3.91943,3.96973
		c-1.09814,0-1.64746-0.59961-1.64746-1.29883c0-0.54883,0.49951-1.04785,1.14844-1.04785
		c0.69922,0,0.94873,0.57422,1.74756,0.57422c0.97363,0,1.72217-1.37305,2.37158-4.14453l-3.84473-10.63379l-1.22314-0.375V40.9209
		H217.47461z"/>
	<path style="&st0;" d="M236.91602,52.35449v-0.74902l1.49805-0.37402v-6.0166c0-2.17188-0.84863-3.02051-2.32227-3.02051
		c-0.99805,0-1.89648,0.47461-2.39648,0.92383v8.11328l1.49805,0.37402v0.74902h-5.01758v-0.74902l1.49805-0.37402V36.32812
		l-1.62305-0.72363v-0.52441l3.0459-1.04883h0.59863v7.81348l0.2002,0.15039c1.14844-0.87402,2.19629-1.39844,3.27051-1.39844
		c1.74707,0,3.26953,1.17383,3.26953,3.81934v6.81543l1.49805,0.37402v0.74902H236.91602z"/>
	<path style="&st0;" d="M245.44922,45.43945c-0.02441,0.22461-0.02441,0.47461-0.02441,0.69922
		c0,3.16992,1.72266,4.74316,3.54492,4.74316c1.32227,0,2.4209-0.59961,3.31934-2.04688l0.69922,0.47363
		c-0.74902,1.44824-2.12207,3.3457-4.61816,3.3457c-3.0459,0-4.96777-2.9209-4.96777-5.91699
		c0-3.41992,2.02246-6.14062,4.89258-6.14062c2.7959,0,4.44434,2.37109,4.44434,4.04395c0,0.47461-0.02539,0.79883-0.27539,0.79883
		H245.44922z M245.57422,44.44141h4.59375c0.09961-0.27441,0.12402-0.64941,0.12402-0.89941
		c0-1.19824-0.84863-1.92188-2.02148-1.92188C246.72266,41.62012,245.89844,42.86816,245.57422,44.44141z"/>
	<path style="&st0;" d="M260.14941,51.00684h-0.25c-1.04883,1.09766-1.84766,1.64746-2.87109,1.64746
		c-1.27246,0-2.27148-1.82227-2.27148-2.94629c0-1.09766,0.59961-2.19629,1.97266-2.77051l3.51953-1.52246v-1.04883
		c0-1.64746-0.69922-2.37109-1.92188-2.37109c-0.5498,0-1.37305,0.34863-1.67285,0.79883
		c0.02441,0.29883,0.14941,0.92285,0.14941,1.42285c0,0.64844-0.52441,0.97363-1.09863,0.97363
		c-0.52344,0-0.97363-0.5-0.97363-1.22363c0-0.54883,0.1748-1.04883,0.69922-1.49805
		c0.89844-0.62402,2.9209-1.87207,3.91992-1.87207c1.79688,0,2.74512,1.24805,2.74512,2.99609v6.36523
		c0,0.54883,0.10059,1.07324,0.64941,1.07324c0.4248,0,0.79883-0.49902,0.97363-0.92383l0.49902,0.2002
		c-0.59863,1.74707-1.77246,2.27148-2.52148,2.27148C260.87305,52.5791,260.22363,52.03027,260.14941,51.00684z M260.27344,46.41309
		l-2.14648,0.97363c-0.54883,0.22461-1.39746,0.89844-1.39746,1.87207c0,0.92383,0.54883,1.72266,1.27246,1.72266
		c0.94922,0,2.27148-0.89844,2.27148-2.07227V46.41309z"/>
	<path style="&st0;" d="M275.12402,50.53223l1.44824,0.69922v0.67383l-2.32129,0.74902h-0.59961l-0.62402-1.17383h-0.22461
		c-1.14844,0.84863-2.22168,1.17383-3.49512,1.17383c-1.69727,0-4.21875-1.69824-4.21875-5.7168
		c0-3.94434,2.6709-6.34082,5.36719-6.34082c1.12305,0,2.04688,0.22461,2.64648,0.39941v-4.66797l-1.69824-0.72363v-0.52441
		l3.12109-1.04883h0.59863V50.53223z M273.10254,42.89355c-0.5-0.69922-1.47266-1.24805-2.49707-1.24805
		c-1.34766,0-3.41992,1.22266-3.41992,4.69238c0,3.12109,1.82227,4.76855,3.27051,4.76855
		c1.09863,0,2.09668-0.62402,2.64648-1.12305V42.89355z"/>
	<path style="&st0;" d="M281.38574,51.23145l1.49805,0.37402v0.74902h-5.01758v-0.74902l1.49805-0.37402v-8.36328l-1.62305-0.69922
		v-0.52344l3.0459-1.04883h0.59863V51.23145z M280.3623,34.23145c0.79883,0,1.49805,0.69824,1.49805,1.49707
		c0,0.77441-0.69922,1.47363-1.49805,1.47363c-0.77344,0-1.47266-0.69922-1.47266-1.47363
		C278.88965,34.92969,279.58887,34.23145,280.3623,34.23145z"/>
	<path style="&st0;" d="M290.91992,52.35449v-0.74902l1.49805-0.37402v-6.1416c0-2.17188-0.84863-2.89551-2.32227-2.89551
		c-0.99805,0-1.89648,0.47461-2.39648,0.92383v8.11328l1.49805,0.37402v0.74902h-5.01758v-0.74902l1.49805-0.37402v-8.36328
		l-1.62305-0.69922v-0.52344l2.9707-1.04883h0.59961l0.14941,1.24805l0.2002,0.15039
		c1.17285-0.87402,2.12109-1.39844,3.19531-1.39844c1.74707,0,3.26953,1.17383,3.26953,3.81934v6.81543l1.49805,0.37402v0.74902
		H290.91992z"/>
	<path style="&st0;" d="M298.98047,52.62891c-0.64941-0.57422-1.17383-1.22266-0.79883-2.07129l0.97363-2.17188v-0.4248
		c-0.92383-0.62402-1.64844-1.64746-1.64844-3.2207c0-2.19629,1.52344-4.04395,4.16895-4.04395
		c1.02344,0,1.84766,0.27539,2.54688,0.74902l3.44434-0.19922v1.77246l-2.2959-0.15039c0.24902,0.5,0.42383,1.04883,0.42383,1.72266
		c0,2.5459-1.57227,4.11914-4.29395,4.11914c-0.39941,0-0.82324-0.0498-1.02344-0.125
		c-0.34961,0.09961-0.59863,0.74902-0.59863,1.07324c0,0.64941,0.34961,1.12402,1.14844,1.12402h3.51953
		c1.69727,0,2.9209,0.59863,2.9209,2.5459c0,2.8457-3.14551,5.26758-7.04004,5.26758c-1.69727,0-2.8457-1.07422-2.8457-2.64648
		c0-1.07324,0.59961-2.27148,1.39844-2.99512V52.62891z M303.62305,52.62891h-3.02051
		c-0.92383,0.2998-1.34766,0.97363-1.34766,2.12207c0,1.42285,0.89844,2.27148,2.8457,2.27148
		c1.82227,0,3.86914-1.02344,3.86914-2.87109C305.96973,53.05371,305.0957,52.62891,303.62305,52.62891z M301.62598,41.64551
		c-1.19824,0-2.02148,1.14844-2.02148,3.04492c0,2.12207,0.84863,3.19531,2.02148,3.19531
		c1.32324,0,2.19727-1.14844,2.19727-3.26953C303.82324,43.14258,303.04883,41.64551,301.62598,41.64551z"/>
</g>
<g>
	<path style="&st0;" d="M51.29199,71.80762c1.54785-0.02539,2.9458-0.47461,4.16895-1.24902l1.12305,0.125v14.4541l2.62158,0.37402
		v0.87402h-7.33936v-0.87402l2.62109-0.37402V72.48145c-1.17334,0.27441-2.39648,0.32422-3.19531,0.125V71.80762z"/>
	<path style="&st0;" d="M63.39648,83.49023c0.84863,0,1.54785,0.69824,1.54785,1.54785c0,0.84863-0.69922,1.52246-1.54785,1.52246
		s-1.52295-0.67383-1.52295-1.52246C61.87354,84.18848,62.54785,83.49023,63.39648,83.49023z"/>
	<path style="&st0;" d="M72.75537,72.23145c-1.39795,0-2.646,1.12305-3.86914,2.62109l-0.74902-0.79883
		c0.92334-1.42285,2.87061-3.59473,5.39209-3.59473c2.54639,0,3.86914,1.64746,3.86914,3.62012
		c0,2.94531-4.39355,7.93848-6.66504,9.95996l0.1499,0.34961h5.5918l1.12305-1.69727l0.82373,0.32422l-1.39795,3.37012H67.7627
		l-0.2998-0.79883c2.59668-2.07227,7.58887-7.21484,7.58887-10.85938C75.05176,73.40527,74.20312,72.23145,72.75537,72.23145z"/>
</g>
<g>
	<path style="&st0;" d="M129.18213,80.21973h-5.91602l-1.62256,4.91797l2.32129,0.37402v0.87402h-5.44189v-0.87402l1.82227-0.37402
		l5.6416-16.37598h1.42285l5.8418,16.37598l1.94678,0.37402v0.87402h-6.44043v-0.87402l2.17188-0.37402L129.18213,80.21973z
		 M123.69043,78.99707h5.04248l-2.39648-6.76562h-0.39941L123.69043,78.99707z"/>
	<path style="&st0;" d="M142.93213,86.38574v-0.74902l1.49756-0.37402v-6.1416c0-2.17188-0.84863-2.89551-2.32129-2.89551
		c-0.99854,0-1.89746,0.47461-2.39648,0.92383v8.11328l1.49756,0.37402v0.74902h-5.01758v-0.74902l1.49805-0.37402v-8.36328
		l-1.62256-0.69922v-0.52344l2.97021-1.04883h0.59912l0.1499,1.24805l0.19971,0.15039
		c1.17334-0.87402,2.12207-1.39844,3.19531-1.39844c1.74756,0,3.27051,1.17383,3.27051,3.81934v6.81543l1.49756,0.37402v0.74902
		H142.93213z"/>
	<path style="&st0;" d="M154.73584,74.62793c2.92041,0,5.29199,2.27148,5.29199,6.04102c0,3.99414-2.37158,6.0166-5.29199,6.0166
		c-2.9209,0-5.31738-2.14746-5.31738-6.0166C149.41846,76.94922,151.81494,74.62793,154.73584,74.62793z M154.73584,85.63672
		c1.57275,0,2.9707-0.99805,2.9707-4.99219c0-3.69531-1.39795-4.96777-2.9707-4.96777s-2.9707,1.32227-2.9707,4.96777
		C151.76514,84.23926,153.16309,85.63672,154.73584,85.63672z"/>
	<path style="&st0;" d="M161.42236,76.25098v-0.92383l1.44775-0.89844l1.32324-2.29688h0.77344v2.82031h3.27051v1.29883h-3.27051
		v7.43848c0,1.12402,0.52441,1.64746,1.34814,1.64746c0.52441,0,1.27344-0.12402,1.92236-0.49902l0.32422,0.64941
		c-0.47412,0.47363-1.59766,1.19824-3.04541,1.19824c-1.82227,0-2.57129-1.07324-2.57129-3.07031v-7.36426H161.42236z"/>
	<path style="&st0;" d="M176.22314,86.38574v-0.74902l1.49756-0.37402v-6.0166c0-2.17188-0.84863-3.02051-2.32129-3.02051
		c-0.99854,0-1.89746,0.47461-2.39648,0.92383v8.11328l1.49756,0.37402v0.74902h-5.01758v-0.74902l1.49805-0.37402V70.35938
		l-1.62256-0.72363v-0.52441l3.04541-1.04883h0.59912v7.81348l0.19971,0.15039c1.14795-0.87402,2.19678-1.39844,3.27002-1.39844
		c1.74756,0,3.27051,1.17383,3.27051,3.81934v6.81543l1.49756,0.37402v0.74902H176.22314z"/>
	<path style="&st0;" d="M184.75684,79.4707c-0.02539,0.22461-0.02539,0.47461-0.02539,0.69922
		c0,3.16992,1.72266,4.74316,3.54492,4.74316c1.32324,0,2.42139-0.59961,3.32031-2.04688l0.69873,0.47363
		c-0.74854,1.44824-2.12158,3.3457-4.61816,3.3457c-3.04541,0-4.96777-2.9209-4.96777-5.91699
		c0-3.41992,2.02197-6.14062,4.89307-6.14062c2.7959,0,4.44336,2.37109,4.44336,4.04395c0,0.47461-0.0249,0.79883-0.27441,0.79883
		H184.75684z M184.88135,78.47266h4.59326c0.1001-0.27441,0.125-0.64941,0.125-0.89941c0-1.19824-0.84863-1.92188-2.02197-1.92188
		C186.02979,75.65137,185.20605,76.89941,184.88135,78.47266z"/>
	<path style="&st0;" d="M199.13281,76.10059c-0.64941,0.4248-1.62305,1.62305-1.94727,2.34668v6.81543l1.97217,0.37402v0.74902
		h-5.49219v-0.74902l1.49805-0.37402v-8.36328l-1.62256-0.69922v-0.52344l2.99512-1.04883h0.57422l0.1748,1.77246L197.50977,76.5
		c1.04883-1.19824,1.84766-1.87207,2.84619-1.87207c0.82373,0,1.49756,0.57422,1.49756,1.57227
		c0,0.87402-0.47412,1.49805-1.27295,1.49805c-0.69922,0-1.17334-0.49902-1.17334-1.37305L199.13281,76.10059z"/>
	<path style="&st0;" d="M208.68848,82.6416h0.82373c0.39941,1.84668,1.32324,3.14453,2.87061,3.14453
		c1.09863,0,1.84766-0.92285,1.84766-1.84668c0-1.02344-0.44971-1.59766-2.64648-2.57129
		c-1.99707-0.84863-2.89551-1.87207-2.89551-3.57031c0-1.44727,1.04834-3.16992,3.39502-3.16992
		c1.07324,0,1.89697,0.2998,2.39648,0.49902l0.62402-0.29883h0.54932v3.56934h-0.72412
		c-0.57422-2.04688-1.82227-2.82129-2.771-2.82129c-1.04834,0-1.89697,0.72461-1.89697,1.74805s0.89844,1.54785,2.62109,2.34668
		c1.92236,0.87305,3.24512,1.77246,3.24512,3.61914c0,2.22168-1.77246,3.39551-3.79443,3.39551
		c-1.04834,0-2.17188-0.44922-2.57129-0.62402l-0.37451,0.32422h-0.69873V82.6416z"/>
	<path style="&st0;" d="M220.06934,79.4707c-0.02539,0.22461-0.02539,0.47461-0.02539,0.69922
		c0,3.16992,1.72266,4.74316,3.54492,4.74316c1.32324,0,2.42139-0.59961,3.32031-2.04688l0.69873,0.47363
		c-0.74854,1.44824-2.12158,3.3457-4.61816,3.3457c-3.04541,0-4.96777-2.9209-4.96777-5.91699
		c0-3.41992,2.02197-6.14062,4.89307-6.14062c2.7959,0,4.44336,2.37109,4.44336,4.04395c0,0.47461-0.0249,0.79883-0.27441,0.79883
		H220.06934z M220.19385,78.47266h4.59326c0.1001-0.27441,0.125-0.64941,0.125-0.89941c0-1.19824-0.84863-1.92188-2.02197-1.92188
		C221.34229,75.65137,220.51855,76.89941,220.19385,78.47266z"/>
	<path style="&st0;" d="M231.37402,80.29492c0,3.29492,1.54785,4.51855,3.49512,4.51855c1.37305,0,2.49609-0.94922,3.0957-1.99707
		l0.77344,0.37402c-0.79883,2.02246-2.34668,3.49512-4.51855,3.49512c-3.04492,0-5.01758-2.72168-5.01758-5.94141
		c0-3.39551,2.24707-6.11621,5.44238-6.11621c2.39648,0,3.76953,1.17383,3.76953,2.49609c0,0.67383-0.3252,1.04883-1.19824,1.04883
		c-1.59766,0-0.92383-2.59668-2.87109-2.59668C232.92188,75.57617,231.37402,77.42383,231.37402,80.29492z"/>
	<path style="&st0;" d="M245.52539,74.62793c2.9209,0,5.29199,2.27148,5.29199,6.04102c0,3.99414-2.37109,6.0166-5.29199,6.0166
		s-5.31738-2.14746-5.31738-6.0166C240.20801,76.94922,242.60449,74.62793,245.52539,74.62793z M245.52539,85.63672
		c1.57227,0,2.9707-0.99805,2.9707-4.99219c0-3.69531-1.39844-4.96777-2.9707-4.96777c-1.57324,0-2.9707,1.32227-2.9707,4.96777
		C242.55469,84.23926,243.95215,85.63672,245.52539,85.63672z"/>
	<path style="&st0;" d="M259.02637,86.38574v-0.74902l1.49805-0.37402v-6.1416c0-2.17188-0.84863-2.89551-2.32227-2.89551
		c-0.99805,0-1.89648,0.47461-2.39648,0.92383v8.11328l1.49805,0.37402v0.74902h-5.01758v-0.74902l1.49805-0.37402v-8.36328
		l-1.62305-0.69922v-0.52344l2.9707-1.04883h0.59961l0.14941,1.24805l0.2002,0.15039
		c1.17285-0.87402,2.12109-1.39844,3.19531-1.39844c1.74707,0,3.26953,1.17383,3.26953,3.81934v6.81543l1.49805,0.37402v0.74902
		H259.02637z"/>
	<path style="&st0;" d="M275.54785,84.56348l1.44824,0.69922v0.67383l-2.32129,0.74902h-0.59961l-0.62402-1.17383h-0.22461
		c-1.14844,0.84863-2.22168,1.17383-3.49512,1.17383c-1.69727,0-4.21875-1.69824-4.21875-5.7168
		c0-3.94434,2.6709-6.34082,5.36719-6.34082c1.12305,0,2.04688,0.22461,2.64648,0.39941v-4.66797l-1.69824-0.72363v-0.52441
		l3.12109-1.04883h0.59863V84.56348z M273.52637,76.9248c-0.5-0.69922-1.47266-1.24805-2.49707-1.24805
		c-1.34766,0-3.41992,1.22266-3.41992,4.69238c0,3.12109,1.82227,4.76855,3.27051,4.76855
		c1.09863,0,2.09668-0.62402,2.64648-1.12305V76.9248z"/>
	<path style="&st0;" d="M284.03223,85.03809h-0.25c-1.04883,1.09766-1.84766,1.64746-2.87109,1.64746
		c-1.27246,0-2.27148-1.82227-2.27148-2.94629c0-1.09766,0.59961-2.19629,1.97266-2.77051l3.51953-1.52246v-1.04883
		c0-1.64746-0.69922-2.37109-1.92188-2.37109c-0.5498,0-1.37305,0.34863-1.67285,0.79883
		c0.02441,0.29883,0.14941,0.92285,0.14941,1.42285c0,0.64844-0.52441,0.97363-1.09863,0.97363
		c-0.52344,0-0.97363-0.5-0.97363-1.22363c0-0.54883,0.1748-1.04883,0.69922-1.49805
		c0.89844-0.62402,2.9209-1.87207,3.91992-1.87207c1.79688,0,2.74512,1.24805,2.74512,2.99609v6.36523
		c0,0.54883,0.10059,1.07324,0.64941,1.07324c0.4248,0,0.79883-0.49902,0.97363-0.92383l0.49902,0.2002
		c-0.59863,1.74707-1.77246,2.27148-2.52148,2.27148C284.75586,86.61035,284.10645,86.06152,284.03223,85.03809z
		 M284.15625,80.44434l-2.14648,0.97363c-0.54883,0.22461-1.39746,0.89844-1.39746,1.87207
		c0,0.92383,0.54883,1.72266,1.27246,1.72266c0.94922,0,2.27148-0.89844,2.27148-2.07227V80.44434z"/>
	<path style="&st0;" d="M294.46387,76.10059c-0.64844,0.4248-1.62207,1.62305-1.94727,2.34668v6.81543l1.97266,0.37402v0.74902
		h-5.49219v-0.74902l1.49805-0.37402v-8.36328l-1.62305-0.69922v-0.52344l2.99609-1.04883h0.57422l0.1748,1.77246L292.8418,76.5
		c1.04785-1.19824,1.84668-1.87207,2.8457-1.87207c0.82324,0,1.49805,0.57422,1.49805,1.57227
		c0,0.87402-0.47461,1.49805-1.27344,1.49805c-0.69922,0-1.17383-0.49902-1.17383-1.37305L294.46387,76.10059z"/>
	<path style="&st0;" d="M302.87305,74.95215v0.74902l-1.47266,0.375l2.57129,7.21387h0.24902l2.44727-7.21387l-1.82324-0.375
		v-0.74902h4.36914v0.74902l-1.54785,0.375l-4.19336,12.58105c-0.92383,2.8457-2.04785,3.96973-3.91992,3.96973
		c-1.09863,0-1.64746-0.59961-1.64746-1.29883c0-0.54883,0.49902-1.04785,1.14844-1.04785
		c0.69922,0,0.94824,0.57422,1.74707,0.57422c0.97363,0,1.72266-1.37305,2.37207-4.14453l-3.84473-10.63379l-1.22266-0.375v-0.74902
		H302.87305z"/>
	<path style="&st0;" d="M322.31445,86.38574v-0.74902l1.49805-0.37402v-6.0166c0-2.17188-0.84863-3.02051-2.32227-3.02051
		c-0.99805,0-1.89648,0.47461-2.39648,0.92383v8.11328l1.49805,0.37402v0.74902h-5.01758v-0.74902l1.49805-0.37402V70.35938
		l-1.62305-0.72363v-0.52441l3.0459-1.04883h0.59863v7.81348l0.2002,0.15039c1.14844-0.87402,2.19629-1.39844,3.27051-1.39844
		c1.74707,0,3.26953,1.17383,3.26953,3.81934v6.81543l1.49805,0.37402v0.74902H322.31445z"/>
	<path style="&st0;" d="M330.84766,79.4707c-0.02441,0.22461-0.02441,0.47461-0.02441,0.69922
		c0,3.16992,1.72266,4.74316,3.54492,4.74316c1.32227,0,2.4209-0.59961,3.31934-2.04688l0.69922,0.47363
		c-0.74902,1.44824-2.12207,3.3457-4.61816,3.3457c-3.0459,0-4.96777-2.9209-4.96777-5.91699
		c0-3.41992,2.02246-6.14062,4.89258-6.14062c2.7959,0,4.44434,2.37109,4.44434,4.04395c0,0.47461-0.02539,0.79883-0.27539,0.79883
		H330.84766z M330.97266,78.47266h4.59375c0.09961-0.27441,0.12402-0.64941,0.12402-0.89941
		c0-1.19824-0.84863-1.92188-2.02148-1.92188C332.12109,75.65137,331.29688,76.89941,330.97266,78.47266z"/>
	<path style="&st0;" d="M345.54883,85.03809h-0.25c-1.04883,1.09766-1.84766,1.64746-2.87109,1.64746
		c-1.27246,0-2.27148-1.82227-2.27148-2.94629c0-1.09766,0.59961-2.19629,1.97168-2.77051l3.52051-1.52246v-1.04883
		c0-1.64746-0.69922-2.37109-1.92285-2.37109c-0.54883,0-1.37207,0.34863-1.67188,0.79883
		c0.02441,0.29883,0.14941,0.92285,0.14941,1.42285c0,0.64844-0.52441,0.97363-1.09863,0.97363
		c-0.52344,0-0.97266-0.5-0.97266-1.22363c0-0.54883,0.17383-1.04883,0.69824-1.49805
		c0.89941-0.62402,2.9209-1.87207,3.91992-1.87207c1.79688,0,2.74512,1.24805,2.74512,2.99609v6.36523
		c0,0.54883,0.10059,1.07324,0.64941,1.07324c0.4248,0,0.79883-0.49902,0.97363-0.92383l0.49902,0.2002
		c-0.59863,1.74707-1.77246,2.27148-2.52148,2.27148C346.27246,86.61035,345.62305,86.06152,345.54883,85.03809z
		 M345.67285,80.44434l-2.14648,0.97363c-0.54883,0.22461-1.39844,0.89844-1.39844,1.87207
		c0,0.92383,0.5498,1.72266,1.27344,1.72266c0.94922,0,2.27148-0.89844,2.27148-2.07227V80.44434z"/>
	<path style="&st0;" d="M360.54785,84.56348l1.44824,0.69922v0.67383l-2.32129,0.74902h-0.59961l-0.62402-1.17383h-0.22461
		c-1.14844,0.84863-2.22168,1.17383-3.49512,1.17383c-1.69727,0-4.21875-1.69824-4.21875-5.7168
		c0-3.94434,2.6709-6.34082,5.36719-6.34082c1.12305,0,2.04688,0.22461,2.64648,0.39941v-4.66797l-1.69824-0.72363v-0.52441
		l3.12109-1.04883h0.59863V84.56348z M358.52637,76.9248c-0.5-0.69922-1.47266-1.24805-2.49707-1.24805
		c-1.34766,0-3.41992,1.22266-3.41992,4.69238c0,3.12109,1.82227,4.76855,3.27051,4.76855
		c1.09863,0,2.09668-0.62402,2.64648-1.12305V76.9248z"/>
	<path style="&st0;" d="M366.80957,85.2627l1.49805,0.37402v0.74902h-5.01758v-0.74902l1.49805-0.37402v-8.36328l-1.62305-0.69922
		v-0.52344l3.0459-1.04883h0.59863V85.2627z M365.78613,68.2627c0.79883,0,1.49805,0.69824,1.49805,1.49707
		c0,0.77441-0.69922,1.47363-1.49805,1.47363c-0.77344,0-1.47266-0.69922-1.47266-1.47363
		C364.31348,68.96094,365.0127,68.2627,365.78613,68.2627z"/>
	<path style="&st0;" d="M376.34375,86.38574v-0.74902l1.49805-0.37402v-6.1416c0-2.17188-0.84863-2.89551-2.32227-2.89551
		c-0.99805,0-1.89648,0.47461-2.39648,0.92383v8.11328l1.49805,0.37402v0.74902h-5.01758v-0.74902l1.49805-0.37402v-8.36328
		l-1.62305-0.69922v-0.52344l2.9707-1.04883h0.59961l0.14941,1.24805l0.2002,0.15039
		c1.17285-0.87402,2.12109-1.39844,3.19531-1.39844c1.74707,0,3.26953,1.17383,3.26953,3.81934v6.81543l1.49805,0.37402v0.74902
		H376.34375z"/>
	<path style="&st0;" d="M384.4043,86.66016c-0.64941-0.57422-1.17383-1.22266-0.79883-2.07129l0.97363-2.17188v-0.4248
		c-0.92383-0.62402-1.64844-1.64746-1.64844-3.2207c0-2.19629,1.52344-4.04395,4.16895-4.04395
		c1.02344,0,1.84766,0.27539,2.54688,0.74902l3.44434-0.19922v1.77246l-2.2959-0.15039c0.24902,0.5,0.42383,1.04883,0.42383,1.72266
		c0,2.5459-1.57227,4.11914-4.29395,4.11914c-0.39941,0-0.82324-0.0498-1.02344-0.125
		c-0.34961,0.09961-0.59863,0.74902-0.59863,1.07324c0,0.64941,0.34961,1.12402,1.14844,1.12402h3.51953
		c1.69727,0,2.9209,0.59863,2.9209,2.5459c0,2.8457-3.14551,5.26758-7.04004,5.26758c-1.69727,0-2.8457-1.07422-2.8457-2.64648
		c0-1.07324,0.59961-2.27148,1.39844-2.99512V86.66016z M389.04688,86.66016h-3.02051
		c-0.92383,0.2998-1.34766,0.97363-1.34766,2.12207c0,1.42285,0.89844,2.27148,2.8457,2.27148
		c1.82227,0,3.86914-1.02344,3.86914-2.87109C391.39355,87.08496,390.51953,86.66016,389.04688,86.66016z M387.0498,75.67676
		c-1.19824,0-2.02148,1.14844-2.02148,3.04492c0,2.12207,0.84863,3.19531,2.02148,3.19531
		c1.32324,0,2.19727-1.14844,2.19727-3.26953C389.24707,77.17383,388.47266,75.67676,387.0498,75.67676z"/>
</g>
<g>
	<path style="&st0;" d="M119.34668,105.83887c1.54785-0.02539,2.9458-0.47461,4.16895-1.24902l1.12305,0.125v14.4541
		l2.62158,0.37402v0.87402h-7.33936v-0.87402l2.62109-0.37402V106.5127c-1.17334,0.27441-2.39648,0.32422-3.19531,0.125V105.83887z"
		/>
	<path style="&st0;" d="M131.45117,117.52148c0.84863,0,1.54785,0.69824,1.54785,1.54785c0,0.84863-0.69922,1.52246-1.54785,1.52246
		s-1.52295-0.67383-1.52295-1.52246C129.92822,118.21973,130.60254,117.52148,131.45117,117.52148z"/>
	<path style="&st0;" d="M140.81006,106.2627c-1.39795,0-2.646,1.12305-3.86914,2.62109l-0.74902-0.79883
		c0.92334-1.42285,2.87061-3.59473,5.39209-3.59473c2.54639,0,3.86914,1.64746,3.86914,3.62012
		c0,2.94531-4.39355,7.93848-6.66504,9.95996l0.1499,0.34961h5.5918l1.12305-1.69727l0.82373,0.32422l-1.39795,3.37012h-9.26123
		l-0.2998-0.79883c2.59668-2.07227,7.58887-7.21484,7.58887-10.85938C143.10645,107.43652,142.25781,106.2627,140.81006,106.2627z"
		/>
	<path style="&st0;" d="M150.34277,117.52148c0.84863,0,1.54785,0.69824,1.54785,1.54785c0,0.84863-0.69922,1.52246-1.54785,1.52246
		s-1.52295-0.67383-1.52295-1.52246C148.81982,118.21973,149.49414,117.52148,150.34277,117.52148z"/>
	<path style="&st0;" d="M154.70898,105.83887c1.54785-0.02539,2.9458-0.47461,4.16895-1.24902l1.12305,0.125v14.4541
		l2.62158,0.37402v0.87402h-7.33936v-0.87402l2.62109-0.37402V106.5127c-1.17334,0.27441-2.39648,0.32422-3.19531,0.125V105.83887z"
		/>
</g>
<g>
	<path style="&st0;" d="M216.15625,102.79297l1.14844,4.79297h-0.97363l-2.52148-3.71973h-3.89453v15.30273l2.34668,0.37402v0.87402
		h-7.08936v-0.87402l2.34619-0.37402v-15.30273h-3.89404l-2.52148,3.71973h-0.97314l1.14795-4.79297H216.15625z"/>
	<path style="&st0;" d="M218.27344,113.50195c-0.02539,0.22461-0.02539,0.47461-0.02539,0.69922
		c0,3.16992,1.72266,4.74316,3.54492,4.74316c1.32324,0,2.42139-0.59961,3.32031-2.04688l0.69873,0.47363
		c-0.74854,1.44824-2.12158,3.3457-4.61816,3.3457c-3.04541,0-4.96777-2.9209-4.96777-5.91699
		c0-3.41992,2.02197-6.14062,4.89307-6.14062c2.7959,0,4.44336,2.37109,4.44336,4.04395c0,0.47461-0.0249,0.79883-0.27441,0.79883
		H218.27344z M218.39795,112.50391h4.59326c0.1001-0.27441,0.125-0.64941,0.125-0.89941c0-1.19824-0.84863-1.92188-2.02197-1.92188
		C219.54639,109.68262,218.72266,110.93066,218.39795,112.50391z"/>
	<path style="&st0;" d="M232.64941,110.13184c-0.64941,0.4248-1.62305,1.62305-1.94727,2.34668v6.81543l1.97168,0.37402v0.74902
		h-5.4917v-0.74902l1.49756-0.37402v-8.36328l-1.62207-0.69922v-0.52344l2.99512-1.04883h0.57422l0.1748,1.77246l0.22461,0.09961
		c1.04883-1.19824,1.84766-1.87207,2.8457-1.87207c0.82422,0,1.49805,0.57422,1.49805,1.57227
		c0,0.87402-0.47461,1.49805-1.27344,1.49805c-0.69824,0-1.17285-0.49902-1.17285-1.37305L232.64941,110.13184z"/>
	<path style="&st0;" d="M236.21582,110.28223v-0.92383l1.44824-0.89844l1.32324-2.29688h0.77344v2.82031h3.27051v1.29883h-3.27051
		v7.43848c0,1.12402,0.52441,1.64746,1.34863,1.64746c0.52344,0,1.27246-0.12402,1.92188-0.49902l0.32422,0.64941
		c-0.47363,0.47363-1.59766,1.19824-3.04492,1.19824c-1.82227,0-2.57129-1.07324-2.57129-3.07031v-7.36426H236.21582z"/>
	<path style="&st0;" d="M247.84668,119.29395l1.49707,0.37402v0.74902h-5.01758v-0.74902l1.49805-0.37402v-8.36328l-1.62305-0.69922
		v-0.52344l3.0459-1.04883h0.59961V119.29395z M246.82227,102.29395c0.79883,0,1.49805,0.69824,1.49805,1.49707
		c0,0.77441-0.69922,1.47363-1.49805,1.47363c-0.77344,0-1.47266-0.69922-1.47266-1.47363
		C245.34961,102.99219,246.04883,102.29395,246.82227,102.29395z"/>
	<path style="&st0;" d="M256.43164,119.06934h-0.25c-1.04883,1.09766-1.84766,1.64746-2.87109,1.64746
		c-1.27246,0-2.27148-1.82227-2.27148-2.94629c0-1.09766,0.59961-2.19629,1.97168-2.77051l3.52051-1.52246v-1.04883
		c0-1.64746-0.69922-2.37109-1.92285-2.37109c-0.54883,0-1.37207,0.34863-1.67188,0.79883
		c0.02441,0.29883,0.14941,0.92285,0.14941,1.42285c0,0.64844-0.52441,0.97363-1.09863,0.97363
		c-0.52344,0-0.97266-0.5-0.97266-1.22363c0-0.54883,0.17383-1.04883,0.69824-1.49805
		c0.89941-0.62402,2.9209-1.87207,3.91992-1.87207c1.79688,0,2.74512,1.24805,2.74512,2.99609v6.36523
		c0,0.54883,0.10059,1.07324,0.64941,1.07324c0.4248,0,0.79883-0.49902,0.97363-0.92383l0.49902,0.2002
		c-0.59863,1.74707-1.77246,2.27148-2.52148,2.27148C257.15527,120.6416,256.50586,120.09277,256.43164,119.06934z
		 M256.55566,114.47559l-2.14648,0.97363c-0.54883,0.22461-1.39844,0.89844-1.39844,1.87207
		c0,0.92383,0.5498,1.72266,1.27344,1.72266c0.94922,0,2.27148-0.89844,2.27148-2.07227V114.47559z"/>
	<path style="&st0;" d="M266.86328,110.13184c-0.64844,0.4248-1.62207,1.62305-1.94727,2.34668v6.81543l1.97266,0.37402v0.74902
		h-5.49219v-0.74902l1.49805-0.37402v-8.36328l-1.62305-0.69922v-0.52344l2.99609-1.04883h0.57422l0.1748,1.77246l0.22461,0.09961
		c1.04785-1.19824,1.84668-1.87207,2.8457-1.87207c0.82324,0,1.49805,0.57422,1.49805,1.57227
		c0,0.87402-0.47461,1.49805-1.27344,1.49805c-0.69922,0-1.17383-0.49902-1.17383-1.37305L266.86328,110.13184z"/>
	<path style="&st0;" d="M275.27246,108.9834v0.74902l-1.47266,0.375l2.57129,7.21387h0.24902l2.44727-7.21387l-1.82227-0.375
		v-0.74902h4.36816v0.74902l-1.54785,0.375l-4.19336,12.58105c-0.92383,2.8457-2.04785,3.96973-3.91992,3.96973
		c-1.09766,0-1.64746-0.59961-1.64746-1.29883c0-0.54883,0.49902-1.04785,1.14844-1.04785
		c0.69922,0,0.94824,0.57422,1.74707,0.57422c0.97363,0,1.72266-1.37305,2.37207-4.14453l-3.84473-10.63379l-1.22266-0.375v-0.74902
		H275.27246z"/>
	<path style="&st0;" d="M294.71387,120.41699v-0.74902l1.49805-0.37402v-6.0166c0-2.17188-0.84863-3.02051-2.32227-3.02051
		c-0.99805,0-1.89648,0.47461-2.39648,0.92383v8.11328l1.49805,0.37402v0.74902h-5.01758v-0.74902l1.49805-0.37402v-14.90332
		l-1.62305-0.72363v-0.52441l3.0459-1.04883h0.59863v7.81348l0.2002,0.15039c1.14844-0.87402,2.19629-1.39844,3.27051-1.39844
		c1.74707,0,3.26953,1.17383,3.26953,3.81934v6.81543l1.49805,0.37402v0.74902H294.71387z"/>
	<path style="&st0;" d="M303.24707,113.50195c-0.02441,0.22461-0.02441,0.47461-0.02441,0.69922
		c0,3.16992,1.72168,4.74316,3.54492,4.74316c1.32227,0,2.4209-0.59961,3.31934-2.04688l0.69922,0.47363
		c-0.74902,1.44824-2.12207,3.3457-4.61816,3.3457c-3.0459,0-4.96777-2.9209-4.96777-5.91699
		c0-3.41992,2.02246-6.14062,4.89258-6.14062c2.7959,0,4.44336,2.37109,4.44336,4.04395c0,0.47461-0.02441,0.79883-0.27441,0.79883
		H303.24707z M303.37207,112.50391h4.59375c0.09961-0.27441,0.12402-0.64941,0.12402-0.89941
		c0-1.19824-0.84863-1.92188-2.02148-1.92188C304.52051,109.68262,303.69629,110.93066,303.37207,112.50391z"/>
	<path style="&st0;" d="M317.94824,119.06934h-0.25c-1.04883,1.09766-1.84766,1.64746-2.87109,1.64746
		c-1.27246,0-2.27148-1.82227-2.27148-2.94629c0-1.09766,0.59961-2.19629,1.97266-2.77051l3.51953-1.52246v-1.04883
		c0-1.64746-0.69922-2.37109-1.92188-2.37109c-0.5498,0-1.37305,0.34863-1.67285,0.79883
		c0.02441,0.29883,0.14941,0.92285,0.14941,1.42285c0,0.64844-0.52441,0.97363-1.09863,0.97363
		c-0.52344,0-0.97363-0.5-0.97363-1.22363c0-0.54883,0.1748-1.04883,0.69922-1.49805
		c0.89844-0.62402,2.9209-1.87207,3.91992-1.87207c1.79688,0,2.74512,1.24805,2.74512,2.99609v6.36523
		c0,0.54883,0.10059,1.07324,0.64941,1.07324c0.4248,0,0.79883-0.49902,0.97363-0.92383l0.49902,0.2002
		c-0.59863,1.74707-1.77246,2.27148-2.52148,2.27148C318.67188,120.6416,318.02246,120.09277,317.94824,119.06934z
		 M318.07227,114.47559l-2.14648,0.97363c-0.54883,0.22461-1.39746,0.89844-1.39746,1.87207
		c0,0.92383,0.54883,1.72266,1.27246,1.72266c0.94922,0,2.27148-0.89844,2.27148-2.07227V114.47559z"/>
	<path style="&st0;" d="M332.92188,118.59473l1.44824,0.69922v0.67383l-2.32129,0.74902h-0.59961l-0.62402-1.17383h-0.22461
		c-1.14844,0.84863-2.22168,1.17383-3.49512,1.17383c-1.69727,0-4.21875-1.69824-4.21875-5.7168
		c0-3.94434,2.6709-6.34082,5.36719-6.34082c1.12305,0,2.04688,0.22461,2.64648,0.39941v-4.66797l-1.69824-0.72363v-0.52441
		l3.12109-1.04883h0.59863V118.59473z M330.90039,110.95605c-0.5-0.69922-1.47363-1.24805-2.49707-1.24805
		c-1.34766,0-3.41992,1.22266-3.41992,4.69238c0,3.12109,1.82227,4.76855,3.27051,4.76855
		c1.09863,0,2.09668-0.62402,2.64648-1.12305V110.95605z"/>
	<path style="&st0;" d="M339.18457,119.29395l1.49707,0.37402v0.74902h-5.01758v-0.74902l1.49805-0.37402v-8.36328l-1.62305-0.69922
		v-0.52344l3.0459-1.04883h0.59961V119.29395z M338.16016,102.29395c0.79883,0,1.49805,0.69824,1.49805,1.49707
		c0,0.77441-0.69922,1.47363-1.49805,1.47363c-0.77344,0-1.47266-0.69922-1.47266-1.47363
		C336.6875,102.99219,337.38672,102.29395,338.16016,102.29395z"/>
	<path style="&st0;" d="M348.71875,120.41699v-0.74902l1.49805-0.37402v-6.1416c0-2.17188-0.84863-2.89551-2.32227-2.89551
		c-0.99805,0-1.89648,0.47461-2.39648,0.92383v8.11328l1.49805,0.37402v0.74902h-5.01758v-0.74902l1.49805-0.37402v-8.36328
		l-1.62305-0.69922v-0.52344l2.9707-1.04883h0.59961l0.14941,1.24805l0.2002,0.15039
		c1.17285-0.87402,2.12109-1.39844,3.19531-1.39844c1.74707,0,3.26953,1.17383,3.26953,3.81934v6.81543l1.49805,0.37402v0.74902
		H348.71875z"/>
	<path style="&st0;" d="M356.77832,120.69141c-0.64941-0.57422-1.17383-1.22266-0.79883-2.07129l0.97266-2.17188v-0.4248
		c-0.92285-0.62402-1.64746-1.64746-1.64746-3.2207c0-2.19629,1.52344-4.04395,4.16895-4.04395
		c1.02344,0,1.84766,0.27539,2.54688,0.74902l3.44434-0.19922v1.77246l-2.2959-0.15039c0.24902,0.5,0.42383,1.04883,0.42383,1.72266
		c0,2.5459-1.57227,4.11914-4.29395,4.11914c-0.39941,0-0.82324-0.0498-1.02344-0.125
		c-0.34961,0.09961-0.59863,0.74902-0.59863,1.07324c0,0.64941,0.34961,1.12402,1.14844,1.12402h3.51953
		c1.69727,0,2.9209,0.59863,2.9209,2.5459c0,2.8457-3.14551,5.26758-7.04004,5.26758c-1.69727,0-2.8457-1.07422-2.8457-2.64648
		c0-1.07324,0.59961-2.27148,1.39844-2.99512V120.69141z M361.4209,120.69141h-3.02051
		c-0.92383,0.2998-1.34766,0.97363-1.34766,2.12207c0,1.42285,0.89844,2.27148,2.8457,2.27148
		c1.82227,0,3.86914-1.02344,3.86914-2.87109C363.76758,121.11621,362.89355,120.69141,361.4209,120.69141z M359.42383,109.70801
		c-1.19824,0-2.02148,1.14844-2.02148,3.04492c0,2.12207,0.84863,3.19531,2.02148,3.19531
		c1.32324,0,2.19727-1.14844,2.19727-3.26953C361.62109,111.20508,360.84668,109.70801,359.42383,109.70801z"/>
</g>
<g>
	<path style="&st0;" d="M119.34668,139.87012c1.54785-0.02539,2.9458-0.47461,4.16895-1.24902l1.12305,0.125v14.4541
		l2.62158,0.37402v0.87402h-7.33936v-0.87402l2.62109-0.37402v-12.65625c-1.17334,0.27441-2.39648,0.32422-3.19531,0.125V139.87012z
		"/>
	<path style="&st0;" d="M131.45117,151.55273c0.84863,0,1.54785,0.69824,1.54785,1.54785c0,0.84863-0.69922,1.52246-1.54785,1.52246
		s-1.52295-0.67383-1.52295-1.52246C129.92822,152.25098,130.60254,151.55273,131.45117,151.55273z"/>
	<path style="&st0;" d="M140.81006,140.29395c-1.39795,0-2.646,1.12305-3.86914,2.62109l-0.74902-0.79883
		c0.92334-1.42285,2.87061-3.59473,5.39209-3.59473c2.54639,0,3.86914,1.64746,3.86914,3.62012
		c0,2.94531-4.39355,7.93848-6.66504,9.95996l0.1499,0.34961h5.5918l1.12305-1.69727l0.82373,0.32422l-1.39795,3.37012h-9.26123
		l-0.2998-0.79883c2.59668-2.07227,7.58887-7.21484,7.58887-10.85938C143.10645,141.46777,142.25781,140.29395,140.81006,140.29395z
		"/>
	<path style="&st0;" d="M150.34277,151.55273c0.84863,0,1.54785,0.69824,1.54785,1.54785c0,0.84863-0.69922,1.52246-1.54785,1.52246
		s-1.52295-0.67383-1.52295-1.52246C148.81982,152.25098,149.49414,151.55273,150.34277,151.55273z"/>
	<path style="&st0;" d="M159.70166,140.29395c-1.39795,0-2.646,1.12305-3.86914,2.62109l-0.74902-0.79883
		c0.92334-1.42285,2.87061-3.59473,5.39209-3.59473c2.54639,0,3.86914,1.64746,3.86914,3.62012
		c0,2.94531-4.39355,7.93848-6.66504,9.95996l0.1499,0.34961h5.5918l1.12305-1.69727l0.82373,0.32422l-1.39795,3.37012h-9.26123
		l-0.2998-0.79883c2.59668-2.07227,7.58887-7.21484,7.58887-10.85938C161.99805,141.46777,161.14941,140.29395,159.70166,140.29395z
		"/>
</g>
<g>
	<path style="&st0;" d="M210.86377,148.28223h-5.91602l-1.62256,4.91797l2.32129,0.37402v0.87402h-5.44189v-0.87402l1.82227-0.37402
		l5.6416-16.37598h1.42285l5.8418,16.37598l1.94678,0.37402v0.87402h-6.44043v-0.87402l2.17188-0.37402L210.86377,148.28223z
		 M205.37207,147.05957h5.04248l-2.39648-6.76562h-0.39941L205.37207,147.05957z"/>
	<path style="&st0;" d="M224.61377,154.44824v-0.74902l1.49756-0.37402v-6.1416c0-2.17188-0.84863-2.89551-2.32129-2.89551
		c-0.99854,0-1.89746,0.47461-2.39648,0.92383v8.11328l1.49756,0.37402v0.74902h-5.01758v-0.74902l1.49805-0.37402v-8.36328
		l-1.62256-0.69922v-0.52344l2.97021-1.04883h0.59912l0.1499,1.24805l0.19971,0.15039
		c1.17334-0.87402,2.12207-1.39844,3.19531-1.39844c1.74756,0,3.27051,1.17383,3.27051,3.81934v6.81543l1.49805,0.37402v0.74902
		H224.61377z"/>
	<path style="&st0;" d="M236.41797,142.69043c2.9209,0,5.29199,2.27148,5.29199,6.04102c0,3.99414-2.37109,6.0166-5.29199,6.0166
		s-5.31738-2.14746-5.31738-6.0166C231.10059,145.01172,233.49707,142.69043,236.41797,142.69043z M236.41797,153.69922
		c1.57227,0,2.9707-0.99805,2.9707-4.99219c0-3.69531-1.39844-4.96777-2.9707-4.96777c-1.57324,0-2.9707,1.32227-2.9707,4.96777
		C233.44727,152.30176,234.84473,153.69922,236.41797,153.69922z"/>
	<path style="&st0;" d="M243.10352,144.31348v-0.92383l1.44824-0.89844l1.32324-2.29688h0.77344v2.82031h3.27051v1.29883h-3.27051
		v7.43848c0,1.12402,0.52441,1.64746,1.34863,1.64746c0.52344,0,1.27246-0.12402,1.92188-0.49902l0.32422,0.64941
		c-0.47363,0.47363-1.59766,1.19824-3.04492,1.19824c-1.82227,0-2.57129-1.07324-2.57129-3.07031v-7.36426H243.10352z"/>
	<path style="&st0;" d="M257.90527,154.44824v-0.74902l1.49805-0.37402v-6.0166c0-2.17188-0.84863-3.02051-2.32227-3.02051
		c-0.99805,0-1.89648,0.47461-2.39648,0.92383v8.11328l1.49805,0.37402v0.74902h-5.01758v-0.74902l1.49805-0.37402v-14.90332
		l-1.62305-0.72363v-0.52441l3.0459-1.04883h0.59863v7.81348l0.2002,0.15039c1.14844-0.87402,2.19629-1.39844,3.27051-1.39844
		c1.74707,0,3.26953,1.17383,3.26953,3.81934v6.81543l1.49805,0.37402v0.74902H257.90527z"/>
	<path style="&st0;" d="M266.43848,147.5332c-0.02441,0.22461-0.02441,0.47461-0.02441,0.69922
		c0,3.16992,1.72168,4.74316,3.54492,4.74316c1.32227,0,2.4209-0.59961,3.31934-2.04688l0.69922,0.47363
		c-0.74902,1.44824-2.12207,3.3457-4.61816,3.3457c-3.0459,0-4.96777-2.9209-4.96777-5.91699
		c0-3.41992,2.02246-6.14062,4.89258-6.14062c2.7959,0,4.44336,2.37109,4.44336,4.04395c0,0.47461-0.02441,0.79883-0.27441,0.79883
		H266.43848z M266.56348,146.53516h4.59375c0.09961-0.27441,0.12402-0.64941,0.12402-0.89941
		c0-1.19824-0.84863-1.92188-2.02148-1.92188C267.71191,143.71387,266.8877,144.96191,266.56348,146.53516z"/>
	<path style="&st0;" d="M280.81348,144.16309c-0.64844,0.4248-1.62207,1.62305-1.94727,2.34668v6.81543l1.97266,0.37402v0.74902
		h-5.49219v-0.74902l1.49805-0.37402v-8.36328l-1.62305-0.69922v-0.52344l2.99609-1.04883h0.57422l0.1748,1.77246l0.22461,0.09961
		c1.04785-1.19824,1.84668-1.87207,2.8457-1.87207c0.82324,0,1.49805,0.57422,1.49805,1.57227
		c0,0.87402-0.47461,1.49805-1.27344,1.49805c-0.69922,0-1.17383-0.49902-1.17383-1.37305L280.81348,144.16309z"/>
	<path style="&st0;" d="M289.74609,144.31348v-0.92383l1.44824-0.89844l1.32324-2.29688h0.77344v2.82031h3.27051v1.29883h-3.27051
		v7.43848c0,1.12402,0.52441,1.64746,1.34863,1.64746c0.52344,0,1.27246-0.12402,1.92188-0.49902l0.32422,0.64941
		c-0.47363,0.47363-1.59766,1.19824-3.04492,1.19824c-1.82227,0-2.57129-1.07324-2.57129-3.07031v-7.36426H289.74609z"/>
	<path style="&st0;" d="M299.72852,147.5332c-0.02441,0.22461-0.02441,0.47461-0.02441,0.69922
		c0,3.16992,1.72266,4.74316,3.54492,4.74316c1.32227,0,2.4209-0.59961,3.31934-2.04688l0.69922,0.47363
		c-0.74902,1.44824-2.12207,3.3457-4.61816,3.3457c-3.0459,0-4.96777-2.9209-4.96777-5.91699
		c0-3.41992,2.02246-6.14062,4.89258-6.14062c2.7959,0,4.44434,2.37109,4.44434,4.04395c0,0.47461-0.02539,0.79883-0.27539,0.79883
		H299.72852z M299.85352,146.53516h4.59375c0.09961-0.27441,0.12402-0.64941,0.12402-0.89941
		c0-1.19824-0.84863-1.92188-2.02148-1.92188C301.00195,143.71387,300.17773,144.96191,299.85352,146.53516z"/>
	<path style="&st0;" d="M314.10449,144.16309c-0.64844,0.4248-1.62207,1.62305-1.94727,2.34668v6.81543l1.97266,0.37402v0.74902
		h-5.49219v-0.74902l1.49805-0.37402v-8.36328l-1.62305-0.69922v-0.52344l2.99609-1.04883h0.57422l0.1748,1.77246l0.22461,0.09961
		c1.04785-1.19824,1.84668-1.87207,2.8457-1.87207c0.82324,0,1.49805,0.57422,1.49805,1.57227
		c0,0.87402-0.47461,1.49805-1.27344,1.49805c-0.69922,0-1.17383-0.49902-1.17383-1.37305L314.10449,144.16309z"/>
	<path style="&st0;" d="M317.6709,144.31348v-0.92383l1.44824-0.89844l1.32324-2.29688h0.77344v2.82031h3.27051v1.29883h-3.27051
		v7.43848c0,1.12402,0.52441,1.64746,1.34863,1.64746c0.52344,0,1.27246-0.12402,1.92188-0.49902l0.32422,0.64941
		c-0.47363,0.47363-1.59766,1.19824-3.04492,1.19824c-1.82227,0-2.57129-1.07324-2.57129-3.07031v-7.36426H317.6709z"/>
	<path style="&st0;" d="M329.30176,153.3252l1.49805,0.37402v0.74902h-5.01758v-0.74902l1.49805-0.37402v-8.36328l-1.62305-0.69922
		v-0.52344l3.0459-1.04883h0.59863V153.3252z M328.27832,136.3252c0.79883,0,1.49805,0.69824,1.49805,1.49707
		c0,0.77441-0.69922,1.47363-1.49805,1.47363c-0.77344,0-1.47266-0.69922-1.47266-1.47363
		C326.80566,137.02344,327.50488,136.3252,328.27832,136.3252z"/>
	<path style="&st0;" d="M337.8877,153.10059h-0.25c-1.04883,1.09766-1.84766,1.64746-2.87109,1.64746
		c-1.27246,0-2.27148-1.82227-2.27148-2.94629c0-1.09766,0.59961-2.19629,1.97266-2.77051l3.51953-1.52246v-1.04883
		c0-1.64746-0.69922-2.37109-1.92188-2.37109c-0.5498,0-1.37305,0.34863-1.67285,0.79883
		c0.02441,0.29883,0.14941,0.92285,0.14941,1.42285c0,0.64844-0.52441,0.97363-1.09863,0.97363
		c-0.52344,0-0.97363-0.5-0.97363-1.22363c0-0.54883,0.1748-1.04883,0.69922-1.49805
		c0.89844-0.62402,2.9209-1.87207,3.91992-1.87207c1.79688,0,2.74512,1.24805,2.74512,2.99609v6.36523
		c0,0.54883,0.10059,1.07324,0.64941,1.07324c0.4248,0,0.79883-0.49902,0.97363-0.92383l0.49902,0.2002
		c-0.59863,1.74707-1.77246,2.27148-2.52148,2.27148C338.61133,154.67285,337.96191,154.12402,337.8877,153.10059z
		 M338.01172,148.50684l-2.14648,0.97363c-0.54883,0.22461-1.39746,0.89844-1.39746,1.87207
		c0,0.92383,0.54883,1.72266,1.27246,1.72266c0.94922,0,2.27148-0.89844,2.27148-2.07227V148.50684z"/>
	<path style="&st0;" d="M348.31836,144.16309c-0.64844,0.4248-1.62207,1.62305-1.94727,2.34668v6.81543l1.97266,0.37402v0.74902
		h-5.49219v-0.74902l1.49805-0.37402v-8.36328l-1.62305-0.69922v-0.52344l2.99609-1.04883h0.57422l0.1748,1.77246l0.22461,0.09961
		c1.04785-1.19824,1.84668-1.87207,2.8457-1.87207c0.82324,0,1.49805,0.57422,1.49805,1.57227
		c0,0.87402-0.47461,1.49805-1.27344,1.49805c-0.69922,0-1.17383-0.49902-1.17383-1.37305L348.31836,144.16309z"/>
	<path style="&st0;" d="M356.72852,143.01465v0.74902l-1.47266,0.375l2.57129,7.21387h0.24902l2.44727-7.21387l-1.82324-0.375
		v-0.74902h4.36914v0.74902l-1.54785,0.375l-4.19336,12.58105c-0.92383,2.8457-2.04785,3.96973-3.91992,3.96973
		c-1.09863,0-1.64746-0.59961-1.64746-1.29883c0-0.54883,0.49902-1.04785,1.14844-1.04785
		c0.69922,0,0.94824,0.57422,1.74707,0.57422c0.97363,0,1.72266-1.37305,2.37207-4.14453l-3.84473-10.63379l-1.22266-0.375v-0.74902
		H356.72852z"/>
	<path style="&st0;" d="M376.16992,154.44824v-0.74902l1.49805-0.37402v-6.0166c0-2.17188-0.84863-3.02051-2.32227-3.02051
		c-0.99805,0-1.89648,0.47461-2.39648,0.92383v8.11328l1.49805,0.37402v0.74902h-5.01758v-0.74902l1.49805-0.37402v-14.90332
		l-1.62305-0.72363v-0.52441l3.0459-1.04883h0.59863v7.81348l0.2002,0.15039c1.14844-0.87402,2.19629-1.39844,3.27051-1.39844
		c1.74707,0,3.26953,1.17383,3.26953,3.81934v6.81543l1.49805,0.37402v0.74902H376.16992z"/>
	<path style="&st0;" d="M384.70312,147.5332c-0.02441,0.22461-0.02441,0.47461-0.02441,0.69922
		c0,3.16992,1.72266,4.74316,3.54492,4.74316c1.32227,0,2.4209-0.59961,3.31934-2.04688l0.69922,0.47363
		c-0.74902,1.44824-2.12207,3.3457-4.61816,3.3457c-3.0459,0-4.96777-2.9209-4.96777-5.91699
		c0-3.41992,2.02246-6.14062,4.89258-6.14062c2.7959,0,4.44434,2.37109,4.44434,4.04395c0,0.47461-0.02539,0.79883-0.27539,0.79883
		H384.70312z M384.82812,146.53516h4.59375c0.09961-0.27441,0.12402-0.64941,0.12402-0.89941
		c0-1.19824-0.84863-1.92188-2.02148-1.92188C385.97656,143.71387,385.15234,144.96191,384.82812,146.53516z"/>
	<path style="&st0;" d="M399.40332,153.10059h-0.25c-1.04883,1.09766-1.84766,1.64746-2.87109,1.64746
		c-1.27246,0-2.27148-1.82227-2.27148-2.94629c0-1.09766,0.59961-2.19629,1.97266-2.77051l3.51953-1.52246v-1.04883
		c0-1.64746-0.69922-2.37109-1.92188-2.37109c-0.5498,0-1.37305,0.34863-1.67285,0.79883
		c0.02441,0.29883,0.14941,0.92285,0.14941,1.42285c0,0.64844-0.52441,0.97363-1.09863,0.97363
		c-0.52344,0-0.97363-0.5-0.97363-1.22363c0-0.54883,0.1748-1.04883,0.69922-1.49805
		c0.89844-0.62402,2.9209-1.87207,3.91992-1.87207c1.79688,0,2.74512,1.24805,2.74512,2.99609v6.36523
		c0,0.54883,0.10059,1.07324,0.64941,1.07324c0.4248,0,0.79883-0.49902,0.97363-0.92383l0.49902,0.2002
		c-0.59863,1.74707-1.77246,2.27148-2.52148,2.27148C400.12695,154.67285,399.47754,154.12402,399.40332,153.10059z
		 M399.52734,148.50684l-2.14648,0.97363c-0.54883,0.22461-1.39746,0.89844-1.39746,1.87207
		c0,0.92383,0.54883,1.72266,1.27246,1.72266c0.94922,0,2.27148-0.89844,2.27148-2.07227V148.50684z"/>
	<path style="&st0;" d="M414.37793,152.62598l1.44824,0.69922v0.67383l-2.32129,0.74902h-0.59961l-0.62402-1.17383h-0.22461
		c-1.14844,0.84863-2.22168,1.17383-3.49512,1.17383c-1.69727,0-4.21875-1.69824-4.21875-5.7168
		c0-3.94434,2.6709-6.34082,5.36719-6.34082c1.12305,0,2.04688,0.22461,2.64648,0.39941v-4.66797l-1.69824-0.72363v-0.52441
		l3.12109-1.04883h0.59863V152.62598z M412.35645,144.9873c-0.5-0.69922-1.47266-1.24805-2.49707-1.24805
		c-1.34766,0-3.41992,1.22266-3.41992,4.69238c0,3.12109,1.82227,4.76855,3.27051,4.76855
		c1.09863,0,2.09668-0.62402,2.64648-1.12305V144.9873z"/>
	<path style="&st0;" d="M420.63965,153.3252l1.49805,0.37402v0.74902h-5.01758v-0.74902l1.49805-0.37402v-8.36328l-1.62305-0.69922
		v-0.52344l3.0459-1.04883h0.59863V153.3252z M419.61621,136.3252c0.79883,0,1.49805,0.69824,1.49805,1.49707
		c0,0.77441-0.69922,1.47363-1.49805,1.47363c-0.77344,0-1.47266-0.69922-1.47266-1.47363
		C418.14355,137.02344,418.84277,136.3252,419.61621,136.3252z"/>
	<path style="&st0;" d="M430.17383,154.44824v-0.74902l1.49805-0.37402v-6.1416c0-2.17188-0.84863-2.89551-2.32227-2.89551
		c-0.99805,0-1.89648,0.47461-2.39648,0.92383v8.11328l1.49805,0.37402v0.74902h-5.01758v-0.74902l1.49805-0.37402v-8.36328
		l-1.62305-0.69922v-0.52344l2.9707-1.04883h0.59961l0.14941,1.24805l0.2002,0.15039
		c1.17285-0.87402,2.12109-1.39844,3.19531-1.39844c1.74707,0,3.26953,1.17383,3.26953,3.81934v6.81543l1.49805,0.37402v0.74902
		H430.17383z"/>
	<path style="&st0;" d="M438.23438,154.72266c-0.64941-0.57422-1.17383-1.22266-0.79883-2.07129l0.97363-2.17188v-0.4248
		c-0.92383-0.62402-1.64844-1.64746-1.64844-3.2207c0-2.19629,1.52344-4.04395,4.16895-4.04395
		c1.02344,0,1.84766,0.27539,2.54688,0.74902l3.44434-0.19922v1.77246l-2.2959-0.15039c0.24902,0.5,0.42383,1.04883,0.42383,1.72266
		c0,2.5459-1.57227,4.11914-4.29395,4.11914c-0.39941,0-0.82324-0.0498-1.02344-0.125
		c-0.34961,0.09961-0.59863,0.74902-0.59863,1.07324c0,0.64941,0.34961,1.12402,1.14844,1.12402h3.51953
		c1.69727,0,2.9209,0.59863,2.9209,2.5459c0,2.8457-3.14551,5.26758-7.04004,5.26758c-1.69727,0-2.8457-1.07422-2.8457-2.64648
		c0-1.07324,0.59961-2.27148,1.39844-2.99512V154.72266z M442.87695,154.72266h-3.02051
		c-0.92383,0.2998-1.34766,0.97363-1.34766,2.12207c0,1.42285,0.89844,2.27148,2.8457,2.27148
		c1.82227,0,3.86914-1.02344,3.86914-2.87109C445.22363,155.14746,444.34961,154.72266,442.87695,154.72266z M440.87988,143.73926
		c-1.19824,0-2.02148,1.14844-2.02148,3.04492c0,2.12207,0.84863,3.19531,2.02148,3.19531
		c1.32324,0,2.19727-1.14844,2.19727-3.26953C443.07715,145.23633,442.30273,143.73926,440.87988,143.73926z"/>
</g>
<g>
	<path style="&st0;" d="M51.29199,173.90137c1.54785-0.02539,2.9458-0.47461,4.16895-1.24902l1.12305,0.125v14.4541l2.62158,0.37402
		v0.87402h-7.33936v-0.87402l2.62109-0.37402V174.5752c-1.17334,0.27441-2.39648,0.32422-3.19531,0.125V173.90137z"/>
	<path style="&st0;" d="M63.39648,185.58398c0.84863,0,1.54785,0.69824,1.54785,1.54785c0,0.84863-0.69922,1.52246-1.54785,1.52246
		s-1.52295-0.67383-1.52295-1.52246C61.87354,186.28223,62.54785,185.58398,63.39648,185.58398z"/>
	<path style="&st0;" d="M73.35449,179.29297v0.25c1.72266,0.49902,3.34521,2.34668,3.34521,4.34277
		c0,3.2959-2.8208,4.89355-5.14258,4.89355c-2.59619,0-4.06885-0.89941-4.06885-2.09668c0-0.52441,0.42432-1.09863,1.29785-1.09863
		c1.32324,0,1.39795,1.97168,3.34521,1.97168c1.07324,0,2.47119-0.84863,2.47119-2.82031c0-2.57129-2.62109-4.06934-3.41992-3.69531
		l-0.89844,0.5l-0.57422-0.87402c2.47119-1.27344,4.31836-2.9707,4.31836-4.69336c0-1.17285-0.74854-1.77246-1.89697-1.77246
		c-1.49805,0-2.74609,1.09863-3.69482,2.42188l-0.69873-0.74902c0.99854-1.37305,2.8457-3.32031,5.4917-3.32031
		c1.59766,0,2.9707,1.07324,2.9707,2.7959S74.52783,178.51953,73.35449,179.29297z"/>
</g>
<g>
	<path style="&st0;" d="M129.18213,182.31348h-5.91602l-1.62256,4.91797l2.32129,0.37402v0.87402h-5.44189v-0.87402l1.82227-0.37402
		l5.6416-16.37598h1.42285l5.8418,16.37598l1.94678,0.37402v0.87402h-6.44043v-0.87402l2.17188-0.37402L129.18213,182.31348z
		 M123.69043,181.09082h5.04248l-2.39648-6.76562h-0.39941L123.69043,181.09082z"/>
	<path style="&st0;" d="M142.93213,188.47949v-0.74902l1.49756-0.37402v-6.1416c0-2.17188-0.84863-2.89551-2.32129-2.89551
		c-0.99854,0-1.89746,0.47461-2.39648,0.92383v8.11328l1.49756,0.37402v0.74902h-5.01758v-0.74902l1.49805-0.37402v-8.36328
		l-1.62256-0.69922v-0.52344l2.97021-1.04883h0.59912l0.1499,1.24805l0.19971,0.15039
		c1.17334-0.87402,2.12207-1.39844,3.19531-1.39844c1.74756,0,3.27051,1.17383,3.27051,3.81934v6.81543l1.49756,0.37402v0.74902
		H142.93213z"/>
	<path style="&st0;" d="M154.73584,176.72168c2.92041,0,5.29199,2.27148,5.29199,6.04102c0,3.99414-2.37158,6.0166-5.29199,6.0166
		c-2.9209,0-5.31738-2.14746-5.31738-6.0166C149.41846,179.04297,151.81494,176.72168,154.73584,176.72168z M154.73584,187.73047
		c1.57275,0,2.9707-0.99805,2.9707-4.99219c0-3.69531-1.39795-4.96777-2.9707-4.96777s-2.9707,1.32227-2.9707,4.96777
		C151.76514,186.33301,153.16309,187.73047,154.73584,187.73047z"/>
	<path style="&st0;" d="M161.42236,178.34473v-0.92383l1.44775-0.89844l1.32324-2.29688h0.77344v2.82031h3.27051v1.29883h-3.27051
		v7.43848c0,1.12402,0.52441,1.64746,1.34814,1.64746c0.52441,0,1.27344-0.12402,1.92236-0.49902l0.32422,0.64941
		c-0.47412,0.47363-1.59766,1.19824-3.04541,1.19824c-1.82227,0-2.57129-1.07324-2.57129-3.07031v-7.36426H161.42236z"/>
	<path style="&st0;" d="M176.22314,188.47949v-0.74902l1.49756-0.37402v-6.0166c0-2.17188-0.84863-3.02051-2.32129-3.02051
		c-0.99854,0-1.89746,0.47461-2.39648,0.92383v8.11328l1.49756,0.37402v0.74902h-5.01758v-0.74902l1.49805-0.37402v-14.90332
		l-1.62256-0.72363v-0.52441l3.04541-1.04883h0.59912v7.81348l0.19971,0.15039c1.14795-0.87402,2.19678-1.39844,3.27002-1.39844
		c1.74756,0,3.27051,1.17383,3.27051,3.81934v6.81543l1.49756,0.37402v0.74902H176.22314z"/>
	<path style="&st0;" d="M184.75684,181.56445c-0.02539,0.22461-0.02539,0.47461-0.02539,0.69922
		c0,3.16992,1.72266,4.74316,3.54492,4.74316c1.32324,0,2.42139-0.59961,3.32031-2.04688l0.69873,0.47363
		c-0.74854,1.44824-2.12158,3.3457-4.61816,3.3457c-3.04541,0-4.96777-2.9209-4.96777-5.91699
		c0-3.41992,2.02197-6.14062,4.89307-6.14062c2.7959,0,4.44336,2.37109,4.44336,4.04395c0,0.47461-0.0249,0.79883-0.27441,0.79883
		H184.75684z M184.88135,180.56641h4.59326c0.1001-0.27441,0.125-0.64941,0.125-0.89941c0-1.19824-0.84863-1.92188-2.02197-1.92188
		C186.02979,177.74512,185.20605,178.99316,184.88135,180.56641z"/>
	<path style="&st0;" d="M199.13281,178.19434c-0.64941,0.4248-1.62305,1.62305-1.94727,2.34668v6.81543l1.97217,0.37402v0.74902
		h-5.49219v-0.74902l1.49805-0.37402v-8.36328l-1.62256-0.69922v-0.52344l2.99512-1.04883h0.57422l0.1748,1.77246l0.22461,0.09961
		c1.04883-1.19824,1.84766-1.87207,2.84619-1.87207c0.82373,0,1.49756,0.57422,1.49756,1.57227
		c0,0.87402-0.47412,1.49805-1.27295,1.49805c-0.69922,0-1.17334-0.49902-1.17334-1.37305L199.13281,178.19434z"/>
	<path style="&st0;" d="M208.68848,184.73535h0.82373c0.39941,1.84668,1.32324,3.14453,2.87061,3.14453
		c1.09863,0,1.84766-0.92285,1.84766-1.84668c0-1.02344-0.44971-1.59766-2.64648-2.57129
		c-1.99707-0.84863-2.89551-1.87207-2.89551-3.57031c0-1.44727,1.04834-3.16992,3.39502-3.16992
		c1.07324,0,1.89697,0.2998,2.39648,0.49902l0.62402-0.29883h0.54932v3.56934h-0.72412
		c-0.57422-2.04688-1.82227-2.82129-2.771-2.82129c-1.04834,0-1.89697,0.72461-1.89697,1.74805s0.89844,1.54785,2.62109,2.34668
		c1.92236,0.87305,3.24512,1.77246,3.24512,3.61914c0,2.22168-1.77246,3.39551-3.79443,3.39551
		c-1.04834,0-2.17188-0.44922-2.57129-0.62402l-0.37451,0.32422h-0.69873V184.73535z"/>
	<path style="&st0;" d="M220.06934,181.56445c-0.02539,0.22461-0.02539,0.47461-0.02539,0.69922
		c0,3.16992,1.72266,4.74316,3.54492,4.74316c1.32324,0,2.42139-0.59961,3.32031-2.04688l0.69873,0.47363
		c-0.74854,1.44824-2.12158,3.3457-4.61816,3.3457c-3.04541,0-4.96777-2.9209-4.96777-5.91699
		c0-3.41992,2.02197-6.14062,4.89307-6.14062c2.7959,0,4.44336,2.37109,4.44336,4.04395c0,0.47461-0.0249,0.79883-0.27441,0.79883
		H220.06934z M220.19385,180.56641h4.59326c0.1001-0.27441,0.125-0.64941,0.125-0.89941c0-1.19824-0.84863-1.92188-2.02197-1.92188
		C221.34229,177.74512,220.51855,178.99316,220.19385,180.56641z"/>
	<path style="&st0;" d="M231.37402,182.38867c0,3.29492,1.54785,4.51855,3.49512,4.51855c1.37305,0,2.49609-0.94922,3.0957-1.99707
		l0.77344,0.37402c-0.79883,2.02246-2.34668,3.49512-4.51855,3.49512c-3.04492,0-5.01758-2.72168-5.01758-5.94141
		c0-3.39551,2.24707-6.11621,5.44238-6.11621c2.39648,0,3.76953,1.17383,3.76953,2.49609c0,0.67383-0.3252,1.04883-1.19824,1.04883
		c-1.59766,0-0.92383-2.59668-2.87109-2.59668C232.92188,177.66992,231.37402,179.51758,231.37402,182.38867z"/>
	<path style="&st0;" d="M245.52539,176.72168c2.9209,0,5.29199,2.27148,5.29199,6.04102c0,3.99414-2.37109,6.0166-5.29199,6.0166
		s-5.31738-2.14746-5.31738-6.0166C240.20801,179.04297,242.60449,176.72168,245.52539,176.72168z M245.52539,187.73047
		c1.57227,0,2.9707-0.99805,2.9707-4.99219c0-3.69531-1.39844-4.96777-2.9707-4.96777c-1.57324,0-2.9707,1.32227-2.9707,4.96777
		C242.55469,186.33301,243.95215,187.73047,245.52539,187.73047z"/>
	<path style="&st0;" d="M259.02637,188.47949v-0.74902l1.49805-0.37402v-6.1416c0-2.17188-0.84863-2.89551-2.32227-2.89551
		c-0.99805,0-1.89648,0.47461-2.39648,0.92383v8.11328l1.49805,0.37402v0.74902h-5.01758v-0.74902l1.49805-0.37402v-8.36328
		l-1.62305-0.69922v-0.52344l2.9707-1.04883h0.59961l0.14941,1.24805l0.2002,0.15039
		c1.17285-0.87402,2.12109-1.39844,3.19531-1.39844c1.74707,0,3.26953,1.17383,3.26953,3.81934v6.81543l1.49805,0.37402v0.74902
		H259.02637z"/>
	<path style="&st0;" d="M275.54785,186.65723l1.44824,0.69922v0.67383l-2.32129,0.74902h-0.59961l-0.62402-1.17383h-0.22461
		c-1.14844,0.84863-2.22168,1.17383-3.49512,1.17383c-1.69727,0-4.21875-1.69824-4.21875-5.7168
		c0-3.94434,2.6709-6.34082,5.36719-6.34082c1.12305,0,2.04688,0.22461,2.64648,0.39941v-4.66797l-1.69824-0.72363v-0.52441
		l3.12109-1.04883h0.59863V186.65723z M273.52637,179.01855c-0.5-0.69922-1.47266-1.24805-2.49707-1.24805
		c-1.34766,0-3.41992,1.22266-3.41992,4.69238c0,3.12109,1.82227,4.76855,3.27051,4.76855
		c1.09863,0,2.09668-0.62402,2.64648-1.12305V179.01855z"/>
	<path style="&st0;" d="M284.03223,187.13184h-0.25c-1.04883,1.09766-1.84766,1.64746-2.87109,1.64746
		c-1.27246,0-2.27148-1.82227-2.27148-2.94629c0-1.09766,0.59961-2.19629,1.97266-2.77051l3.51953-1.52246v-1.04883
		c0-1.64746-0.69922-2.37109-1.92188-2.37109c-0.5498,0-1.37305,0.34863-1.67285,0.79883
		c0.02441,0.29883,0.14941,0.92285,0.14941,1.42285c0,0.64844-0.52441,0.97363-1.09863,0.97363
		c-0.52344,0-0.97363-0.5-0.97363-1.22363c0-0.54883,0.1748-1.04883,0.69922-1.49805
		c0.89844-0.62402,2.9209-1.87207,3.91992-1.87207c1.79688,0,2.74512,1.24805,2.74512,2.99609v6.36523
		c0,0.54883,0.10059,1.07324,0.64941,1.07324c0.4248,0,0.79883-0.49902,0.97363-0.92383l0.49902,0.2002
		c-0.59863,1.74707-1.77246,2.27148-2.52148,2.27148C284.75586,188.7041,284.10645,188.15527,284.03223,187.13184z
		 M284.15625,182.53809l-2.14648,0.97363c-0.54883,0.22461-1.39746,0.89844-1.39746,1.87207
		c0,0.92383,0.54883,1.72266,1.27246,1.72266c0.94922,0,2.27148-0.89844,2.27148-2.07227V182.53809z"/>
	<path style="&st0;" d="M294.46387,178.19434c-0.64844,0.4248-1.62207,1.62305-1.94727,2.34668v6.81543l1.97266,0.37402v0.74902
		h-5.49219v-0.74902l1.49805-0.37402v-8.36328l-1.62305-0.69922v-0.52344l2.99609-1.04883h0.57422l0.1748,1.77246l0.22461,0.09961
		c1.04785-1.19824,1.84668-1.87207,2.8457-1.87207c0.82324,0,1.49805,0.57422,1.49805,1.57227
		c0,0.87402-0.47461,1.49805-1.27344,1.49805c-0.69922,0-1.17383-0.49902-1.17383-1.37305L294.46387,178.19434z"/>
	<path style="&st0;" d="M302.87305,177.0459v0.74902l-1.47266,0.375l2.57129,7.21387h0.24902l2.44727-7.21387l-1.82324-0.375
		v-0.74902h4.36914v0.74902l-1.54785,0.375l-4.19336,12.58105c-0.92383,2.8457-2.04785,3.96973-3.91992,3.96973
		c-1.09863,0-1.64746-0.59961-1.64746-1.29883c0-0.54883,0.49902-1.04785,1.14844-1.04785
		c0.69922,0,0.94824,0.57422,1.74707,0.57422c0.97363,0,1.72266-1.37305,2.37207-4.14453l-3.84473-10.63379l-1.22266-0.375v-0.74902
		H302.87305z"/>
	<path style="&st0;" d="M322.31445,188.47949v-0.74902l1.49805-0.37402v-6.0166c0-2.17188-0.84863-3.02051-2.32227-3.02051
		c-0.99805,0-1.89648,0.47461-2.39648,0.92383v8.11328l1.49805,0.37402v0.74902h-5.01758v-0.74902l1.49805-0.37402v-14.90332
		l-1.62305-0.72363v-0.52441l3.0459-1.04883h0.59863v7.81348l0.2002,0.15039c1.14844-0.87402,2.19629-1.39844,3.27051-1.39844
		c1.74707,0,3.26953,1.17383,3.26953,3.81934v6.81543l1.49805,0.37402v0.74902H322.31445z"/>
	<path style="&st0;" d="M330.84766,181.56445c-0.02441,0.22461-0.02441,0.47461-0.02441,0.69922
		c0,3.16992,1.72266,4.74316,3.54492,4.74316c1.32227,0,2.4209-0.59961,3.31934-2.04688l0.69922,0.47363
		c-0.74902,1.44824-2.12207,3.3457-4.61816,3.3457c-3.0459,0-4.96777-2.9209-4.96777-5.91699
		c0-3.41992,2.02246-6.14062,4.89258-6.14062c2.7959,0,4.44434,2.37109,4.44434,4.04395c0,0.47461-0.02539,0.79883-0.27539,0.79883
		H330.84766z M330.97266,180.56641h4.59375c0.09961-0.27441,0.12402-0.64941,0.12402-0.89941
		c0-1.19824-0.84863-1.92188-2.02148-1.92188C332.12109,177.74512,331.29688,178.99316,330.97266,180.56641z"/>
	<path style="&st0;" d="M345.54883,187.13184h-0.25c-1.04883,1.09766-1.84766,1.64746-2.87109,1.64746
		c-1.27246,0-2.27148-1.82227-2.27148-2.94629c0-1.09766,0.59961-2.19629,1.97168-2.77051l3.52051-1.52246v-1.04883
		c0-1.64746-0.69922-2.37109-1.92285-2.37109c-0.54883,0-1.37207,0.34863-1.67188,0.79883
		c0.02441,0.29883,0.14941,0.92285,0.14941,1.42285c0,0.64844-0.52441,0.97363-1.09863,0.97363
		c-0.52344,0-0.97266-0.5-0.97266-1.22363c0-0.54883,0.17383-1.04883,0.69824-1.49805
		c0.89941-0.62402,2.9209-1.87207,3.91992-1.87207c1.79688,0,2.74512,1.24805,2.74512,2.99609v6.36523
		c0,0.54883,0.10059,1.07324,0.64941,1.07324c0.4248,0,0.79883-0.49902,0.97363-0.92383l0.49902,0.2002
		c-0.59863,1.74707-1.77246,2.27148-2.52148,2.27148C346.27246,188.7041,345.62305,188.15527,345.54883,187.13184z
		 M345.67285,182.53809l-2.14648,0.97363c-0.54883,0.22461-1.39844,0.89844-1.39844,1.87207
		c0,0.92383,0.5498,1.72266,1.27344,1.72266c0.94922,0,2.27148-0.89844,2.27148-2.07227V182.53809z"/>
	<path style="&st0;" d="M360.54785,186.65723l1.44824,0.69922v0.67383l-2.32129,0.74902h-0.59961l-0.62402-1.17383h-0.22461
		c-1.14844,0.84863-2.22168,1.17383-3.49512,1.17383c-1.69727,0-4.21875-1.69824-4.21875-5.7168
		c0-3.94434,2.6709-6.34082,5.36719-6.34082c1.12305,0,2.04688,0.22461,2.64648,0.39941v-4.66797l-1.69824-0.72363v-0.52441
		l3.12109-1.04883h0.59863V186.65723z M358.52637,179.01855c-0.5-0.69922-1.47266-1.24805-2.49707-1.24805
		c-1.34766,0-3.41992,1.22266-3.41992,4.69238c0,3.12109,1.82227,4.76855,3.27051,4.76855
		c1.09863,0,2.09668-0.62402,2.64648-1.12305V179.01855z"/>
	<path style="&st0;" d="M366.80957,187.35645l1.49805,0.37402v0.74902h-5.01758v-0.74902l1.49805-0.37402v-8.36328l-1.62305-0.69922
		v-0.52344l3.0459-1.04883h0.59863V187.35645z M365.78613,170.35645c0.79883,0,1.49805,0.69824,1.49805,1.49707
		c0,0.77441-0.69922,1.47363-1.49805,1.47363c-0.77344,0-1.47266-0.69922-1.47266-1.47363
		C364.31348,171.05469,365.0127,170.35645,365.78613,170.35645z"/>
	<path style="&st0;" d="M376.34375,188.47949v-0.74902l1.49805-0.37402v-6.1416c0-2.17188-0.84863-2.89551-2.32227-2.89551
		c-0.99805,0-1.89648,0.47461-2.39648,0.92383v8.11328l1.49805,0.37402v0.74902h-5.01758v-0.74902l1.49805-0.37402v-8.36328
		l-1.62305-0.69922v-0.52344l2.9707-1.04883h0.59961l0.14941,1.24805l0.2002,0.15039
		c1.17285-0.87402,2.12109-1.39844,3.19531-1.39844c1.74707,0,3.26953,1.17383,3.26953,3.81934v6.81543l1.49805,0.37402v0.74902
		H376.34375z"/>
	<path style="&st0;" d="M384.4043,188.75391c-0.64941-0.57422-1.17383-1.22266-0.79883-2.07129l0.97363-2.17188v-0.4248
		c-0.92383-0.62402-1.64844-1.64746-1.64844-3.2207c0-2.19629,1.52344-4.04395,4.16895-4.04395
		c1.02344,0,1.84766,0.27539,2.54688,0.74902l3.44434-0.19922v1.77246l-2.2959-0.15039c0.24902,0.5,0.42383,1.04883,0.42383,1.72266
		c0,2.5459-1.57227,4.11914-4.29395,4.11914c-0.39941,0-0.82324-0.0498-1.02344-0.125
		c-0.34961,0.09961-0.59863,0.74902-0.59863,1.07324c0,0.64941,0.34961,1.12402,1.14844,1.12402h3.51953
		c1.69727,0,2.9209,0.59863,2.9209,2.5459c0,2.8457-3.14551,5.26758-7.04004,5.26758c-1.69727,0-2.8457-1.07422-2.8457-2.64648
		c0-1.07324,0.59961-2.27148,1.39844-2.99512V188.75391z M389.04688,188.75391h-3.02051
		c-0.92383,0.2998-1.34766,0.97363-1.34766,2.12207c0,1.42285,0.89844,2.27148,2.8457,2.27148
		c1.82227,0,3.86914-1.02344,3.86914-2.87109C391.39355,189.17871,390.51953,188.75391,389.04688,188.75391z M387.0498,177.77051
		c-1.19824,0-2.02148,1.14844-2.02148,3.04492c0,2.12207,0.84863,3.19531,2.02148,3.19531
		c1.32324,0,2.19727-1.14844,2.19727-3.26953C389.24707,179.26758,388.47266,177.77051,387.0498,177.77051z"/>
</g>
<g>
	<path style="&st0;" d="M5.29248,208.35645c-1.39795,0-2.646,1.12305-3.86914,2.62109l-0.74902-0.79883
		c0.92334-1.42285,2.87061-3.59473,5.39209-3.59473c2.54639,0,3.86914,1.64746,3.86914,3.62012
		c0,2.94531-4.39355,7.93848-6.66504,9.95996l0.1499,0.34961h5.5918l1.12305-1.69727l0.82373,0.32422l-1.39795,3.37012H0.2998
		L0,221.71191c2.59668-2.07227,7.58887-7.21484,7.58887-10.85938C7.58887,209.53027,6.74023,208.35645,5.29248,208.35645z"/>
	<path style="&st0;" d="M14.82471,219.61523c0.84863,0,1.54736,0.69824,1.54736,1.54785c0,0.84863-0.69873,1.52246-1.54736,1.52246
		c-0.84912,0-1.52295-0.67383-1.52295-1.52246C13.30176,220.31348,13.97559,219.61523,14.82471,219.61523z"/>
</g>
<g>
	<path style="&st0;" d="M61.11963,216.34473h-5.91602l-1.62256,4.91797l2.32129,0.37402v0.87402h-5.44189v-0.87402l1.82227-0.37402
		l5.6416-16.37598h1.42285l5.8418,16.37598l1.94678,0.37402v0.87402h-6.44043v-0.87402l2.17188-0.37402L61.11963,216.34473z
		 M55.62793,215.12207h5.04248l-2.39648-6.76562h-0.39941L55.62793,215.12207z"/>
	<path style="&st0;" d="M74.86963,222.51074v-0.74902l1.49756-0.37402v-6.1416c0-2.17188-0.84863-2.89551-2.32129-2.89551
		c-0.99854,0-1.89746,0.47461-2.39648,0.92383v8.11328l1.49756,0.37402v0.74902h-5.01758v-0.74902l1.49805-0.37402v-8.36328
		l-1.62256-0.69922v-0.52344l2.97021-1.04883h0.59912l0.1499,1.24805l0.19971,0.15039
		c1.17334-0.87402,2.12207-1.39844,3.19531-1.39844c1.74756,0,3.27051,1.17383,3.27051,3.81934v6.81543l1.49756,0.37402v0.74902
		H74.86963z"/>
	<path style="&st0;" d="M86.67334,210.75293c2.92041,0,5.29199,2.27148,5.29199,6.04102c0,3.99414-2.37158,6.0166-5.29199,6.0166
		c-2.9209,0-5.31738-2.14746-5.31738-6.0166C81.35596,213.07422,83.75244,210.75293,86.67334,210.75293z M86.67334,221.76172
		c1.57275,0,2.9707-0.99805,2.9707-4.99219c0-3.69531-1.39795-4.96777-2.9707-4.96777s-2.9707,1.32227-2.9707,4.96777
		C83.70264,220.36426,85.10059,221.76172,86.67334,221.76172z"/>
	<path style="&st0;" d="M93.35986,212.37598v-0.92383l1.44775-0.89844l1.32324-2.29688h0.77344v2.82031h3.27051v1.29883H96.9043
		v7.43848c0,1.12402,0.52441,1.64746,1.34814,1.64746c0.52441,0,1.27344-0.12402,1.92236-0.49902l0.32422,0.64941
		c-0.47412,0.47363-1.59766,1.19824-3.04541,1.19824c-1.82227,0-2.57129-1.07324-2.57129-3.07031v-7.36426H93.35986z"/>
	<path style="&st0;" d="M108.16064,222.51074v-0.74902l1.49756-0.37402v-6.0166c0-2.17188-0.84863-3.02051-2.32129-3.02051
		c-0.99854,0-1.89746,0.47461-2.39648,0.92383v8.11328l1.49756,0.37402v0.74902h-5.01758v-0.74902l1.49805-0.37402v-14.90332
		l-1.62256-0.72363v-0.52441l3.04541-1.04883h0.59912v7.81348l0.19971,0.15039c1.14795-0.87402,2.19678-1.39844,3.27002-1.39844
		c1.74756,0,3.27051,1.17383,3.27051,3.81934v6.81543l1.49756,0.37402v0.74902H108.16064z"/>
	<path style="&st0;" d="M116.69434,215.5957c-0.02539,0.22461-0.02539,0.47461-0.02539,0.69922
		c0,3.16992,1.72266,4.74316,3.54492,4.74316c1.32324,0,2.42139-0.59961,3.32031-2.04688l0.69873,0.47363
		c-0.74854,1.44824-2.12158,3.3457-4.61816,3.3457c-3.04541,0-4.96777-2.9209-4.96777-5.91699
		c0-3.41992,2.02197-6.14062,4.89307-6.14062c2.7959,0,4.44336,2.37109,4.44336,4.04395c0,0.47461-0.0249,0.79883-0.27441,0.79883
		H116.69434z M116.81885,214.59766h4.59326c0.1001-0.27441,0.125-0.64941,0.125-0.89941c0-1.19824-0.84863-1.92188-2.02197-1.92188
		C117.96729,211.77637,117.14355,213.02441,116.81885,214.59766z"/>
	<path style="&st0;" d="M131.07031,212.22559c-0.64941,0.4248-1.62305,1.62305-1.94727,2.34668v6.81543l1.97217,0.37402v0.74902
		h-5.49219v-0.74902l1.49805-0.37402v-8.36328l-1.62256-0.69922v-0.52344l2.99512-1.04883h0.57422l0.1748,1.77246l0.22461,0.09961
		c1.04883-1.19824,1.84766-1.87207,2.84619-1.87207c0.82373,0,1.49756,0.57422,1.49756,1.57227
		c0,0.87402-0.47412,1.49805-1.27295,1.49805c-0.69922,0-1.17334-0.49902-1.17334-1.37305L131.07031,212.22559z"/>
	<path style="&st0;" d="M143.59668,222.43555v4.94336l2.09668,0.37402v0.74902h-5.6167v-0.74902l1.49805-0.37402v-14.35449
		l-1.62256-0.69922v-0.52344l2.97021-1.04883h0.59912l0.1499,1.24805l0.39941,0.15039
		c1.02344-0.84961,2.02197-1.39844,3.12061-1.39844c1.69727,0,4.36865,1.74707,4.36865,5.7666
		c0,3.94434-2.74609,6.29102-5.44238,6.29102C145.09424,222.81055,144.14551,222.63574,143.59668,222.43555z M143.59668,220.66309
		c0.47412,0.69922,1.44775,1.17383,2.37158,1.17383c1.32275,0,3.49463-1.22363,3.49463-4.71875
		c0-3.12012-1.97217-4.66797-3.46973-4.66797c-0.94873,0-1.89746,0.59961-2.39648,1.09863V220.66309z"/>
	<path style="&st0;" d="M158.49609,212.22559c-0.64941,0.4248-1.62305,1.62305-1.94727,2.34668v6.81543l1.97217,0.37402v0.74902
		h-5.49219v-0.74902l1.49805-0.37402v-8.36328l-1.62256-0.69922v-0.52344l2.99512-1.04883h0.57422l0.1748,1.77246l0.22461,0.09961
		c1.04883-1.19824,1.84766-1.87207,2.84619-1.87207c0.82373,0,1.49756,0.57422,1.49756,1.57227
		c0,0.87402-0.47412,1.49805-1.27295,1.49805c-0.69922,0-1.17334-0.49902-1.17334-1.37305L158.49609,212.22559z"/>
	<path style="&st0;" d="M165.58252,221.3877l1.49756,0.37402v0.74902h-5.01758v-0.74902l1.49805-0.37402v-8.36328l-1.62256-0.69922
		v-0.52344l3.04541-1.04883h0.59912V221.3877z M164.55908,204.3877c0.79883,0,1.49756,0.69824,1.49756,1.49707
		c0,0.77441-0.69873,1.47363-1.49756,1.47363c-0.77393,0-1.47314-0.69922-1.47314-1.47363
		C163.08594,205.08594,163.78516,204.3877,164.55908,204.3877z"/>
	<path style="&st0;" d="M175.0918,222.51074v-0.74902l1.49756-0.37402v-6.1416c0-2.17188-0.82373-2.89551-2.29639-2.89551
		c-0.99854,0-1.89746,0.47461-2.39648,0.92383v8.11328l1.49756,0.37402v0.74902h-5.01758v-0.74902l1.49805-0.37402v-8.36328
		l-1.62256-0.69922v-0.52344l2.97021-1.04883h0.59912l0.1499,1.24805l0.19971,0.15039
		c1.17334-0.87402,2.12207-1.39844,3.19531-1.39844c1.19824,0,2.27148,0.54883,2.8208,1.74707
		c1.24854-0.92285,2.47168-1.74707,3.86963-1.74707c1.74707,0,3.27002,1.17383,3.27002,3.81934v6.81543l1.49756,0.37402v0.74902
		h-5.01758v-0.74902l1.49805-0.37402v-6.1416c0-2.17188-0.84863-2.89551-2.29688-2.89551
		c-0.79883,0-1.79736,0.49902-2.47119,0.92383c0.0249,0.32422,0.07471,0.67383,0.07471,1.02344v7.08984l1.49805,0.37402v0.74902
		H175.0918z"/>
	<path style="&st0;" d="M193.85791,221.16309h-0.24951c-1.04834,1.09766-1.84717,1.64746-2.87109,1.64746
		c-1.27295,0-2.27148-1.82227-2.27148-2.94629c0-1.09766,0.59912-2.19629,1.97217-2.77051l3.52002-1.52246v-1.04883
		c0-1.64746-0.69922-2.37109-1.92236-2.37109c-0.54932,0-1.37305,0.34863-1.67236,0.79883
		c0.0249,0.29883,0.14941,0.92285,0.14941,1.42285c0,0.64844-0.52393,0.97363-1.09814,0.97363
		c-0.52441,0-0.97363-0.5-0.97363-1.22363c0-0.54883,0.1748-1.04883,0.69873-1.49805
		c0.89893-0.62402,2.9209-1.87207,3.91943-1.87207c1.79736,0,2.74609,1.24805,2.74609,2.99609v6.36523
		c0,0.54883,0.09961,1.07324,0.64893,1.07324c0.42432,0,0.79883-0.49902,0.97363-0.92383l0.49902,0.2002
		c-0.59863,1.74707-1.77197,2.27148-2.521,2.27148C194.58203,222.73535,193.93262,222.18652,193.85791,221.16309z
		 M193.98291,216.56934l-2.14697,0.97363c-0.54932,0.22461-1.39795,0.89844-1.39795,1.87207
		c0,0.92383,0.54932,1.72266,1.27295,1.72266c0.94873,0,2.27197-0.89844,2.27197-2.07227V216.56934z"/>
	<path style="&st0;" d="M204.29004,212.22559c-0.64941,0.4248-1.62305,1.62305-1.94727,2.34668v6.81543l1.97217,0.37402v0.74902
		h-5.49219v-0.74902l1.49805-0.37402v-8.36328l-1.62256-0.69922v-0.52344l2.99512-1.04883h0.57422l0.1748,1.77246l0.22461,0.09961
		c1.04883-1.19824,1.84766-1.87207,2.84619-1.87207c0.82373,0,1.49756,0.57422,1.49756,1.57227
		c0,0.87402-0.47412,1.49805-1.27295,1.49805c-0.69922,0-1.17334-0.49902-1.17334-1.37305L204.29004,212.22559z"/>
	<path style="&st0;" d="M212.69922,211.07715v0.74902l-1.47266,0.375l2.57129,7.21387h0.24951l2.44629-7.21387l-1.82227-0.375
		v-0.74902h4.36865v0.74902l-1.54785,0.375l-4.19385,12.58105c-0.92334,2.8457-2.04688,3.96973-3.91943,3.96973
		c-1.09814,0-1.64746-0.59961-1.64746-1.29883c0-0.54883,0.49951-1.04785,1.14844-1.04785
		c0.69922,0,0.94873,0.57422,1.74756,0.57422c0.97363,0,1.72217-1.37305,2.37158-4.14453l-3.84473-10.63379l-1.22314-0.375v-0.74902
		H212.69922z"/>
	<path style="&st0;" d="M232.13965,222.51074v-0.74902l1.49805-0.37402v-6.0166c0-2.17188-0.84863-3.02051-2.32129-3.02051
		c-0.99902,0-1.89746,0.47461-2.39648,0.92383v8.11328l1.49805,0.37402v0.74902h-5.01807v-0.74902l1.49805-0.37402v-14.90332
		l-1.62256-0.72363v-0.52441l3.04492-1.04883h0.59961v7.81348l0.19922,0.15039c1.14844-0.87402,2.19727-1.39844,3.27051-1.39844
		c1.74707,0,3.27051,1.17383,3.27051,3.81934v6.81543l1.49707,0.37402v0.74902H232.13965z"/>
	<path style="&st0;" d="M240.67383,215.5957c-0.02441,0.22461-0.02441,0.47461-0.02441,0.69922
		c0,3.16992,1.72266,4.74316,3.54492,4.74316c1.32227,0,2.4209-0.59961,3.31934-2.04688l0.69922,0.47363
		c-0.74902,1.44824-2.12207,3.3457-4.61816,3.3457c-3.0459,0-4.96777-2.9209-4.96777-5.91699
		c0-3.41992,2.02246-6.14062,4.89258-6.14062c2.7959,0,4.44434,2.37109,4.44434,4.04395c0,0.47461-0.02539,0.79883-0.27539,0.79883
		H240.67383z M240.79883,214.59766h4.59375c0.09961-0.27441,0.12402-0.64941,0.12402-0.89941
		c0-1.19824-0.84863-1.92188-2.02148-1.92188C241.94727,211.77637,241.12305,213.02441,240.79883,214.59766z"/>
	<path style="&st0;" d="M255.375,221.16309h-0.25c-1.04883,1.09766-1.84766,1.64746-2.87109,1.64746
		c-1.27246,0-2.27148-1.82227-2.27148-2.94629c0-1.09766,0.59961-2.19629,1.97168-2.77051l3.52051-1.52246v-1.04883
		c0-1.64746-0.69922-2.37109-1.92285-2.37109c-0.54883,0-1.37207,0.34863-1.67188,0.79883
		c0.02441,0.29883,0.14941,0.92285,0.14941,1.42285c0,0.64844-0.52441,0.97363-1.09863,0.97363
		c-0.52344,0-0.97266-0.5-0.97266-1.22363c0-0.54883,0.17383-1.04883,0.69824-1.49805
		c0.89941-0.62402,2.9209-1.87207,3.91992-1.87207c1.79688,0,2.74512,1.24805,2.74512,2.99609v6.36523
		c0,0.54883,0.10059,1.07324,0.64941,1.07324c0.4248,0,0.79883-0.49902,0.97363-0.92383l0.49902,0.2002
		c-0.59863,1.74707-1.77246,2.27148-2.52148,2.27148C256.09863,222.73535,255.44922,222.18652,255.375,221.16309z
		 M255.49902,216.56934l-2.14648,0.97363c-0.54883,0.22461-1.39844,0.89844-1.39844,1.87207
		c0,0.92383,0.5498,1.72266,1.27344,1.72266c0.94922,0,2.27148-0.89844,2.27148-2.07227V216.56934z"/>
	<path style="&st0;" d="M270.34863,220.68848l1.44824,0.69922v0.67383l-2.32129,0.74902h-0.59961l-0.62402-1.17383h-0.22461
		c-1.14844,0.84863-2.22168,1.17383-3.49512,1.17383c-1.69727,0-4.21875-1.69824-4.21875-5.7168
		c0-3.94434,2.6709-6.34082,5.36719-6.34082c1.12305,0,2.04688,0.22461,2.64648,0.39941v-4.66797l-1.69824-0.72363v-0.52441
		l3.12109-1.04883h0.59863V220.68848z M268.32715,213.0498c-0.5-0.69922-1.47266-1.24805-2.49707-1.24805
		c-1.34766,0-3.41992,1.22266-3.41992,4.69238c0,3.12109,1.82227,4.76855,3.27051,4.76855
		c1.09863,0,2.09668-0.62402,2.64648-1.12305V213.0498z"/>
	<path style="&st0;" d="M276.61035,221.3877l1.49805,0.37402v0.74902h-5.01758v-0.74902l1.49805-0.37402v-8.36328l-1.62305-0.69922
		v-0.52344l3.0459-1.04883h0.59863V221.3877z M275.58691,204.3877c0.79883,0,1.49805,0.69824,1.49805,1.49707
		c0,0.77441-0.69922,1.47363-1.49805,1.47363c-0.77344,0-1.47266-0.69922-1.47266-1.47363
		C274.11426,205.08594,274.81348,204.3877,275.58691,204.3877z"/>
	<path style="&st0;" d="M286.14551,222.51074v-0.74902l1.49805-0.37402v-6.1416c0-2.17188-0.84863-2.89551-2.32227-2.89551
		c-0.99805,0-1.89648,0.47461-2.39648,0.92383v8.11328l1.49805,0.37402v0.74902h-5.01758v-0.74902l1.49805-0.37402v-8.36328
		l-1.62305-0.69922v-0.52344l2.9707-1.04883h0.59961L283,212.00098l0.2002,0.15039c1.17285-0.87402,2.12109-1.39844,3.19531-1.39844
		c1.74707,0,3.26953,1.17383,3.26953,3.81934v6.81543l1.49805,0.37402v0.74902H286.14551z"/>
	<path style="&st0;" d="M294.20508,222.78516c-0.64941-0.57422-1.17383-1.22266-0.79883-2.07129l0.97363-2.17188v-0.4248
		c-0.92383-0.62402-1.64844-1.64746-1.64844-3.2207c0-2.19629,1.52344-4.04395,4.16895-4.04395
		c1.02344,0,1.84766,0.27539,2.54688,0.74902l3.44434-0.19922v1.77246l-2.2959-0.15039c0.24902,0.5,0.42383,1.04883,0.42383,1.72266
		c0,2.5459-1.57227,4.11914-4.29395,4.11914c-0.39941,0-0.82324-0.0498-1.02344-0.125
		c-0.34961,0.09961-0.59863,0.74902-0.59863,1.07324c0,0.64941,0.34961,1.12402,1.14844,1.12402h3.51953
		c1.69727,0,2.9209,0.59863,2.9209,2.5459c0,2.8457-3.14551,5.26758-7.04004,5.26758c-1.69727,0-2.8457-1.07422-2.8457-2.64648
		c0-1.07324,0.59961-2.27148,1.39844-2.99512V222.78516z M298.84766,222.78516h-3.02051
		c-0.92383,0.2998-1.34766,0.97363-1.34766,2.12207c0,1.42285,0.89844,2.27148,2.8457,2.27148
		c1.82227,0,3.86914-1.02344,3.86914-2.87109C301.19434,223.20996,300.32031,222.78516,298.84766,222.78516z M296.85059,211.80176
		c-1.19824,0-2.02148,1.14844-2.02148,3.04492c0,2.12207,0.84863,3.19531,2.02148,3.19531
		c1.32324,0,2.19727-1.14844,2.19727-3.26953C299.04785,213.29883,298.27344,211.80176,296.85059,211.80176z"/>
</g>
</svg>
