<?xml version="1.0" encoding="utf-8"?>
<!-- Generator: Adobe Illustrator 15.1.0, SVG Export Plug-In . SVG Version: 6.00 Build 0)  -->
<!DOCTYPE svg PUBLIC "-//W3C//DTD SVG 1.1//EN" "http://www.w3.org/Graphics/SVG/1.1/DTD/svg11.dtd" [
	<!ENTITY st0 "fill:#231F20;">
]>
<svg version="1.1" id="Layer_1" xmlns="http://www.w3.org/2000/svg" xmlns:xlink="http://www.w3.org/1999/xlink" x="0px" y="0px"
	 width="445.9873px" height="228.75098px" viewBox="0 0 445.9873 228.75098" style="enable-background:new 0 0 445.9873 228.75098;"
	 xml:space="preserve">
<g>
	<path style="&st0;" d="M6.89014,0.69922v0.87354L4.64355,1.94727V17.0752l2.24658,0.37451v0.87354H0v-0.87354l2.24707-0.37451
		V1.94727L0,1.57275V0.69922H6.89014z"/>
	<path style="&st0;" d="M10.70703,15.42773c0.84863,0,1.54785,0.69873,1.54785,1.54736c0,0.84912-0.69922,1.52295-1.54785,1.52295
		s-1.52295-0.67383-1.52295-1.52295C9.18408,16.12646,9.8584,15.42773,10.70703,15.42773z"/>
</g>
<g>
	<path style="&st0;" d="M54.50635,10.58447v6.49072l2.47119,0.37451v0.87354h-7.13965v-0.87354l2.24707-0.37451V1.94727
		l-2.24707-0.37451V0.69922h6.31592c2.896,0,6.19092,1.37305,6.19092,5.01758c0,2.99561-2.37158,4.86768-6.31592,4.86768H54.50635z
		 M54.50635,9.43652h1.87207c1.87256,0,3.47021-1.37305,3.47021-3.56982c0-2.84619-1.44824-3.86963-3.69482-3.86963h-1.64746
		V9.43652z"/>
	<path style="&st0;" d="M69.30469,8.03809c-0.64893,0.4248-1.62256,1.62305-1.94678,2.34668v6.81494l1.97217,0.37451v0.74902
		h-5.49219v-0.74902l1.49805-0.37451V8.83691l-1.62305-0.69873V7.61377l2.99609-1.04834h0.57373l0.1748,1.77246l0.22461,0.09961
		c1.04883-1.19824,1.84766-1.87207,2.84619-1.87207c0.82373,0,1.49756,0.57422,1.49756,1.57275
		c0,0.87354-0.47412,1.49756-1.27295,1.49756c-0.69922,0-1.17334-0.49902-1.17334-1.37256L69.30469,8.03809z"/>
	<path style="&st0;" d="M76.3916,17.19971l1.49805,0.37451v0.74902h-5.01807v-0.74902l1.49805-0.37451V8.83691l-1.62256-0.69873
		V7.61377l3.04541-1.04834h0.59912V17.19971z M75.36816,0.19971c0.79883,0,1.49756,0.69922,1.49756,1.49805
		c0,0.77393-0.69873,1.47266-1.49756,1.47266c-0.77393,0-1.47266-0.69873-1.47266-1.47266
		C73.89551,0.89893,74.59424,0.19971,75.36816,0.19971z"/>
	<path style="&st0;" d="M85.90088,18.32324v-0.74902l1.49756-0.37451v-6.14062c0-2.17188-0.82373-2.896-2.29639-2.896
		c-0.99854,0-1.89746,0.47461-2.39648,0.92383v8.11279l1.49756,0.37451v0.74902h-5.01758v-0.74902l1.49805-0.37451V8.83691
		l-1.62305-0.69873V7.61377l2.9707-1.04834h0.59912l0.1499,1.24805l0.19971,0.1499c1.17334-0.87354,2.12207-1.39795,3.19531-1.39795
		c1.19824,0,2.27197,0.54932,2.8208,1.74756c1.24805-0.92383,2.47168-1.74756,3.86963-1.74756
		c1.74707,0,3.27002,1.17334,3.27002,3.81934v6.81494l1.49805,0.37451v0.74902h-5.01807v-0.74902l1.49805-0.37451v-6.14062
		c0-2.17188-0.84863-2.896-2.29688-2.896c-0.79883,0-1.79736,0.49951-2.47119,0.92383
		c0.0249,0.32422,0.07471,0.67383,0.07471,1.02344v7.08936l1.49805,0.37451v0.74902H85.90088z"/>
	<path style="&st0;" d="M104.66699,16.9751h-0.24951c-1.04834,1.09863-1.84717,1.64795-2.87061,1.64795
		c-1.27344,0-2.27197-1.82275-2.27197-2.9458c0-1.09863,0.59912-2.19678,1.97217-2.771l3.52002-1.52295v-1.04834
		c0-1.64746-0.69922-2.37158-1.92236-2.37158c-0.54932,0-1.37305,0.34961-1.67236,0.79883
		c0.0249,0.2998,0.14941,0.92383,0.14941,1.42285c0,0.64893-0.52393,0.97363-1.09814,0.97363
		c-0.52441,0-0.97363-0.49902-0.97363-1.22314c0-0.54932,0.1748-1.04834,0.69922-1.49805
		c0.89844-0.62402,2.92041-1.87207,3.91895-1.87207c1.79736,0,2.74609,1.24805,2.74609,2.99561v6.36572
		c0,0.54932,0.09961,1.07324,0.64893,1.07324c0.42432,0,0.79883-0.49902,0.97363-0.92334l0.49951,0.19971
		c-0.59961,1.74707-1.77246,2.27148-2.52148,2.27148C105.39111,18.54785,104.74219,17.99854,104.66699,16.9751z M104.79199,12.38184
		l-2.14697,0.97363c-0.54932,0.22461-1.39795,0.89893-1.39795,1.87207c0,0.92383,0.54932,1.72266,1.27295,1.72266
		c0.94873,0,2.27197-0.89844,2.27197-2.07178V12.38184z"/>
	<path style="&st0;" d="M115.09863,8.03809c-0.64893,0.4248-1.62256,1.62305-1.94678,2.34668v6.81494l1.97217,0.37451v0.74902
		h-5.49219v-0.74902l1.49805-0.37451V8.83691l-1.62305-0.69873V7.61377l2.99609-1.04834h0.57373l0.1748,1.77246l0.22461,0.09961
		c1.04883-1.19824,1.84766-1.87207,2.84619-1.87207c0.82373,0,1.49756,0.57422,1.49756,1.57275
		c0,0.87354-0.47412,1.49756-1.27295,1.49756c-0.69922,0-1.17334-0.49902-1.17334-1.37256L115.09863,8.03809z"/>
	<path style="&st0;" d="M123.5083,6.89014v0.74854l-1.47266,0.37451l2.57129,7.21436h0.24951l2.44629-7.21436l-1.82227-0.37451
		V6.89014h4.36865v0.74854l-1.54785,0.37451l-4.19385,12.58154c-0.92383,2.84619-2.04688,3.96924-3.91895,3.96924
		c-1.09863,0-1.64795-0.59912-1.64795-1.29785c0-0.54932,0.49951-1.04834,1.14844-1.04834
		c0.69873,0,0.94873,0.57373,1.74756,0.57373c0.97363,0,1.72217-1.37256,2.37158-4.14355l-3.84473-10.63477l-1.22314-0.37451
		V6.89014H123.5083z"/>
	<path style="&st0;" d="M142.94971,18.32324v-0.74902l1.49756-0.37451v-6.01611c0-2.17188-0.84863-3.02051-2.32129-3.02051
		c-0.99854,0-1.89746,0.47461-2.39648,0.92383v8.11279l1.49756,0.37451v0.74902h-5.01758v-0.74902l1.49805-0.37451V2.29688
		l-1.62256-0.72412V1.04883L139.13037,0h0.59912v7.81348l0.19971,0.1499c1.14795-0.87354,2.19678-1.39795,3.27002-1.39795
		c1.74756,0,3.27051,1.17334,3.27051,3.81934v6.81494l1.49756,0.37451v0.74902H142.94971z"/>
	<path style="&st0;" d="M151.4834,11.4082c-0.02539,0.22461-0.02539,0.47461-0.02539,0.69922
		c0,3.17041,1.72266,4.74316,3.54492,4.74316c1.32324,0,2.42139-0.59912,3.32031-2.04736l0.69873,0.47461
		c-0.74854,1.44775-2.12158,3.34521-4.61816,3.34521c-3.04541,0-4.96777-2.9209-4.96777-5.9165
		c0-3.41992,2.02197-6.14111,4.89307-6.14111c2.7959,0,4.44336,2.37158,4.44336,4.04395c0,0.47461-0.0249,0.79883-0.27441,0.79883
		H151.4834z M151.60791,10.40967h4.59326c0.1001-0.27441,0.125-0.64893,0.125-0.89844c0-1.19824-0.84863-1.92236-2.02197-1.92236
		C152.75635,7.58887,151.93262,8.83691,151.60791,10.40967z"/>
	<path style="&st0;" d="M166.18311,16.9751h-0.24951c-1.04834,1.09863-1.84717,1.64795-2.87109,1.64795
		c-1.27295,0-2.27148-1.82275-2.27148-2.9458c0-1.09863,0.59912-2.19678,1.97217-2.771l3.52002-1.52295v-1.04834
		c0-1.64746-0.69922-2.37158-1.92236-2.37158c-0.54932,0-1.37305,0.34961-1.67236,0.79883
		c0.0249,0.2998,0.14941,0.92383,0.14941,1.42285c0,0.64893-0.52393,0.97363-1.09814,0.97363
		c-0.52441,0-0.97363-0.49902-0.97363-1.22314c0-0.54932,0.1748-1.04834,0.69873-1.49805
		c0.89893-0.62402,2.9209-1.87207,3.91943-1.87207c1.79736,0,2.74609,1.24805,2.74609,2.99561v6.36572
		c0,0.54932,0.09961,1.07324,0.64893,1.07324c0.42432,0,0.79883-0.49902,0.97363-0.92334l0.49902,0.19971
		c-0.59863,1.74707-1.77197,2.27148-2.521,2.27148C166.90723,18.54785,166.25781,17.99854,166.18311,16.9751z M166.30811,12.38184
		l-2.14697,0.97363c-0.54932,0.22461-1.39795,0.89893-1.39795,1.87207c0,0.92383,0.54932,1.72266,1.27295,1.72266
		c0.94873,0,2.27197-0.89844,2.27197-2.07178V12.38184z"/>
	<path style="&st0;" d="M181.1582,16.50098l1.44824,0.69873v0.67432l-2.32178,0.74902h-0.59912l-0.62402-1.17334h-0.22461
		c-1.14844,0.84863-2.22168,1.17334-3.49512,1.17334c-1.69727,0-4.21875-1.69775-4.21875-5.7168
		c0-3.94434,2.67139-6.34082,5.36719-6.34082c1.12354,0,2.04688,0.22461,2.646,0.39941V2.29688l-1.69727-0.72412V1.04883
		L180.55957,0h0.59863V16.50098z M179.13623,8.8623c-0.49902-0.69922-1.47266-1.24854-2.49609-1.24854
		c-1.34814,0-3.41992,1.22314-3.41992,4.69336c0,3.12061,1.82227,4.76807,3.27002,4.76807c1.09863,0,2.09717-0.62402,2.646-1.12354
		V8.8623z"/>
	<path style="&st0;" d="M187.42041,17.19971l1.49756,0.37451v0.74902h-5.01758v-0.74902l1.49805-0.37451V8.83691l-1.62256-0.69873
		V7.61377l3.04541-1.04834h0.59912V17.19971z M186.39697,0.19971c0.79883,0,1.49756,0.69922,1.49756,1.49805
		c0,0.77393-0.69873,1.47266-1.49756,1.47266c-0.77393,0-1.47314-0.69873-1.47314-1.47266
		C184.92383,0.89893,185.62305,0.19971,186.39697,0.19971z"/>
	<path style="&st0;" d="M196.9541,18.32324v-0.74902l1.49756-0.37451v-6.14062c0-2.17188-0.84863-2.896-2.32129-2.896
		c-0.99854,0-1.89746,0.47461-2.39648,0.92383v8.11279l1.49756,0.37451v0.74902h-5.01758v-0.74902l1.49805-0.37451V8.83691
		l-1.62305-0.69873V7.61377l2.9707-1.04834h0.59912l0.1499,1.24805l0.19971,0.1499c1.17334-0.87354,2.12207-1.39795,3.19531-1.39795
		c1.74756,0,3.27002,1.17334,3.27002,3.81934v6.81494l1.49805,0.37451v0.74902H196.9541z"/>
	<path style="&st0;" d="M205.01367,18.59766c-0.64893-0.57422-1.17334-1.22314-0.79883-2.07178l0.97363-2.17188v-0.42432
		c-0.92383-0.62402-1.64746-1.64746-1.64746-3.22021c0-2.19678,1.52246-4.04395,4.16895-4.04395
		c1.02344,0,1.84717,0.27441,2.5459,0.74854l3.44531-0.19971v1.77246l-2.29688-0.1499
		c0.24951,0.49951,0.42432,1.04883,0.42432,1.72266c0,2.54639-1.57275,4.11914-4.29346,4.11914
		c-0.39941,0-0.82373-0.0498-1.02344-0.125c-0.34961,0.1001-0.59912,0.74902-0.59912,1.07324
		c0,0.64941,0.34912,1.12354,1.14795,1.12354h3.52002c1.69775,0,2.9209,0.59912,2.9209,2.54639
		c0,2.8457-3.14551,5.26709-7.04004,5.26709c-1.69727,0-2.8457-1.07324-2.8457-2.646c0-1.07324,0.59912-2.27148,1.39795-2.99561
		V18.59766z M209.65674,18.59766h-3.02051c-0.92334,0.2998-1.34814,0.97363-1.34814,2.12207
		c0,1.42285,0.89893,2.27148,2.84619,2.27148c1.82227,0,3.86914-1.02344,3.86914-2.87061
		C212.00342,19.02246,211.12988,18.59766,209.65674,18.59766z M207.65967,7.61377c-1.19824,0-2.02197,1.14844-2.02197,3.0459
		c0,2.12158,0.84863,3.19531,2.02197,3.19531c1.32324,0,2.19678-1.14844,2.19678-3.27051
		C209.85645,9.11182,209.08301,7.61377,207.65967,7.61377z"/>
</g>
<g>
	<path style="&st0;" d="M60.19385,46.18848h-5.91602l-1.62256,4.91797l2.32129,0.37451v0.87354h-5.44189v-0.87354l1.82227-0.37451
		l5.6416-16.37598h1.42285l5.8418,16.37598l1.94678,0.37451v0.87354h-6.44043v-0.87354l2.17188-0.37451L60.19385,46.18848z
		 M54.70215,44.96533h5.04248l-2.39648-6.76514h-0.39941L54.70215,44.96533z"/>
	<path style="&st0;" d="M69.7251,49.45898c0.84863,0,1.54736,0.69873,1.54736,1.54736c0,0.84912-0.69873,1.52295-1.54736,1.52295
		c-0.84912,0-1.52295-0.67383-1.52295-1.52295C68.20215,50.15771,68.87598,49.45898,69.7251,49.45898z"/>
</g>
<g>
	<path style="&st0;" d="M118.28809,46.8877h0.97363c0.69922,3.07031,2.52148,4.64307,4.91797,4.64307
		c1.97217,0,3.39502-1.19824,3.39502-3.02051c0-1.54785-0.64893-2.896-3.76953-4.21875
		c-3.49463-1.49805-5.01758-2.74609-5.01758-5.26758c0-2.12158,1.97217-4.59326,5.29199-4.59326
		c1.59766,0,2.7959,0.47461,3.54492,0.77393l1.04834-0.47412h0.49951l0.49902,5.11719h-0.79883
		c-0.89844-2.8457-2.771-4.26855-4.66797-4.26855c-1.79736,0-3.22021,0.92383-3.22021,2.69629
		c0,1.67236,1.47266,2.94531,4.14404,4.09375c2.87061,1.22314,4.64307,2.47119,4.64307,5.24219
		c0,3.29541-2.44629,5.04297-5.5918,5.04297c-1.24805,0-2.74609-0.4248-3.66992-0.97363l-1.22314,0.49902h-0.99854V46.8877z"/>
	<path style="&st0;" d="M133.73633,45.43945c-0.0249,0.22461-0.0249,0.47461-0.0249,0.69922
		c0,3.17041,1.72266,4.74316,3.54492,4.74316c1.32324,0,2.42139-0.59912,3.32031-2.04736l0.69873,0.47461
		c-0.74902,1.44775-2.12158,3.34521-4.61816,3.34521c-3.04541,0-4.96777-2.9209-4.96777-5.9165
		c0-3.41992,2.02197-6.14111,4.89307-6.14111c2.7959,0,4.44336,2.37158,4.44336,4.04395c0,0.47461-0.0249,0.79883-0.27441,0.79883
		H133.73633z M133.86133,44.44092h4.59326c0.1001-0.27441,0.125-0.64893,0.125-0.89844c0-1.19824-0.84912-1.92236-2.02197-1.92236
		C135.00977,41.62012,134.18604,42.86816,133.86133,44.44092z"/>
	<path style="&st0;" d="M145.0415,46.26367c0,3.29492,1.54785,4.51807,3.49512,4.51807c1.37256,0,2.49609-0.94873,3.09521-1.99707
		l0.77393,0.37451c-0.79883,2.02197-2.34668,3.49512-4.51855,3.49512c-3.04541,0-5.01758-2.72119-5.01758-5.94141
		c0-3.39502,2.24658-6.11621,5.44189-6.11621c2.39648,0,3.76953,1.17334,3.76953,2.49658c0,0.67383-0.32422,1.04834-1.19824,1.04834
		c-1.59766,0-0.92334-2.59619-2.87061-2.59619C146.58936,41.54541,145.0415,43.39258,145.0415,46.26367z"/>
	<path style="&st0;" d="M159.19238,40.59668c2.9209,0,5.29199,2.27148,5.29199,6.04102c0,3.99414-2.37109,6.0166-5.29199,6.0166
		s-5.31738-2.14697-5.31738-6.0166C153.875,42.91846,156.27148,40.59668,159.19238,40.59668z M159.19238,51.60547
		c1.57275,0,2.9707-0.99854,2.9707-4.99268c0-3.69434-1.39795-4.96777-2.9707-4.96777s-2.9707,1.32324-2.9707,4.96777
		C156.22168,50.20752,157.61963,51.60547,159.19238,51.60547z"/>
	<path style="&st0;" d="M172.69434,52.35449v-0.74902l1.49756-0.37451v-6.14062c0-2.17188-0.84863-2.896-2.32129-2.896
		c-0.99854,0-1.89746,0.47461-2.39648,0.92383v8.11279l1.49756,0.37451v0.74902h-5.01758v-0.74902l1.49805-0.37451v-8.36279
		l-1.62305-0.69873v-0.52441l2.9707-1.04834h0.59912l0.1499,1.24805l0.19971,0.1499
		c1.17334-0.87354,2.12207-1.39795,3.19531-1.39795c1.74756,0,3.27002,1.17334,3.27002,3.81934v6.81494l1.49805,0.37451v0.74902
		H172.69434z"/>
	<path style="&st0;" d="M189.21582,50.53223l1.44824,0.69873v0.67432l-2.32178,0.74902h-0.59912l-0.62402-1.17334h-0.22461
		c-1.14844,0.84863-2.22168,1.17334-3.49512,1.17334c-1.69727,0-4.21875-1.69775-4.21875-5.7168
		c0-3.94434,2.67139-6.34082,5.36719-6.34082c1.12354,0,2.04688,0.22461,2.646,0.39941v-4.66797l-1.69727-0.72412v-0.52393
		l3.12061-1.04883h0.59863V50.53223z M187.19385,42.89355c-0.49902-0.69922-1.47266-1.24854-2.49609-1.24854
		c-1.34814,0-3.41992,1.22314-3.41992,4.69336c0,3.12061,1.82227,4.76807,3.27002,4.76807c1.09863,0,2.09717-0.62402,2.646-1.12354
		V42.89355z"/>
	<path style="&st0;" d="M197.69971,51.00635h-0.24951c-1.04834,1.09863-1.84717,1.64795-2.87109,1.64795
		c-1.27295,0-2.27148-1.82275-2.27148-2.9458c0-1.09863,0.59912-2.19678,1.97217-2.771l3.52002-1.52295v-1.04834
		c0-1.64746-0.69922-2.37158-1.92236-2.37158c-0.54932,0-1.37305,0.34961-1.67236,0.79883
		c0.0249,0.2998,0.14941,0.92383,0.14941,1.42285c0,0.64893-0.52393,0.97363-1.09814,0.97363
		c-0.52441,0-0.97363-0.49902-0.97363-1.22314c0-0.54932,0.1748-1.04834,0.69873-1.49805
		c0.89893-0.62402,2.9209-1.87207,3.91943-1.87207c1.79736,0,2.74609,1.24805,2.74609,2.99561v6.36572
		c0,0.54932,0.09961,1.07324,0.64893,1.07324c0.42432,0,0.79883-0.49902,0.97363-0.92334l0.49902,0.19971
		c-0.59863,1.74707-1.77197,2.27148-2.521,2.27148C198.42383,52.5791,197.77441,52.02979,197.69971,51.00635z M197.82471,46.41309
		l-2.14697,0.97363c-0.54932,0.22461-1.39795,0.89893-1.39795,1.87207c0,0.92383,0.54932,1.72266,1.27295,1.72266
		c0.94873,0,2.27197-0.89844,2.27197-2.07178V46.41309z"/>
	<path style="&st0;" d="M208.13086,42.06934c-0.64893,0.4248-1.62256,1.62305-1.94678,2.34668v6.81494l1.97217,0.37451v0.74902
		h-5.49219v-0.74902l1.49805-0.37451v-8.36279l-1.62305-0.69873v-0.52441l2.99609-1.04834h0.57373l0.1748,1.77246l0.22461,0.09961
		c1.04883-1.19824,1.84766-1.87207,2.84619-1.87207c0.82373,0,1.49756,0.57422,1.49756,1.57275
		c0,0.87354-0.47412,1.49756-1.27295,1.49756c-0.69922,0-1.17334-0.49902-1.17334-1.37256L208.13086,42.06934z"/>
	<path style="&st0;" d="M216.54102,40.92139v0.74854l-1.47266,0.37451l2.57129,7.21436h0.24951l2.44629-7.21436l-1.82227-0.37451
		v-0.74854h4.36865v0.74854l-1.54785,0.37451l-4.19385,12.58154c-0.92334,2.84619-2.04688,3.96924-3.91943,3.96924
		c-1.09814,0-1.64746-0.59912-1.64746-1.29785c0-0.54932,0.49951-1.04834,1.14844-1.04834
		c0.69922,0,0.94873,0.57373,1.74756,0.57373c0.97363,0,1.72217-1.37256,2.37158-4.14355l-3.84473-10.63477l-1.22314-0.37451
		v-0.74854H216.54102z"/>
	<path style="&st0;" d="M235.98242,52.35449v-0.74902l1.49805-0.37451v-6.01611c0-2.17188-0.84863-3.02051-2.32227-3.02051
		c-0.99805,0-1.89648,0.47461-2.39648,0.92383v8.11279l1.49805,0.37451v0.74902h-5.01758v-0.74902l1.49805-0.37451V36.32812
		l-1.62305-0.72412v-0.52393l3.0459-1.04883h0.59863v7.81348l0.2002,0.1499c1.14844-0.87354,2.19629-1.39795,3.27051-1.39795
		c1.74707,0,3.26953,1.17334,3.26953,3.81934v6.81494L241,51.60547v0.74902H235.98242z"/>
	<path style="&st0;" d="M244.51562,45.43945c-0.02441,0.22461-0.02441,0.47461-0.02441,0.69922
		c0,3.17041,1.72266,4.74316,3.54492,4.74316c1.32227,0,2.4209-0.59912,3.31934-2.04736l0.69922,0.47461
		c-0.74902,1.44775-2.12207,3.34521-4.61816,3.34521c-3.0459,0-4.96777-2.9209-4.96777-5.9165
		c0-3.41992,2.02246-6.14111,4.89258-6.14111c2.7959,0,4.44434,2.37158,4.44434,4.04395c0,0.47461-0.02539,0.79883-0.27539,0.79883
		H244.51562z M244.64062,44.44092h4.59375c0.09961-0.27441,0.12402-0.64893,0.12402-0.89844
		c0-1.19824-0.84863-1.92236-2.02148-1.92236C245.78906,41.62012,244.96484,42.86816,244.64062,44.44092z"/>
	<path style="&st0;" d="M259.21582,51.00635h-0.25c-1.04883,1.09863-1.84766,1.64795-2.87109,1.64795
		c-1.27246,0-2.27148-1.82275-2.27148-2.9458c0-1.09863,0.59961-2.19678,1.97266-2.771l3.51953-1.52295v-1.04834
		c0-1.64746-0.69922-2.37158-1.92188-2.37158c-0.5498,0-1.37305,0.34961-1.67285,0.79883
		c0.02441,0.2998,0.14941,0.92383,0.14941,1.42285c0,0.64893-0.52441,0.97363-1.09863,0.97363
		c-0.52344,0-0.97363-0.49902-0.97363-1.22314c0-0.54932,0.1748-1.04834,0.69922-1.49805
		c0.89844-0.62402,2.9209-1.87207,3.91992-1.87207c1.79688,0,2.74512,1.24805,2.74512,2.99561v6.36572
		c0,0.54932,0.10059,1.07324,0.64941,1.07324c0.4248,0,0.79883-0.49902,0.97363-0.92334l0.49902,0.19971
		c-0.59863,1.74707-1.77246,2.27148-2.52148,2.27148C259.93945,52.5791,259.29004,52.02979,259.21582,51.00635z M259.33984,46.41309
		l-2.14648,0.97363c-0.54883,0.22461-1.39746,0.89893-1.39746,1.87207c0,0.92383,0.54883,1.72266,1.27246,1.72266
		c0.94922,0,2.27148-0.89844,2.27148-2.07178V46.41309z"/>
	<path style="&st0;" d="M274.19043,50.53223l1.44824,0.69873v0.67432l-2.32129,0.74902h-0.59961l-0.62402-1.17334h-0.22461
		c-1.14844,0.84863-2.22168,1.17334-3.49512,1.17334c-1.69727,0-4.21875-1.69775-4.21875-5.7168
		c0-3.94434,2.6709-6.34082,5.36719-6.34082c1.12305,0,2.04688,0.22461,2.64648,0.39941v-4.66797L270.4707,35.604v-0.52393
		l3.12109-1.04883h0.59863V50.53223z M272.16895,42.89355c-0.5-0.69922-1.47266-1.24854-2.49707-1.24854
		c-1.34766,0-3.41992,1.22314-3.41992,4.69336c0,3.12061,1.82227,4.76807,3.27051,4.76807
		c1.09863,0,2.09668-0.62402,2.64648-1.12354V42.89355z"/>
	<path style="&st0;" d="M280.45215,51.23096l1.49805,0.37451v0.74902h-5.01758v-0.74902l1.49805-0.37451v-8.36279l-1.62305-0.69873
		v-0.52441l3.0459-1.04834h0.59863V51.23096z M279.42871,34.23096c0.79883,0,1.49805,0.69922,1.49805,1.49805
		c0,0.77393-0.69922,1.47266-1.49805,1.47266c-0.77344,0-1.47266-0.69873-1.47266-1.47266
		C277.95605,34.93018,278.65527,34.23096,279.42871,34.23096z"/>
	<path style="&st0;" d="M289.98633,52.35449v-0.74902l1.49805-0.37451v-6.14062c0-2.17188-0.84863-2.896-2.32227-2.896
		c-0.99805,0-1.89648,0.47461-2.39648,0.92383v8.11279l1.49805,0.37451v0.74902h-5.01758v-0.74902l1.49805-0.37451v-8.36279
		l-1.62305-0.69873v-0.52441l2.9707-1.04834h0.59961l0.14941,1.24805l0.2002,0.1499
		c1.17285-0.87354,2.12109-1.39795,3.19531-1.39795c1.74707,0,3.26953,1.17334,3.26953,3.81934v6.81494l1.49805,0.37451v0.74902
		H289.98633z"/>
	<path style="&st0;" d="M298.04688,52.62891c-0.64941-0.57422-1.17383-1.22314-0.79883-2.07178l0.97363-2.17188v-0.42432
		c-0.92383-0.62402-1.64844-1.64746-1.64844-3.22021c0-2.19678,1.52344-4.04395,4.16895-4.04395
		c1.02344,0,1.84766,0.27441,2.54688,0.74854l3.44434-0.19971v1.77246l-2.2959-0.1499
		c0.24902,0.49951,0.42383,1.04883,0.42383,1.72266c0,2.54639-1.57227,4.11914-4.29395,4.11914
		c-0.39941,0-0.82324-0.0498-1.02344-0.125c-0.34961,0.1001-0.59863,0.74902-0.59863,1.07324
		c0,0.64941,0.34961,1.12354,1.14844,1.12354h3.51953c1.69727,0,2.9209,0.59912,2.9209,2.54639
		c0,2.8457-3.14551,5.26709-7.04004,5.26709c-1.69727,0-2.8457-1.07324-2.8457-2.646c0-1.07324,0.59961-2.27148,1.39844-2.99561
		V52.62891z M302.68945,52.62891h-3.02051c-0.92383,0.2998-1.34766,0.97363-1.34766,2.12207
		c0,1.42285,0.89844,2.27148,2.8457,2.27148c1.82227,0,3.86914-1.02344,3.86914-2.87061
		C305.03613,53.05371,304.16211,52.62891,302.68945,52.62891z M300.69238,41.64502c-1.19824,0-2.02148,1.14844-2.02148,3.0459
		c0,2.12158,0.84863,3.19531,2.02148,3.19531c1.32324,0,2.19727-1.14844,2.19727-3.27051
		C302.88965,43.14307,302.11523,41.64502,300.69238,41.64502z"/>
</g>
<g>
	<path style="&st0;" d="M49.83398,86.38574v-0.87354l2.24707-0.37451V70.00977l-2.24707-0.37451v-0.87354h7.28955
		c2.04688,0,5.71631,0.92334,5.71631,4.36865c0,1.29785-0.74854,3.09521-3.02051,3.66943v0.34961
		c2.17188,0.44922,3.71973,2.12158,3.71973,4.54297c0,2.82129-2.57129,4.69336-6.49023,4.69336H49.83398z M54.47754,76.5h2.47119
		c2.39648,0,3.29541-1.62256,3.29541-3.14502c0-2.49658-1.59766-3.34521-3.44531-3.34521h-2.32129V76.5z M56.89893,77.72363
		h-2.42139v7.41406h2.92041c2.37158,0,3.59473-1.62256,3.59473-3.66992C60.99268,79.49609,59.64453,77.72363,56.89893,77.72363z"/>
	<path style="&st0;" d="M67.60352,83.49023c0.84863,0,1.54785,0.69873,1.54785,1.54736c0,0.84912-0.69922,1.52295-1.54785,1.52295
		s-1.52295-0.67383-1.52295-1.52295C66.08057,84.18896,66.75488,83.49023,67.60352,83.49023z"/>
</g>
<g>
	<path style="&st0;" d="M128.24854,80.21973h-5.91602l-1.62256,4.91797l2.32129,0.37451v0.87354h-5.44189v-0.87354l1.82227-0.37451
		l5.6416-16.37598h1.42285l5.8418,16.37598l1.94678,0.37451v0.87354h-6.44043v-0.87354l2.17188-0.37451L128.24854,80.21973z
		 M122.75684,78.99658h5.04248l-2.39648-6.76514h-0.39941L122.75684,78.99658z"/>
	<path style="&st0;" d="M141.99854,86.38574v-0.74902l1.49756-0.37451v-6.14062c0-2.17188-0.84863-2.896-2.32129-2.896
		c-0.99854,0-1.89746,0.47461-2.39648,0.92383v8.11279l1.49756,0.37451v0.74902h-5.01758v-0.74902l1.49805-0.37451v-8.36279
		l-1.62256-0.69873v-0.52441l2.97021-1.04834h0.59912l0.1499,1.24805l0.19971,0.1499
		c1.17334-0.87354,2.12207-1.39795,3.19531-1.39795c1.74756,0,3.27051,1.17334,3.27051,3.81934v6.81494l1.49756,0.37451v0.74902
		H141.99854z"/>
	<path style="&st0;" d="M153.80225,74.62793c2.92041,0,5.29199,2.27148,5.29199,6.04102c0,3.99414-2.37158,6.0166-5.29199,6.0166
		c-2.9209,0-5.31738-2.14697-5.31738-6.0166C148.48486,76.94971,150.88135,74.62793,153.80225,74.62793z M153.80225,85.63672
		c1.57275,0,2.9707-0.99854,2.9707-4.99268c0-3.69434-1.39795-4.96777-2.9707-4.96777s-2.9707,1.32324-2.9707,4.96777
		C150.83154,84.23877,152.22949,85.63672,153.80225,85.63672z"/>
	<path style="&st0;" d="M160.48877,76.25049v-0.92334l1.44775-0.89893l1.32324-2.29639h0.77344v2.8208h3.27051v1.29785h-3.27051
		v7.43896c0,1.12354,0.52441,1.64795,1.34814,1.64795c0.52441,0,1.27344-0.125,1.92236-0.49951l0.32422,0.64941
		c-0.47412,0.47412-1.59766,1.19824-3.04541,1.19824c-1.82227,0-2.57129-1.07373-2.57129-3.0708v-7.36426H160.48877z"/>
	<path style="&st0;" d="M175.28955,86.38574v-0.74902l1.49756-0.37451v-6.01611c0-2.17188-0.84863-3.02051-2.32129-3.02051
		c-0.99854,0-1.89746,0.47461-2.39648,0.92383v8.11279l1.49756,0.37451v0.74902h-5.01758v-0.74902l1.49805-0.37451V70.35938
		l-1.62256-0.72412v-0.52393l3.04541-1.04883h0.59912v7.81348l0.19971,0.1499c1.14795-0.87354,2.19678-1.39795,3.27002-1.39795
		c1.74756,0,3.27051,1.17334,3.27051,3.81934v6.81494l1.49756,0.37451v0.74902H175.28955z"/>
	<path style="&st0;" d="M183.82324,79.4707c-0.02539,0.22461-0.02539,0.47461-0.02539,0.69922
		c0,3.17041,1.72266,4.74316,3.54492,4.74316c1.32324,0,2.42139-0.59912,3.32031-2.04736l0.69873,0.47461
		c-0.74854,1.44775-2.12158,3.34521-4.61816,3.34521c-3.04541,0-4.96777-2.9209-4.96777-5.9165
		c0-3.41992,2.02197-6.14111,4.89307-6.14111c2.7959,0,4.44336,2.37158,4.44336,4.04395c0,0.47461-0.0249,0.79883-0.27441,0.79883
		H183.82324z M183.94775,78.47217h4.59326c0.1001-0.27441,0.125-0.64893,0.125-0.89844c0-1.19824-0.84863-1.92236-2.02197-1.92236
		C185.09619,75.65137,184.27246,76.89941,183.94775,78.47217z"/>
	<path style="&st0;" d="M198.19922,76.10059c-0.64941,0.4248-1.62305,1.62305-1.94727,2.34668v6.81494l1.97217,0.37451v0.74902
		h-5.49219v-0.74902l1.49805-0.37451v-8.36279l-1.62256-0.69873v-0.52441l2.99512-1.04834h0.57422l0.1748,1.77246L196.57617,76.5
		c1.04883-1.19824,1.84766-1.87207,2.84619-1.87207c0.82373,0,1.49756,0.57422,1.49756,1.57275
		c0,0.87354-0.47412,1.49756-1.27295,1.49756c-0.69922,0-1.17334-0.49902-1.17334-1.37256L198.19922,76.10059z"/>
	<path style="&st0;" d="M207.75488,82.64111h0.82373c0.39941,1.84717,1.32324,3.14551,2.87061,3.14551
		c1.09863,0,1.84766-0.92383,1.84766-1.84717c0-1.02344-0.44971-1.59766-2.64648-2.57129
		c-1.99707-0.84863-2.89551-1.87207-2.89551-3.56982c0-1.44775,1.04834-3.17041,3.39502-3.17041
		c1.07324,0,1.89697,0.2998,2.39648,0.49951l0.62402-0.2998h0.54932v3.56982h-0.72412c-0.57422-2.04688-1.82227-2.8208-2.771-2.8208
		c-1.04834,0-1.89697,0.72412-1.89697,1.74756s0.89844,1.54736,2.62109,2.34619c1.92236,0.87402,3.24512,1.77246,3.24512,3.61963
		c0,2.22217-1.77246,3.39551-3.79443,3.39551c-1.04834,0-2.17188-0.44971-2.57129-0.62451l-0.37451,0.32471h-0.69873V82.64111z"/>
	<path style="&st0;" d="M219.13574,79.4707c-0.02539,0.22461-0.02539,0.47461-0.02539,0.69922
		c0,3.17041,1.72266,4.74316,3.54492,4.74316c1.32324,0,2.42139-0.59912,3.32031-2.04736l0.69873,0.47461
		c-0.74854,1.44775-2.12158,3.34521-4.61816,3.34521c-3.04541,0-4.96777-2.9209-4.96777-5.9165
		c0-3.41992,2.02197-6.14111,4.89307-6.14111c2.7959,0,4.44336,2.37158,4.44336,4.04395c0,0.47461-0.0249,0.79883-0.27441,0.79883
		H219.13574z M219.26025,78.47217h4.59326c0.1001-0.27441,0.125-0.64893,0.125-0.89844c0-1.19824-0.84863-1.92236-2.02197-1.92236
		C220.40869,75.65137,219.58496,76.89941,219.26025,78.47217z"/>
	<path style="&st0;" d="M230.44043,80.29492c0,3.29492,1.54785,4.51807,3.49512,4.51807c1.37305,0,2.49609-0.94873,3.0957-1.99707
		l0.77344,0.37451c-0.79883,2.02197-2.34668,3.49512-4.51855,3.49512c-3.04492,0-5.01758-2.72119-5.01758-5.94141
		c0-3.39502,2.24707-6.11621,5.44238-6.11621c2.39648,0,3.76953,1.17334,3.76953,2.49658c0,0.67383-0.3252,1.04834-1.19824,1.04834
		c-1.59766,0-0.92383-2.59619-2.87109-2.59619C231.98828,75.57666,230.44043,77.42383,230.44043,80.29492z"/>
	<path style="&st0;" d="M244.5918,74.62793c2.9209,0,5.29199,2.27148,5.29199,6.04102c0,3.99414-2.37109,6.0166-5.29199,6.0166
		s-5.31738-2.14697-5.31738-6.0166C239.27441,76.94971,241.6709,74.62793,244.5918,74.62793z M244.5918,85.63672
		c1.57227,0,2.9707-0.99854,2.9707-4.99268c0-3.69434-1.39844-4.96777-2.9707-4.96777c-1.57324,0-2.9707,1.32324-2.9707,4.96777
		C241.62109,84.23877,243.01855,85.63672,244.5918,85.63672z"/>
	<path style="&st0;" d="M258.09277,86.38574v-0.74902l1.49805-0.37451v-6.14062c0-2.17188-0.84863-2.896-2.32227-2.896
		c-0.99805,0-1.89648,0.47461-2.39648,0.92383v8.11279l1.49805,0.37451v0.74902h-5.01758v-0.74902l1.49805-0.37451v-8.36279
		l-1.62305-0.69873v-0.52441l2.9707-1.04834h0.59961l0.14941,1.24805l0.2002,0.1499
		c1.17285-0.87354,2.12109-1.39795,3.19531-1.39795c1.74707,0,3.26953,1.17334,3.26953,3.81934v6.81494l1.49805,0.37451v0.74902
		H258.09277z"/>
	<path style="&st0;" d="M274.61426,84.56348l1.44824,0.69873v0.67432l-2.32129,0.74902h-0.59961l-0.62402-1.17334h-0.22461
		c-1.14844,0.84863-2.22168,1.17334-3.49512,1.17334c-1.69727,0-4.21875-1.69775-4.21875-5.7168
		c0-3.94434,2.6709-6.34082,5.36719-6.34082c1.12305,0,2.04688,0.22461,2.64648,0.39941v-4.66797l-1.69824-0.72412v-0.52393
		l3.12109-1.04883h0.59863V84.56348z M272.59277,76.9248c-0.5-0.69922-1.47266-1.24854-2.49707-1.24854
		c-1.34766,0-3.41992,1.22314-3.41992,4.69336c0,3.12061,1.82227,4.76807,3.27051,4.76807
		c1.09863,0,2.09668-0.62402,2.64648-1.12354V76.9248z"/>
	<path style="&st0;" d="M283.09863,85.0376h-0.25c-1.04883,1.09863-1.84766,1.64795-2.87109,1.64795
		c-1.27246,0-2.27148-1.82275-2.27148-2.9458c0-1.09863,0.59961-2.19678,1.97266-2.771l3.51953-1.52295v-1.04834
		c0-1.64746-0.69922-2.37158-1.92188-2.37158c-0.5498,0-1.37305,0.34961-1.67285,0.79883
		c0.02441,0.2998,0.14941,0.92383,0.14941,1.42285c0,0.64893-0.52441,0.97363-1.09863,0.97363
		c-0.52344,0-0.97363-0.49902-0.97363-1.22314c0-0.54932,0.1748-1.04834,0.69922-1.49805
		c0.89844-0.62402,2.9209-1.87207,3.91992-1.87207c1.79688,0,2.74512,1.24805,2.74512,2.99561v6.36572
		c0,0.54932,0.10059,1.07324,0.64941,1.07324c0.4248,0,0.79883-0.49902,0.97363-0.92334l0.49902,0.19971
		c-0.59863,1.74707-1.77246,2.27148-2.52148,2.27148C283.82227,86.61035,283.17285,86.06104,283.09863,85.0376z M283.22266,80.44434
		l-2.14648,0.97363c-0.54883,0.22461-1.39746,0.89893-1.39746,1.87207c0,0.92383,0.54883,1.72266,1.27246,1.72266
		c0.94922,0,2.27148-0.89844,2.27148-2.07178V80.44434z"/>
	<path style="&st0;" d="M293.53027,76.10059c-0.64844,0.4248-1.62207,1.62305-1.94727,2.34668v6.81494l1.97266,0.37451v0.74902
		h-5.49219v-0.74902l1.49805-0.37451v-8.36279l-1.62305-0.69873v-0.52441l2.99609-1.04834h0.57422l0.1748,1.77246L291.9082,76.5
		c1.04785-1.19824,1.84668-1.87207,2.8457-1.87207c0.82324,0,1.49805,0.57422,1.49805,1.57275
		c0,0.87354-0.47461,1.49756-1.27344,1.49756c-0.69922,0-1.17383-0.49902-1.17383-1.37256L293.53027,76.10059z"/>
	<path style="&st0;" d="M301.93945,74.95264v0.74854l-1.47266,0.37451l2.57129,7.21436h0.24902l2.44727-7.21436l-1.82324-0.37451
		v-0.74854h4.36914v0.74854l-1.54785,0.37451l-4.19336,12.58154c-0.92383,2.84619-2.04785,3.96924-3.91992,3.96924
		c-1.09863,0-1.64746-0.59912-1.64746-1.29785c0-0.54932,0.49902-1.04834,1.14844-1.04834
		c0.69922,0,0.94824,0.57373,1.74707,0.57373c0.97363,0,1.72266-1.37256,2.37207-4.14355l-3.84473-10.63477l-1.22266-0.37451
		v-0.74854H301.93945z"/>
	<path style="&st0;" d="M321.38086,86.38574v-0.74902l1.49805-0.37451v-6.01611c0-2.17188-0.84863-3.02051-2.32227-3.02051
		c-0.99805,0-1.89648,0.47461-2.39648,0.92383v8.11279l1.49805,0.37451v0.74902h-5.01758v-0.74902l1.49805-0.37451V70.35938
		l-1.62305-0.72412v-0.52393l3.0459-1.04883h0.59863v7.81348l0.2002,0.1499c1.14844-0.87354,2.19629-1.39795,3.27051-1.39795
		c1.74707,0,3.26953,1.17334,3.26953,3.81934v6.81494l1.49805,0.37451v0.74902H321.38086z"/>
	<path style="&st0;" d="M329.91406,79.4707c-0.02441,0.22461-0.02441,0.47461-0.02441,0.69922
		c0,3.17041,1.72266,4.74316,3.54492,4.74316c1.32227,0,2.4209-0.59912,3.31934-2.04736l0.69922,0.47461
		c-0.74902,1.44775-2.12207,3.34521-4.61816,3.34521c-3.0459,0-4.96777-2.9209-4.96777-5.9165
		c0-3.41992,2.02246-6.14111,4.89258-6.14111c2.7959,0,4.44434,2.37158,4.44434,4.04395c0,0.47461-0.02539,0.79883-0.27539,0.79883
		H329.91406z M330.03906,78.47217h4.59375c0.09961-0.27441,0.12402-0.64893,0.12402-0.89844
		c0-1.19824-0.84863-1.92236-2.02148-1.92236C331.1875,75.65137,330.36328,76.89941,330.03906,78.47217z"/>
	<path style="&st0;" d="M344.61523,85.0376h-0.25c-1.04883,1.09863-1.84766,1.64795-2.87109,1.64795
		c-1.27246,0-2.27148-1.82275-2.27148-2.9458c0-1.09863,0.59961-2.19678,1.97168-2.771l3.52051-1.52295v-1.04834
		c0-1.64746-0.69922-2.37158-1.92285-2.37158c-0.54883,0-1.37207,0.34961-1.67188,0.79883
		c0.02441,0.2998,0.14941,0.92383,0.14941,1.42285c0,0.64893-0.52441,0.97363-1.09863,0.97363
		c-0.52344,0-0.97266-0.49902-0.97266-1.22314c0-0.54932,0.17383-1.04834,0.69824-1.49805
		c0.89941-0.62402,2.9209-1.87207,3.91992-1.87207c1.79688,0,2.74512,1.24805,2.74512,2.99561v6.36572
		c0,0.54932,0.10059,1.07324,0.64941,1.07324c0.4248,0,0.79883-0.49902,0.97363-0.92334l0.49902,0.19971
		c-0.59863,1.74707-1.77246,2.27148-2.52148,2.27148C345.33887,86.61035,344.68945,86.06104,344.61523,85.0376z M344.73926,80.44434
		l-2.14648,0.97363c-0.54883,0.22461-1.39844,0.89893-1.39844,1.87207c0,0.92383,0.5498,1.72266,1.27344,1.72266
		c0.94922,0,2.27148-0.89844,2.27148-2.07178V80.44434z"/>
	<path style="&st0;" d="M359.61426,84.56348l1.44824,0.69873v0.67432l-2.32129,0.74902h-0.59961l-0.62402-1.17334h-0.22461
		c-1.14844,0.84863-2.22168,1.17334-3.49512,1.17334c-1.69727,0-4.21875-1.69775-4.21875-5.7168
		c0-3.94434,2.6709-6.34082,5.36719-6.34082c1.12305,0,2.04688,0.22461,2.64648,0.39941v-4.66797l-1.69824-0.72412v-0.52393
		l3.12109-1.04883h0.59863V84.56348z M357.59277,76.9248c-0.5-0.69922-1.47266-1.24854-2.49707-1.24854
		c-1.34766,0-3.41992,1.22314-3.41992,4.69336c0,3.12061,1.82227,4.76807,3.27051,4.76807
		c1.09863,0,2.09668-0.62402,2.64648-1.12354V76.9248z"/>
	<path style="&st0;" d="M365.87598,85.26221l1.49805,0.37451v0.74902h-5.01758v-0.74902l1.49805-0.37451v-8.36279l-1.62305-0.69873
		v-0.52441l3.0459-1.04834h0.59863V85.26221z M364.85254,68.26221c0.79883,0,1.49805,0.69922,1.49805,1.49805
		c0,0.77393-0.69922,1.47266-1.49805,1.47266c-0.77344,0-1.47266-0.69873-1.47266-1.47266
		C363.37988,68.96143,364.0791,68.26221,364.85254,68.26221z"/>
	<path style="&st0;" d="M375.41016,86.38574v-0.74902l1.49805-0.37451v-6.14062c0-2.17188-0.84863-2.896-2.32227-2.896
		c-0.99805,0-1.89648,0.47461-2.39648,0.92383v8.11279l1.49805,0.37451v0.74902h-5.01758v-0.74902l1.49805-0.37451v-8.36279
		l-1.62305-0.69873v-0.52441l2.9707-1.04834h0.59961l0.14941,1.24805l0.2002,0.1499
		c1.17285-0.87354,2.12109-1.39795,3.19531-1.39795c1.74707,0,3.26953,1.17334,3.26953,3.81934v6.81494l1.49805,0.37451v0.74902
		H375.41016z"/>
	<path style="&st0;" d="M383.4707,86.66016c-0.64941-0.57422-1.17383-1.22314-0.79883-2.07178l0.97363-2.17188v-0.42432
		c-0.92383-0.62402-1.64844-1.64746-1.64844-3.22021c0-2.19678,1.52344-4.04395,4.16895-4.04395
		c1.02344,0,1.84766,0.27441,2.54688,0.74854l3.44434-0.19971v1.77246l-2.2959-0.1499
		c0.24902,0.49951,0.42383,1.04883,0.42383,1.72266c0,2.54639-1.57227,4.11914-4.29395,4.11914
		c-0.39941,0-0.82324-0.0498-1.02344-0.125c-0.34961,0.1001-0.59863,0.74902-0.59863,1.07324
		c0,0.64941,0.34961,1.12354,1.14844,1.12354h3.51953c1.69727,0,2.9209,0.59912,2.9209,2.54639
		c0,2.8457-3.14551,5.26709-7.04004,5.26709c-1.69727,0-2.8457-1.07324-2.8457-2.646c0-1.07324,0.59961-2.27148,1.39844-2.99561
		V86.66016z M388.11328,86.66016h-3.02051c-0.92383,0.2998-1.34766,0.97363-1.34766,2.12207
		c0,1.42285,0.89844,2.27148,2.8457,2.27148c1.82227,0,3.86914-1.02344,3.86914-2.87061
		C390.45996,87.08496,389.58594,86.66016,388.11328,86.66016z M386.11621,75.67627c-1.19824,0-2.02148,1.14844-2.02148,3.0459
		c0,2.12158,0.84863,3.19531,2.02148,3.19531c1.32324,0,2.19727-1.14844,2.19727-3.27051
		C388.31348,77.17432,387.53906,75.67627,386.11621,75.67627z"/>
</g>
<g>
	<path style="&st0;" d="M118.41309,105.83838c1.54785-0.0249,2.9458-0.47412,4.16895-1.24805l1.12305,0.12451v14.4541l2.62158,0.375
		v0.87305h-7.33936v-0.87305l2.62109-0.375v-12.65674c-1.17334,0.2749-2.39648,0.32471-3.19531,0.125V105.83838z"/>
	<path style="&st0;" d="M130.51758,117.52148c0.84863,0,1.54785,0.69824,1.54785,1.54785c0,0.84863-0.69922,1.52246-1.54785,1.52246
		s-1.52295-0.67383-1.52295-1.52246C128.99463,118.21973,129.66895,117.52148,130.51758,117.52148z"/>
</g>
<g>
	<path style="&st0;" d="M215.22266,102.79297l1.14844,4.79297h-0.97363l-2.52148-3.71973h-3.89453v15.30273l2.34668,0.375v0.87305
		h-7.08936v-0.87305l2.34619-0.375v-15.30273h-3.89404l-2.52148,3.71973h-0.97314l1.14795-4.79297H215.22266z"/>
	<path style="&st0;" d="M217.33984,113.50195c-0.02539,0.22461-0.02539,0.47461-0.02539,0.69922
		c0,3.1709,1.72266,4.74316,3.54492,4.74316c1.32324,0,2.42139-0.59961,3.32031-2.04688l0.69873,0.47461
		c-0.74854,1.44727-2.12158,3.34473-4.61816,3.34473c-3.04541,0-4.96777-2.9209-4.96777-5.91699
		c0-3.41943,2.02197-6.14062,4.89307-6.14062c2.7959,0,4.44336,2.37158,4.44336,4.04395c0,0.47461-0.0249,0.79883-0.27441,0.79883
		H217.33984z M217.46436,112.50342h4.59326c0.1001-0.27441,0.125-0.64893,0.125-0.89844c0-1.19824-0.84863-1.92236-2.02197-1.92236
		C218.61279,109.68262,217.78906,110.93066,217.46436,112.50342z"/>
	<path style="&st0;" d="M231.71582,110.13184c-0.64941,0.4248-1.62305,1.62305-1.94727,2.34668v6.81543l1.97168,0.37402v0.74902
		h-5.4917v-0.74902l1.49756-0.37402v-8.36328l-1.62207-0.69873v-0.52441l2.99512-1.04834h0.57422l0.1748,1.77246l0.22461,0.09961
		c1.04883-1.19824,1.84766-1.87207,2.8457-1.87207c0.82422,0,1.49805,0.57422,1.49805,1.57275
		c0,0.87354-0.47461,1.49756-1.27344,1.49756c-0.69824,0-1.17285-0.49902-1.17285-1.37256L231.71582,110.13184z"/>
	<path style="&st0;" d="M235.28223,110.28174v-0.92334l1.44824-0.89893l1.32324-2.29639h0.77344v2.8208h3.27051v1.29785h-3.27051
		v7.43896c0,1.12402,0.52441,1.64746,1.34863,1.64746c0.52344,0,1.27246-0.125,1.92188-0.49902l0.32422,0.64941
		c-0.47363,0.47461-1.59766,1.19824-3.04492,1.19824c-1.82227,0-2.57129-1.07324-2.57129-3.07129v-7.36377H235.28223z"/>
	<path style="&st0;" d="M246.91309,119.29395l1.49707,0.37402v0.74902h-5.01758v-0.74902l1.49805-0.37402v-8.36328l-1.62305-0.69873
		v-0.52441l3.0459-1.04834h0.59961V119.29395z M245.88867,102.29346c0.79883,0,1.49805,0.69922,1.49805,1.49805
		c0,0.77393-0.69922,1.47266-1.49805,1.47266c-0.77344,0-1.47266-0.69873-1.47266-1.47266
		C244.41602,102.99268,245.11523,102.29346,245.88867,102.29346z"/>
	<path style="&st0;" d="M255.49805,119.06934h-0.25c-1.04883,1.09766-1.84766,1.64746-2.87109,1.64746
		c-1.27246,0-2.27148-1.82324-2.27148-2.94629c0-1.09766,0.59961-2.19629,1.97168-2.77051l3.52051-1.52295v-1.04834
		c0-1.64746-0.69922-2.37158-1.92285-2.37158c-0.54883,0-1.37207,0.34961-1.67188,0.79883
		c0.02441,0.2998,0.14941,0.92383,0.14941,1.42285c0,0.64893-0.52441,0.97363-1.09863,0.97363
		c-0.52344,0-0.97266-0.49902-0.97266-1.22314c0-0.54932,0.17383-1.04834,0.69824-1.49805
		c0.89941-0.62402,2.9209-1.87207,3.91992-1.87207c1.79688,0,2.74512,1.24805,2.74512,2.99561v6.36572
		c0,0.54883,0.10059,1.07324,0.64941,1.07324c0.4248,0,0.79883-0.49902,0.97363-0.92285l0.49902,0.19922
		c-0.59863,1.74707-1.77246,2.27148-2.52148,2.27148C256.22168,120.6416,255.57227,120.09277,255.49805,119.06934z
		 M255.62207,114.47559l-2.14648,0.97363c-0.54883,0.22461-1.39844,0.89941-1.39844,1.87207
		c0,0.92383,0.5498,1.72266,1.27344,1.72266c0.94922,0,2.27148-0.89844,2.27148-2.07227V114.47559z"/>
	<path style="&st0;" d="M265.92969,110.13184c-0.64844,0.4248-1.62207,1.62305-1.94727,2.34668v6.81543l1.97266,0.37402v0.74902
		h-5.49219v-0.74902l1.49805-0.37402v-8.36328l-1.62305-0.69873v-0.52441l2.99609-1.04834h0.57422l0.1748,1.77246l0.22461,0.09961
		c1.04785-1.19824,1.84668-1.87207,2.8457-1.87207c0.82324,0,1.49805,0.57422,1.49805,1.57275
		c0,0.87354-0.47461,1.49756-1.27344,1.49756c-0.69922,0-1.17383-0.49902-1.17383-1.37256L265.92969,110.13184z"/>
	<path style="&st0;" d="M274.33887,108.98389v0.74854l-1.47266,0.37451l2.57129,7.21436h0.24902l2.44727-7.21436l-1.82227-0.37451
		v-0.74854h4.36816v0.74854l-1.54785,0.37451l-4.19336,12.58154c-0.92383,2.8457-2.04785,3.96875-3.91992,3.96875
		c-1.09766,0-1.64746-0.59863-1.64746-1.29688c0-0.5498,0.49902-1.04883,1.14844-1.04883c0.69922,0,0.94824,0.57422,1.74707,0.57422
		c0.97363,0,1.72266-1.37305,2.37207-4.14453l-3.84473-10.63428l-1.22266-0.37451v-0.74854H274.33887z"/>
	<path style="&st0;" d="M293.78027,120.41699v-0.74902l1.49805-0.37402v-6.0166c0-2.17188-0.84863-3.02051-2.32227-3.02051
		c-0.99805,0-1.89648,0.47461-2.39648,0.92383v8.11328l1.49805,0.37402v0.74902h-5.01758v-0.74902l1.49805-0.37402v-14.90332
		l-1.62305-0.72412v-0.52393l3.0459-1.04883h0.59863v7.81348l0.2002,0.1499c1.14844-0.87354,2.19629-1.39795,3.27051-1.39795
		c1.74707,0,3.26953,1.17334,3.26953,3.81934v6.81543l1.49805,0.37402v0.74902H293.78027z"/>
	<path style="&st0;" d="M302.31348,113.50195c-0.02441,0.22461-0.02441,0.47461-0.02441,0.69922
		c0,3.1709,1.72168,4.74316,3.54492,4.74316c1.32227,0,2.4209-0.59961,3.31934-2.04688l0.69922,0.47461
		c-0.74902,1.44727-2.12207,3.34473-4.61816,3.34473c-3.0459,0-4.96777-2.9209-4.96777-5.91699
		c0-3.41943,2.02246-6.14062,4.89258-6.14062c2.7959,0,4.44336,2.37158,4.44336,4.04395c0,0.47461-0.02441,0.79883-0.27441,0.79883
		H302.31348z M302.43848,112.50342h4.59375c0.09961-0.27441,0.12402-0.64893,0.12402-0.89844
		c0-1.19824-0.84863-1.92236-2.02148-1.92236C303.58691,109.68262,302.7627,110.93066,302.43848,112.50342z"/>
	<path style="&st0;" d="M317.01465,119.06934h-0.25c-1.04883,1.09766-1.84766,1.64746-2.87109,1.64746
		c-1.27246,0-2.27148-1.82324-2.27148-2.94629c0-1.09766,0.59961-2.19629,1.97266-2.77051l3.51953-1.52295v-1.04834
		c0-1.64746-0.69922-2.37158-1.92188-2.37158c-0.5498,0-1.37305,0.34961-1.67285,0.79883
		c0.02441,0.2998,0.14941,0.92383,0.14941,1.42285c0,0.64893-0.52441,0.97363-1.09863,0.97363
		c-0.52344,0-0.97363-0.49902-0.97363-1.22314c0-0.54932,0.1748-1.04834,0.69922-1.49805
		c0.89844-0.62402,2.9209-1.87207,3.91992-1.87207c1.79688,0,2.74512,1.24805,2.74512,2.99561v6.36572
		c0,0.54883,0.10059,1.07324,0.64941,1.07324c0.4248,0,0.79883-0.49902,0.97363-0.92285l0.49902,0.19922
		c-0.59863,1.74707-1.77246,2.27148-2.52148,2.27148C317.73828,120.6416,317.08887,120.09277,317.01465,119.06934z
		 M317.13867,114.47559l-2.14648,0.97363c-0.54883,0.22461-1.39746,0.89941-1.39746,1.87207
		c0,0.92383,0.54883,1.72266,1.27246,1.72266c0.94922,0,2.27148-0.89844,2.27148-2.07227V114.47559z"/>
	<path style="&st0;" d="M331.98828,118.59473l1.44824,0.69922v0.67383l-2.32129,0.74902h-0.59961l-0.62402-1.17285h-0.22461
		c-1.14844,0.84766-2.22168,1.17285-3.49512,1.17285c-1.69727,0-4.21875-1.69824-4.21875-5.7168
		c0-3.94434,2.6709-6.34082,5.36719-6.34082c1.12305,0,2.04688,0.22461,2.64648,0.39941v-4.66797l-1.69824-0.72412v-0.52393
		l3.12109-1.04883h0.59863V118.59473z M329.9668,110.95605c-0.5-0.69922-1.47363-1.24854-2.49707-1.24854
		c-1.34766,0-3.41992,1.22314-3.41992,4.69385c0,3.12012,1.82227,4.76758,3.27051,4.76758
		c1.09863,0,2.09668-0.62402,2.64648-1.12305V110.95605z"/>
	<path style="&st0;" d="M338.25098,119.29395l1.49707,0.37402v0.74902h-5.01758v-0.74902l1.49805-0.37402v-8.36328l-1.62305-0.69873
		v-0.52441l3.0459-1.04834h0.59961V119.29395z M337.22656,102.29346c0.79883,0,1.49805,0.69922,1.49805,1.49805
		c0,0.77393-0.69922,1.47266-1.49805,1.47266c-0.77344,0-1.47266-0.69873-1.47266-1.47266
		C335.75391,102.99268,336.45312,102.29346,337.22656,102.29346z"/>
	<path style="&st0;" d="M347.78516,120.41699v-0.74902l1.49805-0.37402v-6.14111c0-2.17188-0.84863-2.896-2.32227-2.896
		c-0.99805,0-1.89648,0.47461-2.39648,0.92383v8.11328l1.49805,0.37402v0.74902h-5.01758v-0.74902l1.49805-0.37402v-8.36328
		l-1.62305-0.69873v-0.52441l2.9707-1.04834h0.59961l0.14941,1.24805l0.2002,0.1499
		c1.17285-0.87354,2.12109-1.39795,3.19531-1.39795c1.74707,0,3.26953,1.17334,3.26953,3.81934v6.81543l1.49805,0.37402v0.74902
		H347.78516z"/>
	<path style="&st0;" d="M355.84473,120.69141c-0.64941-0.57422-1.17383-1.22363-0.79883-2.07129l0.97266-2.17188v-0.4248
		c-0.92285-0.62402-1.64746-1.64746-1.64746-3.22021c0-2.19678,1.52344-4.04395,4.16895-4.04395
		c1.02344,0,1.84766,0.27441,2.54688,0.74854l3.44434-0.19971v1.77246l-2.2959-0.1499
		c0.24902,0.49951,0.42383,1.04883,0.42383,1.72266c0,2.54688-1.57227,4.11914-4.29395,4.11914
		c-0.39941,0-0.82324-0.0498-1.02344-0.125c-0.34961,0.09961-0.59863,0.74902-0.59863,1.07324
		c0,0.64941,0.34961,1.12402,1.14844,1.12402h3.51953c1.69727,0,2.9209,0.59863,2.9209,2.5459
		c0,2.8457-3.14551,5.2666-7.04004,5.2666c-1.69727,0-2.8457-1.07227-2.8457-2.64551c0-1.07324,0.59961-2.27148,1.39844-2.99512
		V120.69141z M360.4873,120.69141h-3.02051c-0.92383,0.2998-1.34766,0.97363-1.34766,2.12207
		c0,1.42285,0.89844,2.27148,2.8457,2.27148c1.82227,0,3.86914-1.02344,3.86914-2.87109
		C362.83398,121.11621,361.95996,120.69141,360.4873,120.69141z M358.49023,109.70752c-1.19824,0-2.02148,1.14844-2.02148,3.0459
		c0,2.12158,0.84863,3.19482,2.02148,3.19482c1.32324,0,2.19727-1.14844,2.19727-3.27002
		C360.6875,111.20557,359.91309,109.70752,358.49023,109.70752z"/>
</g>
<g>
	<path style="&st0;" d="M123.40576,140.29395c-1.39795,0-2.646,1.12305-3.86914,2.62109l-0.74902-0.79883
		c0.92334-1.42285,2.87061-3.59473,5.39209-3.59473c2.54639,0,3.86914,1.64746,3.86914,3.62012
		c0,2.94531-4.39355,7.9375-6.66504,9.95996l0.1499,0.34961h5.5918l1.12305-1.69727l0.82373,0.32422l-1.39795,3.37012h-9.26123
		l-0.2998-0.79883c2.59668-2.07227,7.58887-7.21484,7.58887-10.85938C125.70215,141.46777,124.85352,140.29395,123.40576,140.29395z
		"/>
	<path style="&st0;" d="M132.93799,151.55273c0.84863,0,1.54736,0.69824,1.54736,1.54785c0,0.84863-0.69873,1.52246-1.54736,1.52246
		c-0.84912,0-1.52295-0.67383-1.52295-1.52246C131.41504,152.25098,132.08887,151.55273,132.93799,151.55273z"/>
</g>
<g>
	<path style="&st0;" d="M209.93018,148.28223h-5.91602l-1.62256,4.91797l2.32129,0.375v0.87305H199.271v-0.87305l1.82227-0.375
		l5.6416-16.37598h1.42285l5.8418,16.37598l1.94678,0.375v0.87305h-6.44043v-0.87305l2.17188-0.375L209.93018,148.28223z
		 M204.43848,147.05957h5.04248l-2.39648-6.76562h-0.39941L204.43848,147.05957z"/>
	<path style="&st0;" d="M223.68018,154.44824v-0.74902l1.49756-0.37402v-6.14062c0-2.17188-0.84863-2.89648-2.32129-2.89648
		c-0.99854,0-1.89746,0.47461-2.39648,0.92383v8.11328l1.49756,0.37402v0.74902h-5.01758v-0.74902l1.49805-0.37402v-8.36328
		l-1.62256-0.69922v-0.52344l2.97021-1.04883h0.59912l0.1499,1.24805l0.19971,0.15039
		c1.17334-0.87402,2.12207-1.39844,3.19531-1.39844c1.74756,0,3.27051,1.17383,3.27051,3.81934v6.81543l1.49805,0.37402v0.74902
		H223.68018z"/>
	<path style="&st0;" d="M235.48438,142.69043c2.9209,0,5.29199,2.27148,5.29199,6.04102c0,3.99414-2.37109,6.0166-5.29199,6.0166
		s-5.31738-2.14746-5.31738-6.0166C230.16699,145.0127,232.56348,142.69043,235.48438,142.69043z M235.48438,153.69922
		c1.57227,0,2.9707-0.99902,2.9707-4.99316c0-3.69336-1.39844-4.9668-2.9707-4.9668c-1.57324,0-2.9707,1.32227-2.9707,4.9668
		C232.51367,152.30176,233.91113,153.69922,235.48438,153.69922z"/>
	<path style="&st0;" d="M242.16992,144.31348v-0.92383l1.44824-0.89844l1.32324-2.29688h0.77344v2.82031h3.27051v1.29883h-3.27051
		v7.43848c0,1.12402,0.52441,1.64746,1.34863,1.64746c0.52344,0,1.27246-0.125,1.92188-0.49902l0.32422,0.64941
		c-0.47363,0.47461-1.59766,1.19824-3.04492,1.19824c-1.82227,0-2.57129-1.07324-2.57129-3.07129v-7.36328H242.16992z"/>
	<path style="&st0;" d="M256.97168,154.44824v-0.74902l1.49805-0.37402v-6.0166c0-2.17188-0.84863-3.02051-2.32227-3.02051
		c-0.99805,0-1.89648,0.47461-2.39648,0.92383v8.11328l1.49805,0.37402v0.74902h-5.01758v-0.74902l1.49805-0.37402v-14.90332
		l-1.62305-0.72363v-0.52441l3.0459-1.04883h0.59863v7.81348l0.2002,0.15039c1.14844-0.87402,2.19629-1.39844,3.27051-1.39844
		c1.74707,0,3.26953,1.17383,3.26953,3.81934v6.81543l1.49805,0.37402v0.74902H256.97168z"/>
	<path style="&st0;" d="M265.50488,147.5332c-0.02441,0.22461-0.02441,0.47461-0.02441,0.69922
		c0,3.1709,1.72168,4.74316,3.54492,4.74316c1.32227,0,2.4209-0.59961,3.31934-2.04688l0.69922,0.47461
		c-0.74902,1.44727-2.12207,3.34473-4.61816,3.34473c-3.0459,0-4.96777-2.9209-4.96777-5.91699
		c0-3.41992,2.02246-6.14062,4.89258-6.14062c2.7959,0,4.44336,2.37109,4.44336,4.04395c0,0.47461-0.02441,0.79883-0.27441,0.79883
		H265.50488z M265.62988,146.53418h4.59375c0.09961-0.27344,0.12402-0.64844,0.12402-0.89844
		c0-1.19727-0.84863-1.92188-2.02148-1.92188C266.77832,143.71387,265.9541,144.96191,265.62988,146.53418z"/>
	<path style="&st0;" d="M279.87988,144.16309c-0.64844,0.4248-1.62207,1.62305-1.94727,2.34668v6.81543l1.97266,0.37402v0.74902
		h-5.49219v-0.74902l1.49805-0.37402v-8.36328l-1.62305-0.69922v-0.52344l2.99609-1.04883h0.57422l0.1748,1.77246l0.22461,0.09961
		c1.04785-1.19824,1.84668-1.87207,2.8457-1.87207c0.82324,0,1.49805,0.57422,1.49805,1.57227
		c0,0.87402-0.47461,1.49805-1.27344,1.49805c-0.69922,0-1.17383-0.49902-1.17383-1.37305L279.87988,144.16309z"/>
	<path style="&st0;" d="M288.8125,144.31348v-0.92383l1.44824-0.89844l1.32324-2.29688h0.77344v2.82031h3.27051v1.29883h-3.27051
		v7.43848c0,1.12402,0.52441,1.64746,1.34863,1.64746c0.52344,0,1.27246-0.125,1.92188-0.49902l0.32422,0.64941
		c-0.47363,0.47461-1.59766,1.19824-3.04492,1.19824c-1.82227,0-2.57129-1.07324-2.57129-3.07129v-7.36328H288.8125z"/>
	<path style="&st0;" d="M298.79492,147.5332c-0.02441,0.22461-0.02441,0.47461-0.02441,0.69922
		c0,3.1709,1.72266,4.74316,3.54492,4.74316c1.32227,0,2.4209-0.59961,3.31934-2.04688l0.69922,0.47461
		c-0.74902,1.44727-2.12207,3.34473-4.61816,3.34473c-3.0459,0-4.96777-2.9209-4.96777-5.91699
		c0-3.41992,2.02246-6.14062,4.89258-6.14062c2.7959,0,4.44434,2.37109,4.44434,4.04395c0,0.47461-0.02539,0.79883-0.27539,0.79883
		H298.79492z M298.91992,146.53418h4.59375c0.09961-0.27344,0.12402-0.64844,0.12402-0.89844
		c0-1.19727-0.84863-1.92188-2.02148-1.92188C300.06836,143.71387,299.24414,144.96191,298.91992,146.53418z"/>
	<path style="&st0;" d="M313.1709,144.16309c-0.64844,0.4248-1.62207,1.62305-1.94727,2.34668v6.81543l1.97266,0.37402v0.74902
		h-5.49219v-0.74902l1.49805-0.37402v-8.36328l-1.62305-0.69922v-0.52344l2.99609-1.04883h0.57422l0.1748,1.77246l0.22461,0.09961
		c1.04785-1.19824,1.84668-1.87207,2.8457-1.87207c0.82324,0,1.49805,0.57422,1.49805,1.57227
		c0,0.87402-0.47461,1.49805-1.27344,1.49805c-0.69922,0-1.17383-0.49902-1.17383-1.37305L313.1709,144.16309z"/>
	<path style="&st0;" d="M316.7373,144.31348v-0.92383l1.44824-0.89844l1.32324-2.29688h0.77344v2.82031h3.27051v1.29883h-3.27051
		v7.43848c0,1.12402,0.52441,1.64746,1.34863,1.64746c0.52344,0,1.27246-0.125,1.92188-0.49902l0.32422,0.64941
		c-0.47363,0.47461-1.59766,1.19824-3.04492,1.19824c-1.82227,0-2.57129-1.07324-2.57129-3.07129v-7.36328H316.7373z"/>
	<path style="&st0;" d="M328.36816,153.3252l1.49805,0.37402v0.74902h-5.01758v-0.74902l1.49805-0.37402v-8.36328l-1.62305-0.69922
		v-0.52344l3.0459-1.04883h0.59863V153.3252z M327.34473,136.3252c0.79883,0,1.49805,0.69922,1.49805,1.49805
		c0,0.77344-0.69922,1.47266-1.49805,1.47266c-0.77344,0-1.47266-0.69922-1.47266-1.47266
		C325.87207,137.02441,326.57129,136.3252,327.34473,136.3252z"/>
	<path style="&st0;" d="M336.9541,153.10059h-0.25c-1.04883,1.09766-1.84766,1.64746-2.87109,1.64746
		c-1.27246,0-2.27148-1.82324-2.27148-2.94629c0-1.09766,0.59961-2.19629,1.97266-2.77051l3.51953-1.52246v-1.04883
		c0-1.64746-0.69922-2.37109-1.92188-2.37109c-0.5498,0-1.37305,0.34961-1.67285,0.79883
		c0.02441,0.29883,0.14941,0.92383,0.14941,1.42188c0,0.64941-0.52441,0.97461-1.09863,0.97461
		c-0.52344,0-0.97363-0.5-0.97363-1.22363c0-0.5498,0.1748-1.04785,0.69922-1.49805c0.89844-0.62402,2.9209-1.87207,3.91992-1.87207
		c1.79688,0,2.74512,1.24805,2.74512,2.99609v6.36523c0,0.54883,0.10059,1.07324,0.64941,1.07324
		c0.4248,0,0.79883-0.49902,0.97363-0.92285l0.49902,0.19922c-0.59863,1.74707-1.77246,2.27148-2.52148,2.27148
		C337.67773,154.67285,337.02832,154.12402,336.9541,153.10059z M337.07812,148.50684l-2.14648,0.97363
		c-0.54883,0.22461-1.39746,0.89941-1.39746,1.87207c0,0.92383,0.54883,1.72266,1.27246,1.72266
		c0.94922,0,2.27148-0.89844,2.27148-2.07227V148.50684z"/>
	<path style="&st0;" d="M347.38477,144.16309c-0.64844,0.4248-1.62207,1.62305-1.94727,2.34668v6.81543l1.97266,0.37402v0.74902
		h-5.49219v-0.74902l1.49805-0.37402v-8.36328l-1.62305-0.69922v-0.52344l2.99609-1.04883h0.57422l0.1748,1.77246l0.22461,0.09961
		c1.04785-1.19824,1.84668-1.87207,2.8457-1.87207c0.82324,0,1.49805,0.57422,1.49805,1.57227
		c0,0.87402-0.47461,1.49805-1.27344,1.49805c-0.69922,0-1.17383-0.49902-1.17383-1.37305L347.38477,144.16309z"/>
	<path style="&st0;" d="M355.79492,143.01465v0.74902l-1.47266,0.37402l2.57129,7.21484h0.24902l2.44727-7.21484l-1.82324-0.37402
		v-0.74902h4.36914v0.74902l-1.54785,0.37402l-4.19336,12.58203c-0.92383,2.8457-2.04785,3.96875-3.91992,3.96875
		c-1.09863,0-1.64746-0.59863-1.64746-1.29688c0-0.5498,0.49902-1.04883,1.14844-1.04883c0.69922,0,0.94824,0.57422,1.74707,0.57422
		c0.97363,0,1.72266-1.37305,2.37207-4.14453L352.25,144.1377l-1.22266-0.37402v-0.74902H355.79492z"/>
	<path style="&st0;" d="M375.23633,154.44824v-0.74902l1.49805-0.37402v-6.0166c0-2.17188-0.84863-3.02051-2.32227-3.02051
		c-0.99805,0-1.89648,0.47461-2.39648,0.92383v8.11328l1.49805,0.37402v0.74902h-5.01758v-0.74902l1.49805-0.37402v-14.90332
		l-1.62305-0.72363v-0.52441l3.0459-1.04883h0.59863v7.81348l0.2002,0.15039c1.14844-0.87402,2.19629-1.39844,3.27051-1.39844
		c1.74707,0,3.26953,1.17383,3.26953,3.81934v6.81543l1.49805,0.37402v0.74902H375.23633z"/>
	<path style="&st0;" d="M383.76953,147.5332c-0.02441,0.22461-0.02441,0.47461-0.02441,0.69922
		c0,3.1709,1.72266,4.74316,3.54492,4.74316c1.32227,0,2.4209-0.59961,3.31934-2.04688l0.69922,0.47461
		c-0.74902,1.44727-2.12207,3.34473-4.61816,3.34473c-3.0459,0-4.96777-2.9209-4.96777-5.91699
		c0-3.41992,2.02246-6.14062,4.89258-6.14062c2.7959,0,4.44434,2.37109,4.44434,4.04395c0,0.47461-0.02539,0.79883-0.27539,0.79883
		H383.76953z M383.89453,146.53418h4.59375c0.09961-0.27344,0.12402-0.64844,0.12402-0.89844
		c0-1.19727-0.84863-1.92188-2.02148-1.92188C385.04297,143.71387,384.21875,144.96191,383.89453,146.53418z"/>
	<path style="&st0;" d="M398.46973,153.10059h-0.25c-1.04883,1.09766-1.84766,1.64746-2.87109,1.64746
		c-1.27246,0-2.27148-1.82324-2.27148-2.94629c0-1.09766,0.59961-2.19629,1.97266-2.77051l3.51953-1.52246v-1.04883
		c0-1.64746-0.69922-2.37109-1.92188-2.37109c-0.5498,0-1.37305,0.34961-1.67285,0.79883
		c0.02441,0.29883,0.14941,0.92383,0.14941,1.42188c0,0.64941-0.52441,0.97461-1.09863,0.97461
		c-0.52344,0-0.97363-0.5-0.97363-1.22363c0-0.5498,0.1748-1.04785,0.69922-1.49805c0.89844-0.62402,2.9209-1.87207,3.91992-1.87207
		c1.79688,0,2.74512,1.24805,2.74512,2.99609v6.36523c0,0.54883,0.10059,1.07324,0.64941,1.07324
		c0.4248,0,0.79883-0.49902,0.97363-0.92285l0.49902,0.19922c-0.59863,1.74707-1.77246,2.27148-2.52148,2.27148
		C399.19336,154.67285,398.54395,154.12402,398.46973,153.10059z M398.59375,148.50684l-2.14648,0.97363
		c-0.54883,0.22461-1.39746,0.89941-1.39746,1.87207c0,0.92383,0.54883,1.72266,1.27246,1.72266
		c0.94922,0,2.27148-0.89844,2.27148-2.07227V148.50684z"/>
	<path style="&st0;" d="M413.44434,152.62598l1.44824,0.69922v0.67383l-2.32129,0.74902h-0.59961l-0.62402-1.17285h-0.22461
		c-1.14844,0.84766-2.22168,1.17285-3.49512,1.17285c-1.69727,0-4.21875-1.69824-4.21875-5.7168
		c0-3.94434,2.6709-6.34082,5.36719-6.34082c1.12305,0,2.04688,0.22461,2.64648,0.39941v-4.66797l-1.69824-0.72363v-0.52441
		l3.12109-1.04883h0.59863V152.62598z M411.42285,144.9873c-0.5-0.69922-1.47266-1.24805-2.49707-1.24805
		c-1.34766,0-3.41992,1.22266-3.41992,4.69336c0,3.12012,1.82227,4.76758,3.27051,4.76758
		c1.09863,0,2.09668-0.62402,2.64648-1.12305V144.9873z"/>
	<path style="&st0;" d="M419.70605,153.3252l1.49805,0.37402v0.74902h-5.01758v-0.74902l1.49805-0.37402v-8.36328l-1.62305-0.69922
		v-0.52344l3.0459-1.04883h0.59863V153.3252z M418.68262,136.3252c0.79883,0,1.49805,0.69922,1.49805,1.49805
		c0,0.77344-0.69922,1.47266-1.49805,1.47266c-0.77344,0-1.47266-0.69922-1.47266-1.47266
		C417.20996,137.02441,417.90918,136.3252,418.68262,136.3252z"/>
	<path style="&st0;" d="M429.24023,154.44824v-0.74902l1.49805-0.37402v-6.14062c0-2.17188-0.84863-2.89648-2.32227-2.89648
		c-0.99805,0-1.89648,0.47461-2.39648,0.92383v8.11328l1.49805,0.37402v0.74902H422.5v-0.74902l1.49805-0.37402v-8.36328
		l-1.62305-0.69922v-0.52344l2.9707-1.04883h0.59961l0.14941,1.24805l0.2002,0.15039
		c1.17285-0.87402,2.12109-1.39844,3.19531-1.39844c1.74707,0,3.26953,1.17383,3.26953,3.81934v6.81543l1.49805,0.37402v0.74902
		H429.24023z"/>
	<path style="&st0;" d="M437.30078,154.72266c-0.64941-0.57422-1.17383-1.22363-0.79883-2.07129l0.97363-2.17188v-0.4248
		c-0.92383-0.62402-1.64844-1.64746-1.64844-3.21973c0-2.19727,1.52344-4.04492,4.16895-4.04492
		c1.02344,0,1.84766,0.27539,2.54688,0.74902l3.44434-0.2002v1.77344l-2.2959-0.15039c0.24902,0.5,0.42383,1.04883,0.42383,1.72266
		c0,2.54688-1.57227,4.11914-4.29395,4.11914c-0.39941,0-0.82324-0.0498-1.02344-0.125
		c-0.34961,0.09961-0.59863,0.74902-0.59863,1.07324c0,0.64941,0.34961,1.12402,1.14844,1.12402h3.51953
		c1.69727,0,2.9209,0.59863,2.9209,2.5459c0,2.8457-3.14551,5.2666-7.04004,5.2666c-1.69727,0-2.8457-1.07227-2.8457-2.64551
		c0-1.07324,0.59961-2.27148,1.39844-2.99512V154.72266z M441.94336,154.72266h-3.02051
		c-0.92383,0.2998-1.34766,0.97363-1.34766,2.12207c0,1.42285,0.89844,2.27148,2.8457,2.27148
		c1.82227,0,3.86914-1.02344,3.86914-2.87109C444.29004,155.14746,443.41602,154.72266,441.94336,154.72266z M439.94629,143.73926
		c-1.19824,0-2.02148,1.14844-2.02148,3.04492c0,2.12207,0.84863,3.19531,2.02148,3.19531
		c1.32324,0,2.19727-1.14844,2.19727-3.26953C442.14355,145.2373,441.36914,143.73926,439.94629,143.73926z"/>
</g>
<g>
	<path style="&st0;" d="M64.5376,183.43652h0.64893v3.41992c-1.82227,1.07422-3.56982,1.92285-6.68994,1.92285
		c-4.66846,0-8.46289-3.2207-8.46289-9.08691c0-5.61719,4.14404-9.13672,9.06201-9.13672c1.94727,0,4.19385,0.82422,5.89111,1.77246
		v3.52051h-0.67383c-1.02344-3.07129-3.22021-4.16992-5.21729-4.16992c-3.39502,0-6.39062,2.49609-6.39062,7.98828
		c0,5.31738,3.17041,7.86328,6.06592,7.86328C61.54199,187.53027,63.66406,186.05762,64.5376,183.43652z"/>
	<path style="&st0;" d="M69.5752,185.58398c0.84863,0,1.54785,0.69824,1.54785,1.54785c0,0.84863-0.69922,1.52246-1.54785,1.52246
		s-1.52295-0.67383-1.52295-1.52246C68.05225,186.28223,68.72656,185.58398,69.5752,185.58398z"/>
</g>
<g>
	<path style="&st0;" d="M128.24854,182.31348h-5.91602l-1.62256,4.91797l2.32129,0.375v0.87305h-5.44189v-0.87305l1.82227-0.375
		l5.6416-16.37598h1.42285l5.8418,16.37598l1.94678,0.375v0.87305h-6.44043v-0.87305l2.17188-0.375L128.24854,182.31348z
		 M122.75684,181.09082h5.04248l-2.39648-6.76562h-0.39941L122.75684,181.09082z"/>
	<path style="&st0;" d="M141.99854,188.47949v-0.74902l1.49756-0.37402v-6.14062c0-2.17188-0.84863-2.89648-2.32129-2.89648
		c-0.99854,0-1.89746,0.47461-2.39648,0.92383v8.11328l1.49756,0.37402v0.74902h-5.01758v-0.74902l1.49805-0.37402v-8.36328
		l-1.62256-0.69922v-0.52344l2.97021-1.04883h0.59912l0.1499,1.24805l0.19971,0.15039
		c1.17334-0.87402,2.12207-1.39844,3.19531-1.39844c1.74756,0,3.27051,1.17383,3.27051,3.81934v6.81543l1.49756,0.37402v0.74902
		H141.99854z"/>
	<path style="&st0;" d="M153.80225,176.72168c2.92041,0,5.29199,2.27148,5.29199,6.04102c0,3.99414-2.37158,6.0166-5.29199,6.0166
		c-2.9209,0-5.31738-2.14746-5.31738-6.0166C148.48486,179.04395,150.88135,176.72168,153.80225,176.72168z M153.80225,187.73047
		c1.57275,0,2.9707-0.99902,2.9707-4.99316c0-3.69336-1.39795-4.9668-2.9707-4.9668s-2.9707,1.32227-2.9707,4.9668
		C150.83154,186.33301,152.22949,187.73047,153.80225,187.73047z"/>
	<path style="&st0;" d="M160.48877,178.34473v-0.92383l1.44775-0.89844l1.32324-2.29688h0.77344v2.82031h3.27051v1.29883h-3.27051
		v7.43848c0,1.12402,0.52441,1.64746,1.34814,1.64746c0.52441,0,1.27344-0.125,1.92236-0.49902l0.32422,0.64941
		c-0.47412,0.47461-1.59766,1.19824-3.04541,1.19824c-1.82227,0-2.57129-1.07324-2.57129-3.07129v-7.36328H160.48877z"/>
	<path style="&st0;" d="M175.28955,188.47949v-0.74902l1.49756-0.37402v-6.0166c0-2.17188-0.84863-3.02051-2.32129-3.02051
		c-0.99854,0-1.89746,0.47461-2.39648,0.92383v8.11328l1.49756,0.37402v0.74902h-5.01758v-0.74902l1.49805-0.37402v-14.90332
		l-1.62256-0.72363v-0.52441l3.04541-1.04883h0.59912v7.81348l0.19971,0.15039c1.14795-0.87402,2.19678-1.39844,3.27002-1.39844
		c1.74756,0,3.27051,1.17383,3.27051,3.81934v6.81543l1.49756,0.37402v0.74902H175.28955z"/>
	<path style="&st0;" d="M183.82324,181.56445c-0.02539,0.22461-0.02539,0.47461-0.02539,0.69922
		c0,3.1709,1.72266,4.74316,3.54492,4.74316c1.32324,0,2.42139-0.59961,3.32031-2.04688l0.69873,0.47461
		c-0.74854,1.44727-2.12158,3.34473-4.61816,3.34473c-3.04541,0-4.96777-2.9209-4.96777-5.91699
		c0-3.41992,2.02197-6.14062,4.89307-6.14062c2.7959,0,4.44336,2.37109,4.44336,4.04395c0,0.47461-0.0249,0.79883-0.27441,0.79883
		H183.82324z M183.94775,180.56543h4.59326c0.1001-0.27344,0.125-0.64844,0.125-0.89844c0-1.19727-0.84863-1.92188-2.02197-1.92188
		C185.09619,177.74512,184.27246,178.99316,183.94775,180.56543z"/>
	<path style="&st0;" d="M198.19922,178.19434c-0.64941,0.4248-1.62305,1.62305-1.94727,2.34668v6.81543l1.97217,0.37402v0.74902
		h-5.49219v-0.74902l1.49805-0.37402v-8.36328l-1.62256-0.69922v-0.52344l2.99512-1.04883h0.57422l0.1748,1.77246l0.22461,0.09961
		c1.04883-1.19824,1.84766-1.87207,2.84619-1.87207c0.82373,0,1.49756,0.57422,1.49756,1.57227
		c0,0.87402-0.47412,1.49805-1.27295,1.49805c-0.69922,0-1.17334-0.49902-1.17334-1.37305L198.19922,178.19434z"/>
	<path style="&st0;" d="M207.75488,184.73535h0.82373c0.39941,1.84668,1.32324,3.14453,2.87061,3.14453
		c1.09863,0,1.84766-0.92383,1.84766-1.84668c0-1.02344-0.44971-1.59766-2.64648-2.57129
		c-1.99707-0.84863-2.89551-1.87207-2.89551-3.57031c0-1.44727,1.04834-3.16992,3.39502-3.16992
		c1.07324,0,1.89697,0.2998,2.39648,0.5l0.62402-0.30078h0.54932v3.57031h-0.72412c-0.57422-2.04688-1.82227-2.82031-2.771-2.82031
		c-1.04834,0-1.89697,0.72363-1.89697,1.74707s0.89844,1.54785,2.62109,2.34668c1.92236,0.87305,3.24512,1.77148,3.24512,3.61914
		c0,2.22266-1.77246,3.39551-3.79443,3.39551c-1.04834,0-2.17188-0.4502-2.57129-0.62402l-0.37451,0.32422h-0.69873V184.73535z"/>
	<path style="&st0;" d="M219.13574,181.56445c-0.02539,0.22461-0.02539,0.47461-0.02539,0.69922
		c0,3.1709,1.72266,4.74316,3.54492,4.74316c1.32324,0,2.42139-0.59961,3.32031-2.04688l0.69873,0.47461
		c-0.74854,1.44727-2.12158,3.34473-4.61816,3.34473c-3.04541,0-4.96777-2.9209-4.96777-5.91699
		c0-3.41992,2.02197-6.14062,4.89307-6.14062c2.7959,0,4.44336,2.37109,4.44336,4.04395c0,0.47461-0.0249,0.79883-0.27441,0.79883
		H219.13574z M219.26025,180.56543h4.59326c0.1001-0.27344,0.125-0.64844,0.125-0.89844c0-1.19727-0.84863-1.92188-2.02197-1.92188
		C220.40869,177.74512,219.58496,178.99316,219.26025,180.56543z"/>
	<path style="&st0;" d="M230.44043,182.38867c0,3.29492,1.54785,4.51855,3.49512,4.51855c1.37305,0,2.49609-0.94922,3.0957-1.99805
		l0.77344,0.375c-0.79883,2.02148-2.34668,3.49512-4.51855,3.49512c-3.04492,0-5.01758-2.72168-5.01758-5.94141
		c0-3.39551,2.24707-6.11621,5.44238-6.11621c2.39648,0,3.76953,1.17383,3.76953,2.49609c0,0.67383-0.3252,1.04883-1.19824,1.04883
		c-1.59766,0-0.92383-2.5957-2.87109-2.5957C231.98828,177.6709,230.44043,179.51758,230.44043,182.38867z"/>
	<path style="&st0;" d="M244.5918,176.72168c2.9209,0,5.29199,2.27148,5.29199,6.04102c0,3.99414-2.37109,6.0166-5.29199,6.0166
		s-5.31738-2.14746-5.31738-6.0166C239.27441,179.04395,241.6709,176.72168,244.5918,176.72168z M244.5918,187.73047
		c1.57227,0,2.9707-0.99902,2.9707-4.99316c0-3.69336-1.39844-4.9668-2.9707-4.9668c-1.57324,0-2.9707,1.32227-2.9707,4.9668
		C241.62109,186.33301,243.01855,187.73047,244.5918,187.73047z"/>
	<path style="&st0;" d="M258.09277,188.47949v-0.74902l1.49805-0.37402v-6.14062c0-2.17188-0.84863-2.89648-2.32227-2.89648
		c-0.99805,0-1.89648,0.47461-2.39648,0.92383v8.11328l1.49805,0.37402v0.74902h-5.01758v-0.74902l1.49805-0.37402v-8.36328
		l-1.62305-0.69922v-0.52344l2.9707-1.04883h0.59961l0.14941,1.24805l0.2002,0.15039
		c1.17285-0.87402,2.12109-1.39844,3.19531-1.39844c1.74707,0,3.26953,1.17383,3.26953,3.81934v6.81543l1.49805,0.37402v0.74902
		H258.09277z"/>
	<path style="&st0;" d="M274.61426,186.65723l1.44824,0.69922v0.67383l-2.32129,0.74902h-0.59961l-0.62402-1.17285h-0.22461
		c-1.14844,0.84766-2.22168,1.17285-3.49512,1.17285c-1.69727,0-4.21875-1.69824-4.21875-5.7168
		c0-3.94434,2.6709-6.34082,5.36719-6.34082c1.12305,0,2.04688,0.22461,2.64648,0.39941v-4.66797l-1.69824-0.72363v-0.52441
		l3.12109-1.04883h0.59863V186.65723z M272.59277,179.01855c-0.5-0.69922-1.47266-1.24805-2.49707-1.24805
		c-1.34766,0-3.41992,1.22266-3.41992,4.69336c0,3.12012,1.82227,4.76758,3.27051,4.76758
		c1.09863,0,2.09668-0.62402,2.64648-1.12305V179.01855z"/>
	<path style="&st0;" d="M283.09863,187.13184h-0.25c-1.04883,1.09766-1.84766,1.64746-2.87109,1.64746
		c-1.27246,0-2.27148-1.82324-2.27148-2.94629c0-1.09766,0.59961-2.19629,1.97266-2.77051l3.51953-1.52246v-1.04883
		c0-1.64746-0.69922-2.37109-1.92188-2.37109c-0.5498,0-1.37305,0.34961-1.67285,0.79883
		c0.02441,0.29883,0.14941,0.92383,0.14941,1.42188c0,0.64941-0.52441,0.97461-1.09863,0.97461
		c-0.52344,0-0.97363-0.5-0.97363-1.22363c0-0.5498,0.1748-1.04785,0.69922-1.49805c0.89844-0.62402,2.9209-1.87207,3.91992-1.87207
		c1.79688,0,2.74512,1.24805,2.74512,2.99609v6.36523c0,0.54883,0.10059,1.07324,0.64941,1.07324
		c0.4248,0,0.79883-0.49902,0.97363-0.92285l0.49902,0.19922c-0.59863,1.74707-1.77246,2.27148-2.52148,2.27148
		C283.82227,188.7041,283.17285,188.15527,283.09863,187.13184z M283.22266,182.53809l-2.14648,0.97363
		c-0.54883,0.22461-1.39746,0.89941-1.39746,1.87207c0,0.92383,0.54883,1.72266,1.27246,1.72266
		c0.94922,0,2.27148-0.89844,2.27148-2.07227V182.53809z"/>
	<path style="&st0;" d="M293.53027,178.19434c-0.64844,0.4248-1.62207,1.62305-1.94727,2.34668v6.81543l1.97266,0.37402v0.74902
		h-5.49219v-0.74902l1.49805-0.37402v-8.36328l-1.62305-0.69922v-0.52344l2.99609-1.04883h0.57422l0.1748,1.77246l0.22461,0.09961
		c1.04785-1.19824,1.84668-1.87207,2.8457-1.87207c0.82324,0,1.49805,0.57422,1.49805,1.57227
		c0,0.87402-0.47461,1.49805-1.27344,1.49805c-0.69922,0-1.17383-0.49902-1.17383-1.37305L293.53027,178.19434z"/>
	<path style="&st0;" d="M301.93945,177.0459v0.74902l-1.47266,0.37402l2.57129,7.21484h0.24902l2.44727-7.21484l-1.82324-0.37402
		v-0.74902h4.36914v0.74902l-1.54785,0.37402l-4.19336,12.58203c-0.92383,2.8457-2.04785,3.96875-3.91992,3.96875
		c-1.09863,0-1.64746-0.59863-1.64746-1.29688c0-0.5498,0.49902-1.04883,1.14844-1.04883c0.69922,0,0.94824,0.57422,1.74707,0.57422
		c0.97363,0,1.72266-1.37305,2.37207-4.14453l-3.84473-10.63477l-1.22266-0.37402v-0.74902H301.93945z"/>
	<path style="&st0;" d="M321.38086,188.47949v-0.74902l1.49805-0.37402v-6.0166c0-2.17188-0.84863-3.02051-2.32227-3.02051
		c-0.99805,0-1.89648,0.47461-2.39648,0.92383v8.11328l1.49805,0.37402v0.74902h-5.01758v-0.74902l1.49805-0.37402v-14.90332
		l-1.62305-0.72363v-0.52441l3.0459-1.04883h0.59863v7.81348l0.2002,0.15039c1.14844-0.87402,2.19629-1.39844,3.27051-1.39844
		c1.74707,0,3.26953,1.17383,3.26953,3.81934v6.81543l1.49805,0.37402v0.74902H321.38086z"/>
	<path style="&st0;" d="M329.91406,181.56445c-0.02441,0.22461-0.02441,0.47461-0.02441,0.69922
		c0,3.1709,1.72266,4.74316,3.54492,4.74316c1.32227,0,2.4209-0.59961,3.31934-2.04688l0.69922,0.47461
		c-0.74902,1.44727-2.12207,3.34473-4.61816,3.34473c-3.0459,0-4.96777-2.9209-4.96777-5.91699
		c0-3.41992,2.02246-6.14062,4.89258-6.14062c2.7959,0,4.44434,2.37109,4.44434,4.04395c0,0.47461-0.02539,0.79883-0.27539,0.79883
		H329.91406z M330.03906,180.56543h4.59375c0.09961-0.27344,0.12402-0.64844,0.12402-0.89844
		c0-1.19727-0.84863-1.92188-2.02148-1.92188C331.1875,177.74512,330.36328,178.99316,330.03906,180.56543z"/>
	<path style="&st0;" d="M344.61523,187.13184h-0.25c-1.04883,1.09766-1.84766,1.64746-2.87109,1.64746
		c-1.27246,0-2.27148-1.82324-2.27148-2.94629c0-1.09766,0.59961-2.19629,1.97168-2.77051l3.52051-1.52246v-1.04883
		c0-1.64746-0.69922-2.37109-1.92285-2.37109c-0.54883,0-1.37207,0.34961-1.67188,0.79883
		c0.02441,0.29883,0.14941,0.92383,0.14941,1.42188c0,0.64941-0.52441,0.97461-1.09863,0.97461
		c-0.52344,0-0.97266-0.5-0.97266-1.22363c0-0.5498,0.17383-1.04785,0.69824-1.49805
		c0.89941-0.62402,2.9209-1.87207,3.91992-1.87207c1.79688,0,2.74512,1.24805,2.74512,2.99609v6.36523
		c0,0.54883,0.10059,1.07324,0.64941,1.07324c0.4248,0,0.79883-0.49902,0.97363-0.92285l0.49902,0.19922
		c-0.59863,1.74707-1.77246,2.27148-2.52148,2.27148C345.33887,188.7041,344.68945,188.15527,344.61523,187.13184z
		 M344.73926,182.53809l-2.14648,0.97363c-0.54883,0.22461-1.39844,0.89941-1.39844,1.87207
		c0,0.92383,0.5498,1.72266,1.27344,1.72266c0.94922,0,2.27148-0.89844,2.27148-2.07227V182.53809z"/>
	<path style="&st0;" d="M359.61426,186.65723l1.44824,0.69922v0.67383l-2.32129,0.74902h-0.59961l-0.62402-1.17285h-0.22461
		c-1.14844,0.84766-2.22168,1.17285-3.49512,1.17285c-1.69727,0-4.21875-1.69824-4.21875-5.7168
		c0-3.94434,2.6709-6.34082,5.36719-6.34082c1.12305,0,2.04688,0.22461,2.64648,0.39941v-4.66797l-1.69824-0.72363v-0.52441
		l3.12109-1.04883h0.59863V186.65723z M357.59277,179.01855c-0.5-0.69922-1.47266-1.24805-2.49707-1.24805
		c-1.34766,0-3.41992,1.22266-3.41992,4.69336c0,3.12012,1.82227,4.76758,3.27051,4.76758
		c1.09863,0,2.09668-0.62402,2.64648-1.12305V179.01855z"/>
	<path style="&st0;" d="M365.87598,187.35645l1.49805,0.37402v0.74902h-5.01758v-0.74902l1.49805-0.37402v-8.36328l-1.62305-0.69922
		v-0.52344l3.0459-1.04883h0.59863V187.35645z M364.85254,170.35645c0.79883,0,1.49805,0.69922,1.49805,1.49805
		c0,0.77344-0.69922,1.47266-1.49805,1.47266c-0.77344,0-1.47266-0.69922-1.47266-1.47266
		C363.37988,171.05566,364.0791,170.35645,364.85254,170.35645z"/>
	<path style="&st0;" d="M375.41016,188.47949v-0.74902l1.49805-0.37402v-6.14062c0-2.17188-0.84863-2.89648-2.32227-2.89648
		c-0.99805,0-1.89648,0.47461-2.39648,0.92383v8.11328l1.49805,0.37402v0.74902h-5.01758v-0.74902l1.49805-0.37402v-8.36328
		l-1.62305-0.69922v-0.52344l2.9707-1.04883h0.59961l0.14941,1.24805l0.2002,0.15039
		c1.17285-0.87402,2.12109-1.39844,3.19531-1.39844c1.74707,0,3.26953,1.17383,3.26953,3.81934v6.81543l1.49805,0.37402v0.74902
		H375.41016z"/>
	<path style="&st0;" d="M383.4707,188.75391c-0.64941-0.57422-1.17383-1.22363-0.79883-2.07129l0.97363-2.17188v-0.4248
		c-0.92383-0.62402-1.64844-1.64746-1.64844-3.21973c0-2.19727,1.52344-4.04492,4.16895-4.04492
		c1.02344,0,1.84766,0.27539,2.54688,0.74902l3.44434-0.2002v1.77344l-2.2959-0.15039c0.24902,0.5,0.42383,1.04883,0.42383,1.72266
		c0,2.54688-1.57227,4.11914-4.29395,4.11914c-0.39941,0-0.82324-0.0498-1.02344-0.125
		c-0.34961,0.09961-0.59863,0.74902-0.59863,1.07324c0,0.64941,0.34961,1.12402,1.14844,1.12402h3.51953
		c1.69727,0,2.9209,0.59863,2.9209,2.5459c0,2.8457-3.14551,5.2666-7.04004,5.2666c-1.69727,0-2.8457-1.07227-2.8457-2.64551
		c0-1.07324,0.59961-2.27148,1.39844-2.99512V188.75391z M388.11328,188.75391h-3.02051
		c-0.92383,0.2998-1.34766,0.97363-1.34766,2.12207c0,1.42285,0.89844,2.27148,2.8457,2.27148
		c1.82227,0,3.86914-1.02344,3.86914-2.87109C390.45996,189.17871,389.58594,188.75391,388.11328,188.75391z M386.11621,177.77051
		c-1.19824,0-2.02148,1.14844-2.02148,3.04492c0,2.12207,0.84863,3.19531,2.02148,3.19531
		c1.32324,0,2.19727-1.14844,2.19727-3.26953C388.31348,179.26855,387.53906,177.77051,386.11621,177.77051z"/>
</g>
<g>
	<path style="&st0;" d="M6.89014,204.88672v0.87402l-2.24658,0.37402v15.12793l2.24658,0.375v0.87305H0v-0.87305l2.24707-0.375
		v-15.12793L0,205.76074v-0.87402H6.89014z"/>
	<path style="&st0;" d="M15.12549,204.88672v0.87402l-2.24658,0.37402v15.12793l2.24658,0.375v0.87305H8.23535v-0.87305
		l2.24707-0.375v-15.12793l-2.24707-0.37402v-0.87402H15.12549z"/>
	<path style="&st0;" d="M18.94189,219.61523c0.84863,0,1.54736,0.69824,1.54736,1.54785c0,0.84863-0.69873,1.52246-1.54736,1.52246
		c-0.84912,0-1.52295-0.67383-1.52295-1.52246C17.41895,220.31348,18.09277,219.61523,18.94189,219.61523z"/>
</g>
<g>
	<path style="&st0;" d="M60.19775,216.34473h-5.91602l-1.62256,4.91797l2.32129,0.375v0.87305h-5.44189v-0.87305l1.82227-0.375
		l5.6416-16.37598h1.42285l5.8418,16.37598l1.94678,0.375v0.87305h-6.44043v-0.87305l2.17188-0.375L60.19775,216.34473z
		 M54.70605,215.12207h5.04248l-2.39648-6.76562h-0.39941L54.70605,215.12207z"/>
	<path style="&st0;" d="M73.94775,222.51074v-0.74902l1.49756-0.37402v-6.14062c0-2.17188-0.84863-2.89648-2.32129-2.89648
		c-0.99854,0-1.89746,0.47461-2.39648,0.92383v8.11328l1.49756,0.37402v0.74902h-5.01758v-0.74902l1.49805-0.37402v-8.36328
		l-1.62256-0.69922v-0.52344l2.97021-1.04883h0.59912l0.1499,1.24805l0.19971,0.15039
		c1.17334-0.87402,2.12207-1.39844,3.19531-1.39844c1.74756,0,3.27051,1.17383,3.27051,3.81934v6.81543l1.49756,0.37402v0.74902
		H73.94775z"/>
	<path style="&st0;" d="M85.75146,210.75293c2.92041,0,5.29199,2.27148,5.29199,6.04102c0,3.99414-2.37158,6.0166-5.29199,6.0166
		c-2.9209,0-5.31738-2.14746-5.31738-6.0166C80.43408,213.0752,82.83057,210.75293,85.75146,210.75293z M85.75146,221.76172
		c1.57275,0,2.9707-0.99902,2.9707-4.99316c0-3.69336-1.39795-4.9668-2.9707-4.9668s-2.9707,1.32227-2.9707,4.9668
		C82.78076,220.36426,84.17871,221.76172,85.75146,221.76172z"/>
	<path style="&st0;" d="M92.43799,212.37598v-0.92383l1.44775-0.89844l1.32324-2.29688h0.77344v2.82031h3.27051v1.29883h-3.27051
		v7.43848c0,1.12402,0.52441,1.64746,1.34814,1.64746c0.52441,0,1.27344-0.125,1.92236-0.49902l0.32422,0.64941
		c-0.47412,0.47461-1.59766,1.19824-3.04541,1.19824c-1.82227,0-2.57129-1.07324-2.57129-3.07129v-7.36328H92.43799z"/>
	<path style="&st0;" d="M107.23877,222.51074v-0.74902l1.49756-0.37402v-6.0166c0-2.17188-0.84863-3.02051-2.32129-3.02051
		c-0.99854,0-1.89746,0.47461-2.39648,0.92383v8.11328l1.49756,0.37402v0.74902h-5.01758v-0.74902l1.49805-0.37402v-14.90332
		l-1.62256-0.72363v-0.52441l3.04541-1.04883h0.59912v7.81348l0.19971,0.15039c1.14795-0.87402,2.19678-1.39844,3.27002-1.39844
		c1.74756,0,3.27051,1.17383,3.27051,3.81934v6.81543l1.49756,0.37402v0.74902H107.23877z"/>
	<path style="&st0;" d="M115.77246,215.5957c-0.02539,0.22461-0.02539,0.47461-0.02539,0.69922
		c0,3.1709,1.72266,4.74316,3.54492,4.74316c1.32324,0,2.42139-0.59961,3.32031-2.04688l0.69873,0.47461
		c-0.74854,1.44727-2.12158,3.34473-4.61816,3.34473c-3.04541,0-4.96777-2.9209-4.96777-5.91699
		c0-3.41992,2.02197-6.14062,4.89307-6.14062c2.7959,0,4.44336,2.37109,4.44336,4.04395c0,0.47461-0.0249,0.79883-0.27441,0.79883
		H115.77246z M115.89697,214.59668h4.59326c0.1001-0.27344,0.125-0.64844,0.125-0.89844c0-1.19727-0.84863-1.92188-2.02197-1.92188
		C117.04541,211.77637,116.22168,213.02441,115.89697,214.59668z"/>
	<path style="&st0;" d="M130.14844,212.22559c-0.64941,0.4248-1.62305,1.62305-1.94727,2.34668v6.81543l1.97217,0.37402v0.74902
		h-5.49219v-0.74902l1.49805-0.37402v-8.36328l-1.62256-0.69922v-0.52344l2.99512-1.04883h0.57422l0.1748,1.77246l0.22461,0.09961
		c1.04883-1.19824,1.84766-1.87207,2.84619-1.87207c0.82373,0,1.49756,0.57422,1.49756,1.57227
		c0,0.87402-0.47412,1.49805-1.27295,1.49805c-0.69922,0-1.17334-0.49902-1.17334-1.37305L130.14844,212.22559z"/>
	<path style="&st0;" d="M142.6748,222.43652v4.94141l2.09668,0.375v0.74902h-5.6167v-0.74902l1.49805-0.375v-14.35352
		l-1.62256-0.69922v-0.52344l2.97021-1.04883h0.59912l0.1499,1.24805l0.39941,0.15039
		c1.02344-0.84961,2.02197-1.39844,3.12061-1.39844c1.69727,0,4.36865,1.74805,4.36865,5.7666
		c0,3.94434-2.74609,6.29102-5.44238,6.29102C144.17236,222.81055,143.22363,222.63574,142.6748,222.43652z M142.6748,220.66309
		c0.47412,0.69922,1.44775,1.17383,2.37158,1.17383c1.32275,0,3.49463-1.22363,3.49463-4.71875
		c0-3.12012-1.97217-4.66797-3.46973-4.66797c-0.94873,0-1.89746,0.59961-2.39648,1.09863V220.66309z"/>
	<path style="&st0;" d="M157.57422,212.22559c-0.64941,0.4248-1.62305,1.62305-1.94727,2.34668v6.81543l1.97217,0.37402v0.74902
		h-5.49219v-0.74902l1.49805-0.37402v-8.36328l-1.62256-0.69922v-0.52344l2.99512-1.04883h0.57422l0.1748,1.77246l0.22461,0.09961
		c1.04883-1.19824,1.84766-1.87207,2.84619-1.87207c0.82373,0,1.49756,0.57422,1.49756,1.57227
		c0,0.87402-0.47412,1.49805-1.27295,1.49805c-0.69922,0-1.17334-0.49902-1.17334-1.37305L157.57422,212.22559z"/>
	<path style="&st0;" d="M164.66064,221.3877l1.49756,0.37402v0.74902h-5.01758v-0.74902l1.49805-0.37402v-8.36328l-1.62256-0.69922
		v-0.52344l3.04541-1.04883h0.59912V221.3877z M163.63721,204.3877c0.79883,0,1.49756,0.69922,1.49756,1.49805
		c0,0.77344-0.69873,1.47266-1.49756,1.47266c-0.77393,0-1.47314-0.69922-1.47314-1.47266
		C162.16406,205.08691,162.86328,204.3877,163.63721,204.3877z"/>
	<path style="&st0;" d="M174.16992,222.51074v-0.74902l1.49756-0.37402v-6.14062c0-2.17188-0.82373-2.89648-2.29639-2.89648
		c-0.99854,0-1.89746,0.47461-2.39648,0.92383v8.11328l1.49756,0.37402v0.74902h-5.01758v-0.74902l1.49805-0.37402v-8.36328
		l-1.62256-0.69922v-0.52344l2.97021-1.04883h0.59912l0.1499,1.24805l0.19971,0.15039
		c1.17334-0.87402,2.12207-1.39844,3.19531-1.39844c1.19824,0,2.27148,0.54883,2.8208,1.74805
		c1.24854-0.92383,2.47168-1.74805,3.86963-1.74805c1.74707,0,3.27002,1.17383,3.27002,3.81934v6.81543l1.49756,0.37402v0.74902
		h-5.01758v-0.74902l1.49805-0.37402v-6.14062c0-2.17188-0.84863-2.89648-2.29688-2.89648c-0.79883,0-1.79736,0.5-2.47119,0.92383
		c0.0249,0.32422,0.07471,0.67383,0.07471,1.02344v7.08984l1.49805,0.37402v0.74902H174.16992z"/>
	<path style="&st0;" d="M192.93604,221.16309h-0.24951c-1.04834,1.09766-1.84717,1.64746-2.87109,1.64746
		c-1.27295,0-2.27148-1.82324-2.27148-2.94629c0-1.09766,0.59912-2.19629,1.97217-2.77051l3.52002-1.52246v-1.04883
		c0-1.64746-0.69922-2.37109-1.92236-2.37109c-0.54932,0-1.37305,0.34961-1.67236,0.79883
		c0.0249,0.29883,0.14941,0.92383,0.14941,1.42188c0,0.64941-0.52393,0.97461-1.09814,0.97461
		c-0.52441,0-0.97363-0.5-0.97363-1.22363c0-0.5498,0.1748-1.04785,0.69873-1.49805c0.89893-0.62402,2.9209-1.87207,3.91943-1.87207
		c1.79736,0,2.74609,1.24805,2.74609,2.99609v6.36523c0,0.54883,0.09961,1.07324,0.64893,1.07324
		c0.42432,0,0.79883-0.49902,0.97363-0.92285l0.49902,0.19922c-0.59863,1.74707-1.77197,2.27148-2.521,2.27148
		C193.66016,222.73535,193.01074,222.18652,192.93604,221.16309z M193.06104,216.56934l-2.14697,0.97363
		c-0.54932,0.22461-1.39795,0.89941-1.39795,1.87207c0,0.92383,0.54932,1.72266,1.27295,1.72266
		c0.94873,0,2.27197-0.89844,2.27197-2.07227V216.56934z"/>
	<path style="&st0;" d="M203.36816,212.22559c-0.64941,0.4248-1.62305,1.62305-1.94727,2.34668v6.81543l1.97217,0.37402v0.74902
		h-5.49219v-0.74902l1.49805-0.37402v-8.36328l-1.62256-0.69922v-0.52344l2.99512-1.04883h0.57422l0.1748,1.77246l0.22461,0.09961
		c1.04883-1.19824,1.84766-1.87207,2.84619-1.87207c0.82373,0,1.49756,0.57422,1.49756,1.57227
		c0,0.87402-0.47412,1.49805-1.27295,1.49805c-0.69922,0-1.17334-0.49902-1.17334-1.37305L203.36816,212.22559z"/>
	<path style="&st0;" d="M211.77734,211.07715v0.74902l-1.47266,0.37402l2.57129,7.21484h0.24951l2.44629-7.21484l-1.82227-0.37402
		v-0.74902h4.36865v0.74902l-1.54785,0.37402l-4.19385,12.58203c-0.92334,2.8457-2.04688,3.96875-3.91943,3.96875
		c-1.09814,0-1.64746-0.59863-1.64746-1.29688c0-0.5498,0.49951-1.04883,1.14844-1.04883c0.69922,0,0.94873,0.57422,1.74756,0.57422
		c0.97363,0,1.72217-1.37305,2.37158-4.14453l-3.84473-10.63477l-1.22314-0.37402v-0.74902H211.77734z"/>
	<path style="&st0;" d="M231.21777,222.51074v-0.74902l1.49805-0.37402v-6.0166c0-2.17188-0.84863-3.02051-2.32129-3.02051
		c-0.99902,0-1.89746,0.47461-2.39648,0.92383v8.11328l1.49805,0.37402v0.74902h-5.01807v-0.74902l1.49805-0.37402v-14.90332
		l-1.62256-0.72363v-0.52441l3.04492-1.04883h0.59961v7.81348l0.19922,0.15039c1.14844-0.87402,2.19727-1.39844,3.27051-1.39844
		c1.74707,0,3.27051,1.17383,3.27051,3.81934v6.81543l1.49707,0.37402v0.74902H231.21777z"/>
	<path style="&st0;" d="M239.75195,215.5957c-0.02441,0.22461-0.02441,0.47461-0.02441,0.69922
		c0,3.1709,1.72266,4.74316,3.54492,4.74316c1.32227,0,2.4209-0.59961,3.31934-2.04688l0.69922,0.47461
		c-0.74902,1.44727-2.12207,3.34473-4.61816,3.34473c-3.0459,0-4.96777-2.9209-4.96777-5.91699
		c0-3.41992,2.02246-6.14062,4.89258-6.14062c2.7959,0,4.44434,2.37109,4.44434,4.04395c0,0.47461-0.02539,0.79883-0.27539,0.79883
		H239.75195z M239.87695,214.59668h4.59375c0.09961-0.27344,0.12402-0.64844,0.12402-0.89844
		c0-1.19727-0.84863-1.92188-2.02148-1.92188C241.02539,211.77637,240.20117,213.02441,239.87695,214.59668z"/>
	<path style="&st0;" d="M254.45312,221.16309h-0.25c-1.04883,1.09766-1.84766,1.64746-2.87109,1.64746
		c-1.27246,0-2.27148-1.82324-2.27148-2.94629c0-1.09766,0.59961-2.19629,1.97168-2.77051l3.52051-1.52246v-1.04883
		c0-1.64746-0.69922-2.37109-1.92285-2.37109c-0.54883,0-1.37207,0.34961-1.67188,0.79883
		c0.02441,0.29883,0.14941,0.92383,0.14941,1.42188c0,0.64941-0.52441,0.97461-1.09863,0.97461
		c-0.52344,0-0.97266-0.5-0.97266-1.22363c0-0.5498,0.17383-1.04785,0.69824-1.49805
		c0.89941-0.62402,2.9209-1.87207,3.91992-1.87207c1.79688,0,2.74512,1.24805,2.74512,2.99609v6.36523
		c0,0.54883,0.10059,1.07324,0.64941,1.07324c0.4248,0,0.79883-0.49902,0.97363-0.92285l0.49902,0.19922
		c-0.59863,1.74707-1.77246,2.27148-2.52148,2.27148C255.17676,222.73535,254.52734,222.18652,254.45312,221.16309z
		 M254.57715,216.56934l-2.14648,0.97363c-0.54883,0.22461-1.39844,0.89941-1.39844,1.87207
		c0,0.92383,0.5498,1.72266,1.27344,1.72266c0.94922,0,2.27148-0.89844,2.27148-2.07227V216.56934z"/>
	<path style="&st0;" d="M269.42676,220.68848l1.44824,0.69922v0.67383l-2.32129,0.74902h-0.59961l-0.62402-1.17285h-0.22461
		c-1.14844,0.84766-2.22168,1.17285-3.49512,1.17285c-1.69727,0-4.21875-1.69824-4.21875-5.7168
		c0-3.94434,2.6709-6.34082,5.36719-6.34082c1.12305,0,2.04688,0.22461,2.64648,0.39941v-4.66797l-1.69824-0.72363v-0.52441
		l3.12109-1.04883h0.59863V220.68848z M267.40527,213.0498c-0.5-0.69922-1.47266-1.24805-2.49707-1.24805
		c-1.34766,0-3.41992,1.22266-3.41992,4.69336c0,3.12012,1.82227,4.76758,3.27051,4.76758
		c1.09863,0,2.09668-0.62402,2.64648-1.12305V213.0498z"/>
	<path style="&st0;" d="M275.68848,221.3877l1.49805,0.37402v0.74902h-5.01758v-0.74902l1.49805-0.37402v-8.36328l-1.62305-0.69922
		v-0.52344l3.0459-1.04883h0.59863V221.3877z M274.66504,204.3877c0.79883,0,1.49805,0.69922,1.49805,1.49805
		c0,0.77344-0.69922,1.47266-1.49805,1.47266c-0.77344,0-1.47266-0.69922-1.47266-1.47266
		C273.19238,205.08691,273.8916,204.3877,274.66504,204.3877z"/>
	<path style="&st0;" d="M285.22363,222.51074v-0.74902l1.49805-0.37402v-6.14062c0-2.17188-0.84863-2.89648-2.32227-2.89648
		c-0.99805,0-1.89648,0.47461-2.39648,0.92383v8.11328l1.49805,0.37402v0.74902h-5.01758v-0.74902l1.49805-0.37402v-8.36328
		l-1.62305-0.69922v-0.52344l2.9707-1.04883h0.59961l0.14941,1.24805l0.2002,0.15039
		c1.17285-0.87402,2.12109-1.39844,3.19531-1.39844c1.74707,0,3.26953,1.17383,3.26953,3.81934v6.81543l1.49805,0.37402v0.74902
		H285.22363z"/>
	<path style="&st0;" d="M293.2832,222.78516c-0.64941-0.57422-1.17383-1.22363-0.79883-2.07129l0.97363-2.17188v-0.4248
		c-0.92383-0.62402-1.64844-1.64746-1.64844-3.21973c0-2.19727,1.52344-4.04492,4.16895-4.04492
		c1.02344,0,1.84766,0.27539,2.54688,0.74902l3.44434-0.2002v1.77344l-2.2959-0.15039c0.24902,0.5,0.42383,1.04883,0.42383,1.72266
		c0,2.54688-1.57227,4.11914-4.29395,4.11914c-0.39941,0-0.82324-0.0498-1.02344-0.125
		c-0.34961,0.09961-0.59863,0.74902-0.59863,1.07324c0,0.64941,0.34961,1.12402,1.14844,1.12402h3.51953
		c1.69727,0,2.9209,0.59863,2.9209,2.5459c0,2.8457-3.14551,5.2666-7.04004,5.2666c-1.69727,0-2.8457-1.07227-2.8457-2.64551
		c0-1.07324,0.59961-2.27148,1.39844-2.99512V222.78516z M297.92578,222.78516h-3.02051
		c-0.92383,0.2998-1.34766,0.97363-1.34766,2.12207c0,1.42285,0.89844,2.27148,2.8457,2.27148
		c1.82227,0,3.86914-1.02344,3.86914-2.87109C300.27246,223.20996,299.39844,222.78516,297.92578,222.78516z M295.92871,211.80176
		c-1.19824,0-2.02148,1.14844-2.02148,3.04492c0,2.12207,0.84863,3.19531,2.02148,3.19531
		c1.32324,0,2.19727-1.14844,2.19727-3.26953C298.12598,213.2998,297.35156,211.80176,295.92871,211.80176z"/>
</g>
</svg>
