<?xml version="1.0" encoding="utf-8"?>
<!-- Generator: Adobe Illustrator 15.1.0, SVG Export Plug-In . SVG Version: 6.00 Build 0)  -->
<!DOCTYPE svg PUBLIC "-//W3C//DTD SVG 1.1//EN" "http://www.w3.org/Graphics/SVG/1.1/DTD/svg11.dtd" [
	<!ENTITY st0 "fill:#231F20;">
]>
<svg version="1.1" id="Layer_1" xmlns="http://www.w3.org/2000/svg" xmlns:xlink="http://www.w3.org/1999/xlink" x="0px" y="0px"
	 width="542.43994px" height="104.55664px" viewBox="0 0 542.43994 104.55664"
	 style="enable-background:new 0 0 542.43994 104.55664;" xml:space="preserve">
<g>
	<path style="&st0;" d="M4.50537,15.40137C2.02295,15.40137,0,12.91846,0,9.05664C0,4.32129,3.31006,1.28711,5.47119,0
		l1.05713,1.70068c-1.65479,1.2876-3.67773,3.31055-3.67773,5.74707c0,3.12598,3.86182,2.7583,3.86182,5.56299
		C6.7124,14.38965,5.93066,15.40137,4.50537,15.40137z M15.53955,15.40137c-2.48242,0-4.50537-2.48291-4.50537-6.34473
		c0-4.73535,3.31006-7.76953,5.4707-9.05664l1.05762,1.70068c-1.65527,1.2876-3.67822,3.31055-3.67822,5.74707
		c0,3.12598,3.8623,2.7583,3.8623,5.56299C17.74658,14.38965,16.96484,15.40137,15.53955,15.40137z"/>
	<path style="&st0;" d="M43.81055,21.74561h-10.896l-2.98828,9.05713l4.27539,0.68994v1.60889H24.1792v-1.60889l3.35645-0.68994
		L37.92578,0.64355h2.62061l10.7583,30.15918l3.58594,0.68994v1.60889H43.02881v-1.60889l4-0.68994L43.81055,21.74561z
		 M33.69629,19.49316h9.28662L38.56934,7.03369h-0.73535L33.69629,19.49316z"/>
	<path style="&st0;" d="M79.62158,2.94238L75.3457,2.25244V0.64355h10.02246v1.60889l-3.31006,0.68994l-8.91895,15.07959v12.78076
		l4.1377,0.68994v1.60889H64.58789v-1.60889l4.1377-0.68994V18.11377L59.89844,2.94238l-3.40234-0.68994V0.64355h11.86133v1.60889
		l-3.90771,0.68994l7.26416,12.50488h0.50586L79.62158,2.94238z"/>
	<path style="&st0;" d="M91.84717,27.30859c2.48242,0,4.36768,2.48291,4.36768,6.34473c0,4.96533-3.58594,8.18359-5.93066,9.5166
		l-1.05762-1.70117c1.88477-1.37891,3.86182-3.58594,3.86182-6.20654c0-3.12598-3.86182-2.7583-3.86182-5.56299
		C89.22656,28.64209,90.1001,27.30859,91.84717,27.30859z"/>
	<path style="&st0;" d="M138.73828,0.64355l2.11475,8.82715h-1.79297l-4.64355-6.85059h-7.17188v28.18262l4.32178,0.68994v1.60889
		h-13.05713v-1.60889l4.32178-0.68994V2.62012h-7.17188l-4.64355,6.85059h-1.79297l2.11475-8.82715H138.73828z"/>
	<path style="&st0;" d="M150.6416,12.04492v1.37939l-2.7124,0.68945l4.73535,13.28711h0.45996l4.50537-13.28711l-3.35596-0.68945
		v-1.37939h8.04541v1.37939l-2.85059,0.68945l-7.72363,23.17139c-1.70117,5.24121-3.77002,7.31006-7.21777,7.31006
		c-2.02295,0-3.03467-1.10352-3.03467-2.39062c0-1.01123,0.91943-1.93115,2.11523-1.93115
		c1.28711,0,1.74658,1.05762,3.21777,1.05762c1.79346,0,3.17236-2.52881,4.36768-7.63184l-7.08008-19.58545l-2.25244-0.68945
		v-1.37939H150.6416z"/>
	<path style="&st0;" d="M168.33984,27.30859c2.48242,0,4.36768,2.48291,4.36768,6.34473c0,4.96533-3.58594,8.18359-5.93066,9.5166
		l-1.05762-1.70117c1.88477-1.37891,3.86182-3.58594,3.86182-6.20654c0-3.12598-3.86182-2.7583-3.86182-5.56299
		C165.71924,28.64209,166.59277,27.30859,168.33984,27.30859z"/>
	<path style="&st0;" d="M210.17383,2.94238l-4.32178-0.68994V0.64355h10.02246v1.60889l-3.44775,0.68994l-10.29834,30.15918
		h-2.62061l-9.83887-30.15918l-3.58594-0.68994V0.64355h11.86133v1.60889l-3.81592,0.68994l7.40234,23.0791h0.73535
		L210.17383,2.94238z"/>
	<path style="&st0;" d="M228.60547,30.61914H228.146c-1.93115,2.02246-3.40234,3.03418-5.28711,3.03418
		c-2.34473,0-4.18408-3.35645-4.18408-5.42529c0-2.02246,1.10352-4.04541,3.63232-5.10303l6.48242-2.8042v-1.93115
		c0-3.03418-1.2876-4.36768-3.54004-4.36768c-1.01172,0-2.52881,0.64355-3.08057,1.47119
		c0.0459,0.55176,0.27588,1.70117,0.27588,2.62061c0,1.19531-0.96533,1.79297-2.02295,1.79297
		c-0.96533,0-1.79297-0.91943-1.79297-2.25244c0-1.01172,0.32178-1.93115,1.2876-2.75879
		c1.65479-1.14941,5.37891-3.44824,7.21777-3.44824c3.31006,0,5.05713,2.29883,5.05713,5.51709v11.72363
		c0,1.01123,0.18408,1.97705,1.19531,1.97705c0.78174,0,1.47119-0.91943,1.79346-1.70117l0.91943,0.36768
		c-1.10352,3.21826-3.26416,4.18359-4.64355,4.18359C229.93896,33.51514,228.74365,32.50391,228.60547,30.61914z
		 M228.83545,22.15967l-3.9541,1.79297c-1.01123,0.41357-2.57422,1.65527-2.57422,3.44824
		c0,1.70068,1.01123,3.17188,2.34473,3.17188c1.74707,0,4.18359-1.65479,4.18359-3.81592V22.15967z"/>
	<path style="&st0;" d="M242.1665,27.30859c2.48242,0,4.36768,2.48291,4.36768,6.34473c0,4.96533-3.58594,8.18359-5.93066,9.5166
		l-1.05762-1.70117c1.88477-1.37891,3.86182-3.58594,3.86182-6.20654c0-3.12598-3.86182-2.7583-3.86182-5.56299
		C239.5459,28.64209,240.41943,27.30859,242.1665,27.30859z"/>
	<path style="&st0;" d="M289.05713,0.64355l2.11523,8.82715h-1.79297l-4.64355-6.85059h-7.17236v28.18262l4.32178,0.68994v1.60889
		h-13.05713v-1.60889l4.32178-0.68994V2.62012h-7.17188l-4.64355,6.85059h-1.79297l2.11475-8.82715H289.05713z"/>
	<path style="&st0;" d="M312.0415,21.74561h-10.89648l-2.98828,9.05713l4.27539,0.68994v1.60889h-10.02246v-1.60889l3.35645-0.68994
		l10.39062-30.15918h2.62012l10.75781,30.15918l3.58594,0.68994v1.60889h-11.86133v-1.60889l4-0.68994L312.0415,21.74561z
		 M301.92627,19.49316h9.28711l-4.41309-12.45947h-0.73633L301.92627,19.49316z"/>
	<path style="&st0;" d="M353.87451,0.64355l2.11523,8.82715h-1.79297l-4.64355-6.85059h-7.17188v28.18262l4.32129,0.68994v1.60889
		H333.646v-1.60889l4.32129-0.68994V2.62012h-7.17188l-4.64355,6.85059h-1.79297l2.11523-8.82715H353.87451z"/>
	<path style="&st0;" d="M362.32959,27.76855c1.5625,0,2.85059,1.28711,2.85059,2.85059c0,1.56299-1.28809,2.8042-2.85059,2.8042
		c-1.56348,0-2.80469-1.24121-2.80469-2.8042C359.5249,29.05566,360.76611,27.76855,362.32959,27.76855z"/>
	<path style="&st0;" d="M376.39697,0.27539c2.48242,0,4.50586,2.48291,4.50586,6.34473c0,4.73535-3.31055,7.76953-5.47168,9.05713
		l-1.05664-1.70117c1.6543-1.28711,3.67773-3.31006,3.67773-5.74707c0-3.12598-3.8623-2.7583-3.8623-5.5625
		C374.18994,1.19531,375.06396,0.27539,376.39697,0.27539z M387.43115,0.27539c2.48242,0,4.50488,2.48291,4.50488,6.34473
		c0,4.73535-3.30957,7.76953-5.4707,9.05713l-1.05762-1.70117c1.65527-1.28711,3.67871-3.31006,3.67871-5.74707
		c0-3.12598-3.8623-2.7583-3.8623-5.5625C385.22412,1.19531,386.09717,0.27539,387.43115,0.27539z"/>
</g>
<g>
	<path style="&st0;" d="M422.54834,29.36719v3.73438h-1.93066V22.61133h1.93066v4.7417h0.08398l4.51074-4.7417h2.24512v0.10449
		l-4.7627,4.97266l5.09766,5.30811v0.10498h-2.47559l-4.1123-4.36426L422.54834,29.36719z"/>
	<path style="&st0;" d="M439.79736,24.26855h-5.09766v2.66455h4.46875v1.65771h-4.46875v2.85303h5.30762v1.65771h-7.23828V22.61133
		h7.02832V24.26855z"/>
	<path style="&st0;" d="M449.36768,28.88428l3.41992,3.94434v0.27295h-2.18262l-3.35645-4.02832h-1.2168v4.02832h-1.93066V22.61133
		h4.0498c2.16016,0,3.69238,1.30078,3.69238,3.20996C451.84326,27.43652,450.96143,28.52783,449.36768,28.88428z
		 M448.06689,24.16357h-2.03516v3.37793h1.99316c1.15332,0,1.8457-0.62939,1.8457-1.74121S449.11572,24.16357,448.06689,24.16357z"
		/>
	<path style="&st0;" d="M463.88916,29.42969h0.16797v-6.81836h1.93066v10.59521h-0.62988l-7.00781-6.90283h-0.16699v6.79785
		h-1.93066V22.50635h0.62988L463.88916,29.42969z"/>
	<path style="&st0;" d="M472.55713,33.10156h-1.92969V22.61133h1.92969V33.10156z"/>
	<path style="&st0;" d="M484.854,29.42969h0.16797v-6.81836h1.93066v10.59521h-0.62988l-7.00781-6.90283h-0.16699v6.79785h-1.93066
		V22.50635h0.62988L484.854,29.42969z"/>
	<path style="&st0;" d="M500.42529,32.03174c-0.96582,0.73389-2.64355,1.27979-4.28027,1.27979
		c-3.31543,0-5.62305-2.39209-5.62305-5.3291c0-3.50391,2.74902-5.58105,5.66504-5.58105c1.57324,0,2.95801,0.6084,3.62988,1.11182
		l-0.56641,1.7417c-0.44141-0.31494-1.57422-1.1333-3.10547-1.1123c-1.80469,0.021-3.67188,1.1333-3.67188,3.79785
		c0,2.11914,1.57324,3.62939,3.71387,3.62939c0.88086,0,1.7207-0.18848,2.26562-0.54541v-2.14014h-2.66406v-1.65723h4.63672
		V32.03174z"/>
	<path style="&st0;" d="M515.6626,33.31152c-3.16797,0-5.62305-2.3291-5.62305-5.3291c0-3.37793,2.66504-5.58105,5.62305-5.58105
		c2.89551,0,5.58105,2.14014,5.58105,5.58105C521.24365,30.77246,518.89404,33.31152,515.6626,33.31152z M515.64111,24.14258
		c-1.8877,0-3.62891,1.34277-3.62891,3.79785c0,1.86719,1.32129,3.62939,3.69238,3.62939c2.16113,0,3.56641-1.76221,3.56641-3.62939
		C519.271,25.69531,517.63428,24.14258,515.64111,24.14258z"/>
	<path style="&st0;" d="M531.94678,24.26855h-5.20312v2.76953h4.57324v1.65771h-4.57324v4.40576h-1.93066V22.61133h7.13379V24.26855
		z"/>
	<path style="&st0;" d="M542.43994,24.26855h-5.20312v2.76953h4.57324v1.65771h-4.57324v4.40576h-1.93066V22.61133h7.13379V24.26855
		z"/>
</g>
<g>
	<path style="&st0;" d="M4.50537,75.3623C2.02295,75.3623,0,72.87988,0,69.01758c0-4.73535,3.31006-7.76953,5.47119-9.05664
		l1.05713,1.70117c-1.65479,1.28711-3.67773,3.30957-3.67773,5.74609c0,3.12695,3.86182,2.75879,3.86182,5.56348
		C6.7124,74.35059,5.93066,75.3623,4.50537,75.3623z M15.53955,75.3623c-2.48242,0-4.50537-2.48242-4.50537-6.34473
		c0-4.73535,3.31006-7.76953,5.4707-9.05664l1.05762,1.70117c-1.65527,1.28711-3.67822,3.30957-3.67822,5.74609
		c0,3.12695,3.8623,2.75879,3.8623,5.56348C17.74658,74.35059,16.96484,75.3623,15.53955,75.3623z"/>
	<path style="&st0;" d="M37.19092,81.70703h-10.896l-2.98828,9.05664l4.27539,0.68945v1.60938H17.55957v-1.60938l3.35645-0.68945
		l10.39014-30.15918h2.62061l10.7583,30.15918l3.58594,0.68945v1.60938H36.40918v-1.60938l4-0.68945L37.19092,81.70703z
		 M27.07666,79.4541h9.28662l-4.41357-12.45898h-0.73535L27.07666,79.4541z"/>
	<path style="&st0;" d="M68.68066,62.90332l-4.27588-0.68945v-1.60938h10.02246v1.60938l-3.31006,0.68945l-8.91895,15.0791v12.78125
		l4.1377,0.68945v1.60938H53.64697v-1.60938l4.1377-0.68945V78.0752l-8.82715-15.17188l-3.40234-0.68945v-1.60938H57.4165v1.60938
		l-3.90771,0.68945l7.26416,12.50488h0.50586L68.68066,62.90332z"/>
	<path style="&st0;" d="M76.67725,87.26953c2.48242,0,4.36768,2.48242,4.36768,6.34473c0,4.96484-3.58594,8.18359-5.93066,9.5166
		l-1.05762-1.70117c1.88477-1.37891,3.86182-3.58594,3.86182-6.20605c0-3.12695-3.86182-2.75879-3.86182-5.56348
		C74.05664,88.60254,74.93018,87.26953,76.67725,87.26953z"/>
	<path style="&st0;" d="M121.82129,60.60449l2.11475,8.82715h-1.79297l-4.64355-6.85059h-7.17188v28.18262l4.32178,0.68945v1.60938
		h-13.05713v-1.60938l4.32178-0.68945V62.58105h-7.17188l-4.64355,6.85059h-1.79297l2.11475-8.82715H121.82129z"/>
	<path style="&st0;" d="M127.84082,72.00586v1.37988l-2.7124,0.68945l4.73535,13.28613h0.45996l4.50537-13.28613l-3.35596-0.68945
		v-1.37988h8.04541v1.37988l-2.85059,0.68945l-7.72363,23.1709c-1.70117,5.24121-3.77002,7.31055-7.21777,7.31055
		c-2.02295,0-3.03467-1.10352-3.03467-2.3916c0-1.01074,0.91943-1.93066,2.11523-1.93066c1.28711,0,1.74658,1.05762,3.21777,1.05762
		c1.79346,0,3.17236-2.52832,4.36768-7.63184L121.3125,74.0752l-2.25244-0.68945v-1.37988H127.84082z"/>
	<path style="&st0;" d="M140.98779,87.26953c2.48242,0,4.36768,2.48242,4.36768,6.34473c0,4.96484-3.58594,8.18359-5.93066,9.5166
		l-1.05762-1.70117c1.88477-1.37891,3.86182-3.58594,3.86182-6.20605c0-3.12695-3.86182-2.75879-3.86182-5.56348
		C138.36719,88.60254,139.24072,87.26953,140.98779,87.26953z"/>
	<path style="&st0;" d="M181.07471,62.90332l-4.32178-0.68945v-1.60938h10.02246v1.60938l-3.44775,0.68945L173.0293,93.0625
		h-2.62061l-9.83887-30.15918l-3.58594-0.68945v-1.60938h11.86133v1.60938l-3.81592,0.68945l7.40234,23.0791h0.73535
		L181.07471,62.90332z"/>
	<path style="&st0;" d="M194.81787,90.58008h-0.45947c-1.93115,2.02246-3.40234,3.03418-5.28711,3.03418
		c-2.34473,0-4.18408-3.35645-4.18408-5.4248c0-2.02344,1.10352-4.0459,3.63232-5.10352l6.48242-2.80469v-1.93066
		c0-3.03418-1.2876-4.36719-3.54004-4.36719c-1.01172,0-2.52881,0.64355-3.08057,1.4707
		c0.0459,0.55176,0.27588,1.70117,0.27588,2.62109c0,1.19531-0.96533,1.79297-2.02295,1.79297
		c-0.96533,0-1.79297-0.91992-1.79297-2.25293c0-1.01172,0.32178-1.93164,1.2876-2.75879
		c1.65479-1.14941,5.37891-3.44824,7.21777-3.44824c3.31006,0,5.05713,2.29883,5.05713,5.51758v11.72266
		c0,1.01172,0.18408,1.97754,1.19531,1.97754c0.78174,0,1.47119-0.91992,1.79297-1.70117l0.91992,0.36816
		c-1.10352,3.21777-3.26416,4.18359-4.64355,4.18359C196.15137,93.47656,194.95605,92.46484,194.81787,90.58008z
		 M195.04785,82.12012l-3.95361,1.79297c-1.01172,0.41406-2.57471,1.65527-2.57471,3.44824
		c0,1.70117,1.01123,3.17285,2.34473,3.17285c1.74707,0,4.18359-1.65527,4.18359-3.81641V82.12012z"/>
	<path style="&st0;" d="M208.37842,87.26953c2.48242,0,4.36768,2.48242,4.36768,6.34473c0,4.96484-3.58594,8.18359-5.93066,9.5166
		l-1.05762-1.70117c1.88477-1.37891,3.86182-3.58594,3.86182-6.20605c0-3.12695-3.86182-2.75879-3.86182-5.56348
		C205.75781,88.60254,206.63135,87.26953,208.37842,87.26953z"/>
	<path style="&st0;" d="M253.47656,60.60449l2.11475,8.82715h-1.79297l-4.64355-6.85059h-7.17188v28.18262l4.32178,0.68945v1.60938
		h-13.05713v-1.60938l4.32178-0.68945V62.58105h-7.17188l-4.64355,6.85059h-1.79297l2.11475-8.82715H253.47656z"/>
	<path style="&st0;" d="M273.37988,81.70703h-10.896l-2.98828,9.05664l4.27539,0.68945v1.60938h-10.02246v-1.60938l3.35645-0.68945
		l10.39014-30.15918h2.62061l10.75781,30.15918l3.58594,0.68945v1.60938h-11.86133v-1.60938l4-0.68945L273.37988,81.70703z
		 M263.26562,79.4541h9.28662l-4.41357-12.45898h-0.73535L263.26562,79.4541z"/>
	<path style="&st0;" d="M312.0415,60.60449l2.11523,8.82715h-1.79297l-4.64355-6.85059h-7.17188v28.18262l4.32129,0.68945v1.60938
		h-13.05664v-1.60938l4.32129-0.68945V62.58105h-7.17188l-4.64355,6.85059h-1.79297l2.11523-8.82715H312.0415z"/>
	<path style="&st0;" d="M316.40576,87.72949c1.5625,0,2.85059,1.28711,2.85059,2.85059c0,1.5625-1.28809,2.80469-2.85059,2.80469
		c-1.56348,0-2.80469-1.24219-2.80469-2.80469C313.60107,89.0166,314.84229,87.72949,316.40576,87.72949z"/>
	<path style="&st0;" d="M326.01318,60.23633c2.48242,0,4.50586,2.48242,4.50586,6.34473c0,4.73535-3.31055,7.76953-5.47168,9.05664
		l-1.05664-1.7002c1.6543-1.28809,3.67773-3.31055,3.67773-5.74707c0-3.12695-3.8623-2.75879-3.8623-5.56348
		C323.80615,61.15625,324.68018,60.23633,326.01318,60.23633z M337.04736,60.23633c2.48242,0,4.50488,2.48242,4.50488,6.34473
		c0,4.73535-3.30957,7.76953-5.4707,9.05664l-1.05762-1.7002c1.65527-1.28809,3.67871-3.31055,3.67871-5.74707
		c0-3.12695-3.8623-2.75879-3.8623-5.56348C334.84033,61.15625,335.71338,60.23633,337.04736,60.23633z"/>
</g>
<g>
	<path style="&st0;" d="M422.54834,89.32812v3.73438h-1.93066V82.57227h1.93066v4.74121h0.08398l4.51074-4.74121h2.24512v0.10449
		l-4.7627,4.97266l5.09766,5.30859v0.10449h-2.47559l-4.1123-4.36426L422.54834,89.32812z"/>
	<path style="&st0;" d="M439.79736,84.22949h-5.09766v2.66504h4.46875v1.65723h-4.46875v2.85352h5.30762v1.65723h-7.23828V82.57227
		h7.02832V84.22949z"/>
	<path style="&st0;" d="M449.36768,88.8457l3.41992,3.94434v0.27246h-2.18262l-3.35645-4.02832h-1.2168v4.02832h-1.93066V82.57227
		h4.0498c2.16016,0,3.69238,1.30078,3.69238,3.20996C451.84326,87.39746,450.96143,88.48828,449.36768,88.8457z M448.06689,84.125
		h-2.03516v3.37793h1.99316c1.15332,0,1.8457-0.62988,1.8457-1.74219C449.87061,84.64941,449.11572,84.125,448.06689,84.125z"/>
	<path style="&st0;" d="M463.88916,89.39062h0.16797v-6.81836h1.93066v10.59473h-0.62988l-7.00781-6.90234h-0.16699v6.79785
		h-1.93066V82.4668h0.62988L463.88916,89.39062z"/>
	<path style="&st0;" d="M472.55713,93.0625h-1.92969V82.57227h1.92969V93.0625z"/>
	<path style="&st0;" d="M484.854,89.39062h0.16797v-6.81836h1.93066v10.59473h-0.62988l-7.00781-6.90234h-0.16699v6.79785h-1.93066
		V82.4668h0.62988L484.854,89.39062z"/>
	<path style="&st0;" d="M500.42529,91.99219c-0.96582,0.73438-2.64355,1.28027-4.28027,1.28027
		c-3.31543,0-5.62305-2.3916-5.62305-5.3291c0-3.50391,2.74902-5.58105,5.66504-5.58105c1.57324,0,2.95801,0.6084,3.62988,1.1123
		l-0.56641,1.74121c-0.44141-0.31445-1.57422-1.13281-3.10547-1.1123c-1.80469,0.02148-3.67188,1.13281-3.67188,3.79785
		c0,2.11914,1.57324,3.62988,3.71387,3.62988c0.88086,0,1.7207-0.18945,2.26562-0.5459V88.8457h-2.66406v-1.6582h4.63672V91.99219z"
		/>
	<path style="&st0;" d="M515.6626,93.27246c-3.16797,0-5.62305-2.3291-5.62305-5.3291c0-3.37793,2.66504-5.58105,5.62305-5.58105
		c2.89551,0,5.58105,2.13965,5.58105,5.58105C521.24365,90.7334,518.89404,93.27246,515.6626,93.27246z M515.64111,84.10352
		c-1.8877,0-3.62891,1.34277-3.62891,3.79785c0,1.86719,1.32129,3.62988,3.69238,3.62988c2.16113,0,3.56641-1.7627,3.56641-3.62988
		C519.271,85.65625,517.63428,84.10352,515.64111,84.10352z"/>
	<path style="&st0;" d="M532.44971,89.39062h0.16797v-6.81836h1.93066v10.59473h-0.62988l-7.00781-6.90234h-0.16699v6.79785
		h-1.93066V82.4668h0.62988L532.44971,89.39062z"/>
</g>
</svg>
