<?xml version="1.0" encoding="utf-8"?>
<!-- Generator: Adobe Illustrator 15.1.0, SVG Export Plug-In . SVG Version: 6.00 Build 0)  -->
<!DOCTYPE svg PUBLIC "-//W3C//DTD SVG 1.1//EN" "http://www.w3.org/Graphics/SVG/1.1/DTD/svg11.dtd" [
	<!ENTITY st0 "fill:#231F20;">
]>
<svg version="1.1" id="Layer_1" xmlns="http://www.w3.org/2000/svg" xmlns:xlink="http://www.w3.org/1999/xlink" x="0px" y="0px"
	 width="613.10547px" height="102.04736px" viewBox="0 0 613.10547 102.04736"
	 style="enable-background:new 0 0 613.10547 102.04736;" xml:space="preserve">
<path style="&st0;" d="M613.04883,31.19189c0-0.34375,0-1.66211-1.60547-1.66211c-1.08984,0-1.375,0.74414-1.66211,1.7207
	c-2.06445,5.27344-4.01367,7.05273-9.97461,8.31445l-1.49023,3.32227h14.78906L613.04883,31.19189z M583.06445,11.354
	c0,0.34766,0,1.66406,1.60547,1.66406c1.14648,0,1.43555-0.74609,1.71875-1.71875c1.14648-4.24219,4.35742-7.05469,9.06055-7.9707
	l1.43359-3.32422h-13.81836V11.354z M613.10547,0.00439h-13.64453L581.97656,39.7915v3.0957h13.75781l17.37109-39.27148V0.00439z
	 M541.49805,13.36182c0,0.22852,0.17188,1.66211,1.89062,1.66211c1.60547,0,1.89453-1.48828,2.06641-2.75195
	c0.51758-3.03711,1.31836-6.82031,4.29883-8.94336V0.00439h-8.25586V13.36182z M577.2168,0.00439h-8.25586v3.32422
	c2.98047,2.12305,3.7832,5.90625,4.30078,8.94336c0.16992,1.26367,0.45898,2.75195,2.06445,2.75195
	c1.71875,0,1.89062-1.43359,1.89062-1.66211V0.00439z M552.33203,36.46924c0,2.12109,0.06055,2.46289-1.94727,3.0957
	c-0.74414,0.22656-1.26172,0.74414-1.26172,1.54688c0,1.66016,1.89258,1.77539,2.12305,1.77539h16.22266
	c0.23047,0,2.12305-0.11523,2.12305-1.77539c0-0.80273-0.51758-1.32031-1.26172-1.54688
	c-2.00781-0.63281-1.94727-0.97461-1.94727-3.0957V0.00439h-14.05078V36.46924z M516.73047,3.38721
	c2.86719,1.03125,3.49805,2.4082,3.49805,5.27539v6.9375c0,2.80859-0.40234,4.70312-3.49805,4.98633v3.38477
	c3.44336,0.33984,3.49805,3.55273,3.49805,6.1875v3.90039c0,2.69727,0.28711,5.2168,2.29297,7.2832
	c1.77734,1.77344,4.01172,2.40625,6.48047,2.40625c2.46289,0,4.52539-0.45898,6.47656-2.0625
	c1.26172-0.97656,3.15234-3.0957,3.15234-4.76172c0-0.80078-0.91406-1.66211-1.66211-1.66211
	c-1.375,0-1.54688,1.66211-2.46289,1.66211c-0.74805,0-0.57422-1.14648-0.57422-1.66211v-5.04297
	c-0.11523-6.07812-4.99023-7.56836-10.0918-8.3125v-0.11719c5.84766-1.375,10.20508-4.24219,10.0918-10.83398
	c-0.05859-4.35938-2.00781-7.51172-5.84766-9.40234c-3.43945-1.66602-7.33789-1.54883-11.06641-1.54883h-0.28711V3.38721z
	 M500.10742,36.46924c0,2.12109,0.05469,2.46289-1.95117,3.0957c-0.74805,0.22656-1.26172,0.74414-1.26172,1.54688
	c0,1.66016,1.89062,1.77539,2.11914,1.77539h16.22656c0.23047,0,2.12109-0.11523,2.12109-1.77539
	c0-0.80273-0.51562-1.32031-1.26172-1.54688c-2.00586-0.63281-1.94922-0.97461-1.94922-3.0957V0.00439h-15.13672
	c-0.22852,0-2.11914,0.11133-2.11914,1.77734c0,0.80273,0.51367,1.32031,1.26172,1.54688
	c2.00586,0.63281,1.95117,0.97656,1.95117,3.0957V36.46924z M471.72461,40.36963c-4.29883-1.26172-3.7832-5.79297-3.7832-6.36523
	V6.42432c0-2.11914-0.05664-2.46289,1.94922-3.0957c0.74609-0.22656,1.26172-0.74414,1.26172-1.54688
	c0-1.66602-1.89258-1.77734-2.12109-1.77734h-16.22656c-0.22852,0-2.11914,0.11133-2.11914,1.77734
	c0,0.80273,0.51367,1.32031,1.26172,1.54688c2.00391,0.63281,1.94727,0.97656,1.94727,3.0957v27.17773
	c0,2.86719,0.68945,5.04297,5.84766,7.9082c3.95703,2.17969,7.45508,2.23828,11.98242,2.23828V40.36963z M481.98828,30.56299
	c-0.34375,5.10352-2.4082,8.08203-7.68164,9.68555v3.38477c3.72461-0.05664,10.54883-3.49609,11.00586-12.95703V9.06299
	c0.91797-7.16797,4.58594-4.92969,4.58594-7.39648c0-1.7793-2.35156-1.66211-2.98047-1.66211h-6.53516
	c-0.63086,0-2.98047-0.11719-2.98047,1.66211c0,2.4668,3.66797,0.22852,4.58594,7.39648V30.56299z M419.15234,6.42432
	c0-2.11914-0.06055-2.46289,1.94727-3.0957c0.74414-0.22656,1.26172-0.74414,1.26172-1.54688
	c0-1.66602-1.89258-1.77734-2.12109-1.77734h-16.22461c-0.22852,0-2.12305,0.11133-2.12305,1.77734
	c0,0.80273,0.51758,1.32031,1.26172,1.54688c2.00781,0.63281,1.95117,0.97656,1.95117,3.0957v30.04492
	c0,2.12109,0.05664,2.46289-1.95117,3.0957c-0.74414,0.22656-1.26172,0.74414-1.26172,1.54688
	c0,1.66016,1.89453,1.77539,2.12305,1.77539h16.22461c0.22852,0,2.12109-0.11523,2.12109-1.77539
	c0-0.80273-0.51758-1.32031-1.26172-1.54688c-2.00781-0.63281-1.94727-0.97461-1.94727-3.0957V6.42432z M431.53711,12.4458
	l1.08789-1.49023c2.4082-3.26953,3.72656-5.44922,7.68164-6.93945c1.03125-0.40039,2.12109-0.80078,2.12109-2.12109
	c0-1.83398-1.66211-1.89062-3.03711-1.89062h-9.80469c-1.20508,0-2.80859-0.05664-2.80859,1.7207
	c0,1.14648,0.85938,1.37695,1.77734,1.77539c1.37695,0.57617,2.17773,1.37695,2.17773,2.92383
	c0,1.37891-0.68555,2.52344-1.49023,3.61328l-6.65039,9.46094c-0.6875,0.97266-1.32031,1.7168-1.32031,2.92383
	c0,1.20117,0.4043,2.40625,0.74805,3.49414l3.55469,10.66406c0.16992,0.4043,0.45898,1.26172,0.45898,1.72266
	c0,1.26172-2.35156,0.91602-2.35156,2.80859c0,1.77539,1.71875,1.77539,3.03711,1.77539h14.39062
	c1.14648,0,3.03906,0.11719,3.03906-1.54492c0-1.09375-0.51562-1.43555-1.375-1.83789
	c-1.32031-0.63086-1.49219-1.60352-2.00781-2.86523L431.53711,12.4458z M370.36523,37.55713
	c0-3.32422-2.63867-6.19141-6.19336-6.19141c-3.55664,0-6.19141,2.86719-6.19141,6.19141s2.63477,6.19141,6.19141,6.19141
	C367.72656,43.74854,370.36523,40.88135,370.36523,37.55713 M328.05273,0.00439h-14.73633
	c-1.20117,0.05664-2.92383,0.05664-2.92383,1.77734c0,1.26172,0.74609,1.49023,1.72266,1.83398
	c1.89062,0.62891,2.17969,1.49023,3.09375,3.09766l20.98633,36.17383h8.53906V29.01416L328.05273,0.00439z M341.41016,18.52393
	l3.20898,5.78711h0.11523V10.38135c0-8.19922,4.70312-6.02148,4.70312-8.65625c0-1.60938-1.89062-1.7207-2.4668-1.7207h-7.79492
	c-0.57227,0-2.46875,0.11133-2.46875,1.7207c0,2.63477,4.70312,0.45703,4.70312,8.65625V18.52393z M314.86719,33.83252
	c-0.91797,7.16406-4.58984,4.92578-4.58984,7.39453c0,1.77734,2.34961,1.66016,2.98242,1.66016h6.53711
	c0.62891,0,2.98242,0.11719,2.98242-1.66016c0-2.46875-3.66992-0.23047-4.58789-7.39453V16.51416l-3.21094-5.73242h-0.11328
	V33.83252z M261.26172,0.00439h-14.67773c-1.14648,0-2.58008,0.17188-2.58008,1.66211c0,1.43555,1.08984,1.60547,2.23633,2.00586
	c1.08789,0.34375,0.97266,1.89453,0.97266,2.75195v30.04492c0,2.12109,0.05859,2.46289-1.94922,3.0957
	c-0.74414,0.22656-1.25977,0.74414-1.25977,1.54688c0,1.66016,1.43359,1.77539,2.69531,1.77539h14.5625V0.00439z M263.83984,3.32861
	c3.49805,0.45898,3.66992,3.72852,3.66992,5.90625v24.42188c0,2.17969-0.17188,5.45117-3.66992,5.9082v3.32227
	c9.51758,0,19.20703-7.96875,18.57617-21.44336c-0.68945-14.79102-8.83008-21.55664-18.57617-21.43945V3.32861z M219.00586,3.38721
	c2.86719,1.03125,3.49609,2.4082,3.49609,5.27539v6.9375c0,2.80859-0.40039,4.70312-3.49609,4.98633v3.38477
	c3.44141,0.33984,3.49609,3.55273,3.49609,6.1875v3.90039c0,2.69727,0.28906,5.2168,2.29297,7.2832
	c1.7793,1.77344,4.01367,2.40625,6.48047,2.40625c2.46289,0,4.52734-0.45898,6.47656-2.0625
	c1.26172-0.97656,3.1543-3.0957,3.1543-4.76172c0-0.80078-0.91602-1.66211-1.66211-1.66211
	c-1.37695,0-1.54688,1.66211-2.46484,1.66211c-0.74609,0-0.57227-1.14648-0.57227-1.66211v-5.04297
	c-0.11523-6.07812-4.99023-7.56836-10.0918-8.3125v-0.11719c5.84766-1.375,10.20508-4.24219,10.0918-10.83398
	c-0.05859-4.35938-2.00977-7.51172-5.84766-9.40234c-3.44141-1.66602-7.33984-1.54883-11.06836-1.54883h-0.28516V3.38721z
	 M202.38086,36.46924c0,2.12109,0.05469,2.46289-1.94922,3.0957c-0.74805,0.22656-1.26172,0.74414-1.26172,1.54688
	c0,1.66016,1.89062,1.77539,2.11914,1.77539h16.22656c0.22852,0,2.12109-0.11523,2.12109-1.77539
	c0-0.80273-0.51562-1.32031-1.26172-1.54688c-2.00586-0.63281-1.94922-0.97461-1.94922-3.0957V0.00439h-15.13672
	c-0.22852,0-2.11914,0.11133-2.11914,1.77734c0,0.80273,0.51367,1.32031,1.26172,1.54688
	c2.00391,0.63281,1.94922,0.97656,1.94922,3.0957V36.46924z M175.60742,36.18018c0.51367,2.23438,0.28516,2.63867-1.20508,3.49609
	c-0.74414,0.4043-1.08789,0.69336-1.08789,1.60547c0,1.49023,1.66016,1.60547,2.80664,1.60547h14.27734
	c1.08789,0,3.15234,0.05859,3.15234-1.48828c0-1.0293-0.62891-1.43359-1.43164-1.77734
	c-1.60547-0.68945-1.66406-1.7793-2.00781-3.38086l-8.59961-36.23633H168.8418l-0.74609,3.09766l5.79102,25.33789h-6.99414
	l-0.80273,3.32812h8.37109L175.60742,36.18018z M166.83398,8.03174h-0.16992l-6.88086,25.16797
	c-1.08984,4.07031-2.63672,5.39062-3.8418,6.01953c-1.26172,0.63281-2.23438,0.57227-2.23438,1.95117
	c0,1.66211,2.06445,1.7168,3.20898,1.7168h6.5918c1.14844,0,2.98242,0.05859,2.98242-1.54492
	c0-1.14844-0.80273-1.49023-1.7207-1.89453c-1.94922-0.85742-2.75195-1.83398-1.83398-5.33008l5.38867-19.60742L166.83398,8.03174z
	 M139.77344,42.88721h12.09766V30.15869c0-1.08789-0.11328-2.17773-1.43359-2.17773c-1.20312,0-1.89062,0.34375-2.17969,1.60547
	c-1.20312,5.33203-3.83984,9.3457-8.48438,9.97852V42.88721z M137.19531,6.42432c0-2.11914-0.05859-2.46289,1.94727-3.0957
	c0.74414-0.22656,1.26172-0.74414,1.26172-1.54688c0-1.66602-1.89258-1.77734-2.12109-1.77734h-16.22461
	c-0.22852,0-2.12109,0.11133-2.12109,1.77734c0,0.80273,0.51562,1.32031,1.25977,1.54688
	c2.00781,0.63281,1.94922,0.97656,1.94922,3.0957v30.04492c0,2.12109,0.05859,2.46289-1.94922,3.0957
	c-0.74414,0.22656-1.25977,0.74414-1.25977,1.54688c0,1.66016,1.89258,1.77539,2.12109,1.77539h15.13672V6.42432z
	 M103.25391,42.88721h12.09766V30.15869c0-1.08789-0.11328-2.17773-1.43359-2.17773c-1.20312,0-1.89062,0.34375-2.17969,1.60547
	c-1.20117,5.33203-3.83984,9.3457-8.48438,9.97852V42.88721z M100.67578,6.42432c0-2.11914-0.05859-2.46289,1.94727-3.0957
	c0.74609-0.22656,1.26172-0.74414,1.26172-1.54688c0-1.66602-1.89258-1.77734-2.12109-1.77734H85.53906
	c-0.22852,0-2.12109,0.11133-2.12109,1.77734c0,0.80273,0.51562,1.32031,1.25977,1.54688
	c2.00781,0.63281,1.94922,0.97656,1.94922,3.0957v30.04492c0,2.12109,0.05859,2.46289-1.94922,3.0957
	c-0.74414,0.22656-1.25977,0.74414-1.25977,1.54688c0,1.66016,1.89258,1.77539,2.12109,1.77539h15.13672V6.42432z M73.04102,6.42432
	c0-2.11914-0.05859-2.46289,1.94922-3.0957c0.74414-0.22656,1.26172-0.74414,1.26172-1.54688
	c0-1.66602-1.89453-1.77734-2.12305-1.77734H57.9043c-0.22852,0-2.12109,0.11133-2.12109,1.77734
	c0,0.80273,0.51758,1.32031,1.26172,1.54688c2.00781,0.63281,1.94922,0.97656,1.94922,3.0957v30.04492
	c0,2.12109,0.05859,2.46289-1.94922,3.0957c-0.74414,0.22656-1.26172,0.74414-1.26172,1.54688
	c0,1.66016,1.89258,1.77539,2.12109,1.77539h16.22461c0.22852,0,2.12305-0.11523,2.12305-1.77539
	c0-0.80273-0.51758-1.32031-1.26172-1.54688c-2.00781-0.63281-1.94922-0.97461-1.94922-3.0957V6.42432z M41.73828,23.68213
	l0.11523,0.05664l3.66797-14.5625c0.74414-2.86523,1.49023-4.87109,4.35742-6.13281
	c0.74609-0.34375,1.20312-0.57227,1.20312-1.43555c0-1.49219-1.25977-1.60352-2.34961-1.60352h-7.39648
	c-1.0293,0-2.23633,0.23242-2.23633,1.54883c0,2.11914,3.61133,1.66211,3.61133,4.64258c0,0.86133-0.22852,1.54688-0.40039,2.35156
	l-2.17773,8.94336L41.73828,23.68213z M26.60156,0.00439l-3.89844,15.25l7.45312,27.63281h6.82227l3.61328-14.27344
	L33.07812,0.00439H26.60156z M23.62109,27.6958L17.94336,6.65283c-0.16992-0.57227-0.28516-0.91406-0.28516-1.42969
	c0-2.12109,2.58203-1.60742,2.58203-3.55664c0-1.83398-2.00781-1.66211-3.26953-1.66211H3.66797
	C2.34961,0.00439,0,0.00439,0,1.89502c0,1.0332,0.51367,1.32031,1.375,1.7207c1.0332,0.46094,1.14844,0.85742,1.43555,1.95117
	l10.20117,37.32031h6.82422L23.62109,27.6958z"/>
<path style="&st0;" d="M490.86133,89.11768l0.07227,0.03516l2.36914-9.38281c0.47852-1.8457,0.96094-3.13867,2.80469-3.95117
	c0.48242-0.22266,0.77734-0.37305,0.77734-0.92578c0-0.95898-0.8125-1.03516-1.51562-1.03516h-4.76367
	c-0.66406,0-1.4375,0.15039-1.4375,1.00195c0,1.36719,2.32617,1.06836,2.32617,2.99023c0,0.55273-0.14844,0.99609-0.26172,1.51367
	l-1.40039,5.76172L490.86133,89.11768z M481.10938,73.85791l-2.51172,9.83008l4.80273,17.80664h4.39648l2.32617-9.20117
	l-4.83984-18.43555H481.10938z M479.18945,91.69971l-3.6582-13.55078c-0.11133-0.37305-0.1875-0.5918-0.1875-0.92578
	c0-1.36914,1.66602-1.03516,1.66602-2.29492c0-1.17969-1.29492-1.07031-2.10742-1.07031h-8.56836
	c-0.85156,0-2.36523,0-2.36523,1.2207c0,0.66602,0.33008,0.84961,0.88672,1.10938c0.66602,0.29297,0.74023,0.55664,0.92188,1.25391
	l6.57617,24.05273H476.75L479.18945,91.69971z M451.40234,97.17041c0.33203,1.44336,0.18555,1.70117-0.77539,2.25391
	c-0.48242,0.25781-0.70312,0.44336-0.70312,1.03516c0,0.96094,1.07227,1.03516,1.81055,1.03516h9.19922
	c0.70312,0,2.0332,0.03516,2.0332-0.96094c0-0.66602-0.4082-0.92578-0.92578-1.14453
	c-1.03516-0.44336-1.06836-1.14844-1.29102-2.18555l-5.54102-23.3457h-8.16797L446.5625,75.854l3.73242,16.33398h-4.50977
	l-0.51758,2.13477h5.39453L451.40234,97.17041z M445.75195,79.03369h-0.11133l-4.43164,16.21484
	c-0.70703,2.62305-1.70117,3.47461-2.47656,3.87695c-0.8125,0.4082-1.43945,0.37305-1.43945,1.25977
	c0,1.07031,1.33008,1.10938,2.06641,1.10938h4.24805c0.74023,0,1.92188,0.03516,1.92188-1
	c0-0.73633-0.51758-0.96094-1.10938-1.21875c-1.25781-0.55273-1.77344-1.17969-1.18359-3.43555l3.47461-12.63477L445.75195,79.03369
	z M428.31641,101.49463h7.78906v-8.20117c0-0.69727-0.07422-1.4043-0.92383-1.4043c-0.77344,0-1.2168,0.22461-1.40234,1.03516
	c-0.77344,3.43945-2.47461,6.02148-5.46289,6.42969V101.49463z M426.64648,77.99854c0-1.36719-0.03711-1.5918,1.26172-1.99414
	c0.48047-0.15039,0.8125-0.48438,0.8125-1.00195c0-1.06836-1.2207-1.14453-1.36914-1.14453h-10.45312
	c-0.14844,0-1.36719,0.07617-1.36719,1.14453c0,0.51758,0.33203,0.85156,0.81445,1.00195
	c1.29102,0.40234,1.25586,0.62695,1.25586,1.99414v19.35938c0,1.36914,0.03516,1.58789-1.25586,1.99609
	c-0.48242,0.15039-0.81445,0.47852-0.81445,0.99609c0,1.07031,1.21875,1.14453,1.36719,1.14453h9.74805V77.99854z
	 M374.74219,82.46338c0,0.14844,0.10938,1.07422,1.2168,1.07422c1.03516,0,1.21875-0.96484,1.33203-1.77539
	c0.33008-1.95703,0.84766-4.39453,2.76562-5.76367v-2.14062h-5.31445V82.46338z M397.75781,73.85791h-5.32031v2.14062
	c1.91992,1.36914,2.4375,3.80664,2.77148,5.76367c0.10938,0.81055,0.29297,1.77539,1.32812,1.77539
	c1.10547,0,1.2207-0.92578,1.2207-1.07422V73.85791z M381.72266,97.354c0,1.36914,0.03906,1.5918-1.25781,1.99609
	c-0.48047,0.14844-0.8125,0.48242-0.8125,1c0,1.07031,1.21875,1.14453,1.36719,1.14453h10.45703
	c0.14844,0,1.36914-0.07422,1.36914-1.14453c0-0.51758-0.33398-0.85156-0.81445-1c-1.29688-0.4043-1.25977-0.62695-1.25977-1.99609
	V73.85791h-9.04883V97.354z M361.25195,97.17041c0.33203,1.44336,0.18555,1.70117-0.77539,2.25391
	c-0.48047,0.25781-0.70312,0.44336-0.70312,1.03516c0,0.96094,1.07031,1.03516,1.81055,1.03516h9.19922
	c0.70117,0,2.0332,0.03516,2.0332-0.96094c0-0.66602-0.40625-0.92578-0.92383-1.14453
	c-1.03516-0.44336-1.07227-1.14844-1.29297-2.18555l-5.54492-23.3457h-8.16211l-0.48242,1.99609l3.73242,16.33398h-4.50586
	l-0.51758,2.13477h5.39453L361.25195,97.17041z M355.59961,79.03369h-0.10938l-4.43359,16.21484
	c-0.70312,2.62305-1.69922,3.47461-2.47461,3.87695c-0.8125,0.4082-1.44141,0.37305-1.44141,1.25977
	c0,1.07031,1.33203,1.10938,2.06836,1.10938h4.24414c0.74219,0,1.92188,0.03516,1.92188-1
	c0-0.73633-0.51758-0.96094-1.10742-1.21875c-1.25586-0.55273-1.77344-1.17969-1.18164-3.43555l3.47266-12.63477L355.59961,79.03369
	z M314.77734,97.354c0,1.36914,0.03516,1.5918-1.25391,1.99609c-0.48242,0.14844-0.81641,0.48242-0.81641,1
	c0,1.07031,1.21875,1.14453,1.36914,1.14453h10.45117c0.14844,0,1.36523-0.07422,1.36523-1.14453
	c0-0.51758-0.33008-0.85156-0.81445-1c-1.29102-0.4043-1.25391-0.62695-1.25391-1.99609v-8.53125l-4.58008-10.45508
	c-0.18164-0.44336-0.36914-0.92578-0.36914-1.4043c0-0.51758,0.29688-0.66602,0.70508-0.88477
	c0.40234-0.25977,0.81055-0.55859,0.81055-1.10938c0-1.17969-1.21875-1.11133-2.0332-1.11133h-9.12305
	c-0.77734,0-1.95898-0.06836-1.95898,1.07031c0,0.63281,0.36914,0.81641,0.85156,1.07617
	c0.62695,0.40234,0.8125,0.88477,1.07031,1.55273l5.58008,13.22266V97.354z M324.60156,86.7876l3.62305-7.94141
	c0.69922-1.51367,1.10352-2.06641,2.61914-2.69336c0.51758-0.22461,0.92383-0.48242,0.92383-1.10938
	c0-1.10938-1.0332-1.18555-1.88281-1.18555h-4.09961c-0.88477,0-2.40039-0.18359-2.40039,1.14453
	c0,1.51953,2.51367,0.70703,2.51367,2.92188c0,0.74219-0.26172,1.32812-0.55664,1.95703l-1.91992,4.2832L324.60156,86.7876z
	 M295.49023,88.49072c1.54883,0.4082,2.25,1.8457,2.58398,3.25c0.18359,0.63086,0.4043,1.21875,1.17969,1.21875
	c1.14453,0,0.96094-1.32812,0.96094-1.62305V83.354c0-0.29883,0.18359-1.62695-0.96094-1.62695
	c-0.77539,0-0.99609,0.5918-1.17969,1.21875c-0.33398,1.4043-1.03516,2.84766-2.58398,3.25586V88.49072z M295.49023,101.49463
	h8.49414v-7.38477c0-0.15039,0.10938-1.25977-1.07031-1.25977c-0.66602,0-0.88672,0.5918-1.14844,1.14453
	c-0.99609,2.95703-3.2832,4.99219-6.27539,5.35938V101.49463z M295.49023,75.99854c3.25,0.51758,5.13281,2.33008,6.09375,5.32617
	c0.18164,0.55078,0.36914,0.91992,0.99609,0.91992c1.10742,0,1.14258-0.70117,1.14258-0.88672v-7.5h-8.23242V75.99854z
	 M282.70703,75.00244c0,0.51758,0.33008,0.84766,0.8125,0.99609c1.29297,0.4082,1.25586,0.62695,1.25586,1.99609v19.36328
	c0,1.36914,0.03711,1.58789-1.25586,1.99609c-0.48242,0.15039-0.8125,0.47852-0.8125,0.99609
	c0,1.07031,1.2168,1.14453,1.36523,1.14453h9.75V73.85791h-9.75C283.92383,73.85791,282.70703,73.93408,282.70703,75.00244
	 M264.7832,73.85791h-9.49023c-0.7793,0.04102-1.88672,0.04102-1.88672,1.14453c0,0.81641,0.48047,0.96094,1.10742,1.18555
	c1.2207,0.4082,1.40625,0.96094,1.99609,1.99609l13.52148,23.31055h5.50195v-8.94336L264.7832,73.85791z M273.39648,85.79346
	l2.06445,3.72656h0.07227v-8.97266c0-5.28125,3.03125-3.87695,3.03125-5.57812c0-1.03516-1.21875-1.11133-1.58789-1.11133h-5.02148
	c-0.37109,0-1.58789,0.07617-1.58789,1.11133c0,1.70117,3.0293,0.29688,3.0293,5.57812V85.79346z M256.28711,95.65674
	c-0.58984,4.61914-2.95508,3.17578-2.95508,4.76758c0,1.14062,1.51562,1.07031,1.92188,1.07031h4.20898
	c0.40625,0,1.91992,0.07031,1.91992-1.07031c0-1.5918-2.36328-0.14844-2.95312-4.76758v-11.1582l-2.06836-3.69141h-0.07422V95.65674
	z M236.88867,76.0376c1.85156,0.66211,2.25586,1.55273,2.25586,3.40039v4.46875c0,1.81055-0.25781,3.03125-2.25586,3.21484
	l0.00391,2.17969c2.2168,0.21875,2.25195,2.28906,2.25195,3.98633v2.51367c0,1.73633,0.18555,3.36328,1.47656,4.69336
	c1.14648,1.14453,2.58594,1.55273,4.17578,1.55273c1.58789,0,2.91602-0.29492,4.17188-1.33008
	c0.8125-0.63086,2.0332-1.99414,2.0332-3.07031c0-0.51172-0.5918-1.07031-1.07031-1.07031c-0.89062,0-1,1.07031-1.58984,1.07031
	c-0.48047,0-0.37109-0.73633-0.37109-1.07031v-3.24805c-0.07422-3.91797-3.21289-4.87891-6.5-5.36133v-0.06836
	c3.76758-0.89258,6.57422-2.73828,6.5-6.98242c-0.03516-2.8125-1.29102-4.84375-3.76562-6.05664
	c-2.2168-1.07031-4.72656-1.00195-7.13086-1.00195h-0.18555V76.0376z M226.17773,97.354c0,1.36914,0.03516,1.5918-1.25586,1.99609
	c-0.48242,0.14844-0.81445,0.48242-0.81445,1c0,1.07031,1.21875,1.14453,1.36719,1.14453h10.45117
	c0.14844,0,1.36914-0.07422,1.36914-1.14453c0-0.51758-0.33203-0.85156-0.81445-1c-1.29297-0.4043-1.25391-0.62695-1.25391-1.99609
	V73.85791h-9.75195c-0.14844,0-1.36719,0.07617-1.36719,1.14453c0,0.51758,0.33203,0.84766,0.81445,0.99609
	c1.29102,0.4082,1.25586,0.62695,1.25586,1.99609V97.354z M208.47852,102.04736c7.83008-0.70117,11.48633-7.01758,11.48633-14.36914
	c0-7.35547-3.65625-13.66992-11.48633-14.37109v2.13867c1.73828,0.63281,1.88477,1.74219,1.88477,2.66211v19.13672
	c0,0.91992-0.14648,2.03125-1.88477,2.66211V102.04736z M206.81445,73.30713c-7.83398,0.70117-11.49023,7.01562-11.49023,14.37109
	c0,7.35156,3.65625,13.66797,11.49023,14.36914v-2.14062c-1.73828-0.63086-1.88672-1.74219-1.88672-2.66211V78.10791
	c0-0.91992,0.14844-2.0293,1.88672-2.66211V73.30713z M169.9043,82.46338c0,0.14844,0.11328,1.07422,1.2207,1.07422
	c1.0332,0,1.21875-0.96484,1.32812-1.77539c0.33203-1.95703,0.84766-4.39453,2.76953-5.76367v-2.14062h-5.31836V82.46338z
	 M192.91992,73.85791h-5.31445v2.14062c1.91797,1.36914,2.43555,3.80664,2.76562,5.76367
	c0.11328,0.81055,0.29492,1.77539,1.33008,1.77539c1.10938,0,1.21875-0.92578,1.21875-1.07422V73.85791z M176.88867,97.354
	c0,1.36914,0.03711,1.5918-1.25781,1.99609c-0.48242,0.14844-0.81445,0.48242-0.81445,1c0,1.07031,1.21875,1.14453,1.37109,1.14453
	h10.45312c0.14844,0,1.36914-0.07422,1.36914-1.14453c0-0.51758-0.33203-0.85156-0.8125-1
	c-1.29688-0.4043-1.25977-0.62695-1.25977-1.99609V73.85791h-9.04883V97.354z M143.82227,82.46338
	c0,0.14844,0.10938,1.07422,1.21875,1.07422c1.03125,0,1.21875-0.96484,1.32812-1.77539
	c0.33203-1.95703,0.84766-4.39453,2.76953-5.76367v-2.14062h-5.31641V82.46338z M166.83398,73.85791h-5.31445v2.14062
	c1.91797,1.36914,2.43555,3.80664,2.76953,5.76367c0.10938,0.81055,0.29492,1.77539,1.32617,1.77539
	c1.10938,0,1.21875-0.92578,1.21875-1.07422V73.85791z M150.80469,97.354c0,1.36914,0.03711,1.5918-1.25781,1.99609
	c-0.48242,0.14844-0.81641,0.48242-0.81641,1c0,1.07031,1.22266,1.14453,1.37109,1.14453h10.45508
	c0.14648,0,1.36719-0.07422,1.36719-1.14453c0-0.51758-0.33008-0.85156-0.8125-1c-1.29688-0.4043-1.25781-0.62695-1.25781-1.99609
	V73.85791h-9.04883V97.354z M130.33008,97.17041c0.33398,1.44336,0.18555,1.70117-0.77539,2.25391
	c-0.48047,0.25781-0.70117,0.44336-0.70117,1.03516c0,0.96094,1.07227,1.03516,1.81055,1.03516h9.19922
	c0.70312,0,2.0332,0.03516,2.0332-0.96094c0-0.66602-0.4082-0.92578-0.92578-1.14453
	c-1.0332-0.44336-1.07031-1.14844-1.29102-2.18555l-5.54102-23.3457h-8.16797l-0.47852,1.99609l3.73047,16.33398h-4.50781
	l-0.51758,2.13477h5.39453L130.33008,97.17041z M124.68164,79.03369h-0.10938l-4.43359,16.21484
	c-0.70312,2.62305-1.70312,3.47461-2.47852,3.87695c-0.81055,0.4082-1.43945,0.37305-1.43945,1.25977
	c0,1.07031,1.33008,1.10938,2.06836,1.10938h4.24609c0.74023,0,1.92188,0.03516,1.92188-1
	c0-0.73633-0.51758-0.96094-1.10938-1.21875c-1.25391-0.55273-1.77148-1.17969-1.18164-3.43555l3.47266-12.63477L124.68164,79.03369
	z"/>
</svg>
