<?xml version="1.0" encoding="utf-8"?>
<!-- Generator: Adobe Illustrator 15.1.0, SVG Export Plug-In . SVG Version: 6.00 Build 0)  -->
<!DOCTYPE svg PUBLIC "-//W3C//DTD SVG 1.1//EN" "http://www.w3.org/Graphics/SVG/1.1/DTD/svg11.dtd" [
	<!ENTITY st0 "fill:#231F20;">
]>
<svg version="1.1" id="Layer_1" xmlns="http://www.w3.org/2000/svg" xmlns:xlink="http://www.w3.org/1999/xlink" x="0px" y="0px"
	 width="599.16309px" height="96.99756px" viewBox="0 0 599.16309 96.99756" style="enable-background:new 0 0 599.16309 96.99756;"
	 xml:space="preserve">
<g>
	<path style="&st0;" d="M9.11084,19.87842V32.5459l4.82373,0.73096v1.70508H0v-1.70508l4.38477-0.73096V3.021L0,2.29004V0.58447
		h12.32666c5.65137,0,12.08252,2.67969,12.08252,9.79297c0,5.84668-4.62842,9.50098-12.32617,9.50098H9.11084z M9.11084,17.63721
		h3.6543c3.65381,0,6.77197-2.67969,6.77197-6.96729c0-5.5542-2.82568-7.55176-7.21045-7.55176H9.11084V17.63721z"/>
	<path style="&st0;" d="M42.82568,22.94775H31.27881l-3.16699,9.59814l4.53125,0.73096v1.70508H22.02197v-1.70508l3.55664-0.73096
		L36.58936,0.58447h2.77734L50.76758,32.5459l3.80029,0.73096v1.70508H41.99756v-1.70508l4.23877-0.73096L42.82568,22.94775z
		 M32.10693,20.56055h9.8418L37.27148,7.35693h-0.7793L32.10693,20.56055z"/>
	<path style="&st0;" d="M56.17529,34.98193v-1.70508l4.38477-0.73096V3.021l-4.38477-0.73096V0.58447h13.64209v1.70557
		L65.2373,3.021v29.86572h11.49854l4.9209-7.50293h1.8999l-1.75391,9.59814H56.17529z"/>
	<path style="&st0;" d="M105.23779,22.94775H93.69092l-3.16699,9.59814l4.53125,0.73096v1.70508H84.43408v-1.70508l3.55664-0.73096
		L99.00146,0.58447h2.77734l11.40088,31.96143l3.80029,0.73096v1.70508h-12.57031v-1.70508l4.23877-0.73096L105.23779,22.94775z
		 M94.51904,20.56055h9.8418L99.68359,7.35693h-0.7793L94.51904,20.56055z"/>
	<path style="&st0;" d="M146.26074,25.14014h1.26709v6.6748c-3.55664,2.09521-6.96729,3.75146-13.05762,3.75146
		c-9.11084,0-16.5166-6.28467-16.5166-17.73438C117.95361,6.86963,126.0415,0,135.63965,0
		c3.80029,0,8.18506,1.60791,11.49805,3.45947v6.86963h-1.31543c-1.99756-5.99268-6.28516-8.13672-10.18262-8.13672
		c-6.62598,0-12.47266,4.87207-12.47266,15.59082c0,10.37793,6.1875,15.34717,11.83936,15.34717
		C140.41406,33.13037,144.55566,30.25586,146.26074,25.14014z"/>
	<path style="&st0;" d="M172.08301,32.88672l4.43359-7.01562h1.8999l-1.75391,9.11084h-25.82227v-1.70508l4.38477-0.73096V3.021
		l-4.38477-0.73096V0.58447h24.31201l0.7793,7.64941h-1.8999l-3.45947-5.5542h-10.66992v13.00879h7.16211l1.55908-4.48242h1.70557
		v11.69287h-1.70557l-1.55908-4.82324h-7.16211v14.81104H172.08301z"/>
</g>
<g>
	<path style="&st0;" d="M262.81494,9.74414l1.16943,7.11328h-1.85156l-3.21582-5.06689h-5.45654v20.85254l3.89746,0.73096v1.60791
		h-12.13135v-1.60791l3.89746-0.73096V11.79053h-5.45654l-3.26465,5.06689h-1.80273l1.16943-7.11328H262.81494z"/>
	<path style="&st0;" d="M294.67871,9.74414v1.60791l-3.60547,0.73096v20.56006l3.60547,0.73096v1.60791h-11.54736v-1.60791
		l3.60547-0.73096v-9.64648h-12.76465v9.64648l3.55664,0.73096v1.60791h-11.49854v-1.60791l3.60547-0.73096V12.08301
		l-3.60547-0.73096V9.74414h11.49854v1.60791l-3.55664,0.73096v8.91602h12.76465v-8.91602l-3.60547-0.73096V9.74414H294.67871z"/>
	<path style="&st0;" d="M310.26904,9.74414v1.60791l-3.55664,0.73096v20.56006l3.55664,0.73096v1.60791H298.771v-1.60791
		l3.60547-0.73096V12.08301l-3.60547-0.73096V9.74414H310.26904z"/>
	<path style="&st0;" d="M331.70605,32.83838l2.82617-4.58008h1.85156l-1.02344,6.72363h-20.9502v-1.60791l3.60547-0.73096V12.08301
		l-3.60547-0.73096V9.74414h19.68359l0.63379,6.0415h-1.80273l-2.53418-3.89746h-8.03906v9.11084h5.16504l1.31543-2.92334h1.31543
		v8.13623h-1.31543l-1.31543-3.21533h-5.16504v9.8418H331.70605z"/>
	<path style="&st0;" d="M359.03906,9.74414l0.68262,6.0415h-1.85156l-2.58203-3.89746h-8.23438v9.11084h5.4082l1.31543-2.92334
		h1.31543v8.13623h-1.31543l-1.31543-3.21533h-5.4082v9.64648l3.75195,0.73096v1.60791H339.1123v-1.60791l3.60547-0.73096V12.08301
		l-3.60547-0.73096V9.74414H359.03906z"/>
</g>
<g>
	<path style="&st0;" d="M417.68945,31.08887h0.17773V23.8584h2.04688v11.23486h-0.66699l-7.43066-7.31934h-0.17773v7.20801h-2.04688
		V23.74707h0.66699L417.68945,31.08887z"/>
	<path style="&st0;" d="M429.65527,35.20459c-3.35938,0-5.96289-2.46973-5.96289-5.65088c0-3.58203,2.82617-5.91797,5.96289-5.91797
		c3.07031,0,5.91797,2.26904,5.91797,5.91797C435.57324,32.5127,433.08105,35.20459,429.65527,35.20459z M429.63281,25.48242
		c-2.00195,0-3.84863,1.42383-3.84863,4.02686c0,1.97998,1.40137,3.84863,3.91504,3.84863
		c2.29199,0,3.78223-1.86865,3.78223-3.84863C433.48145,27.12842,431.74609,25.48242,429.63281,25.48242z"/>
	<path style="&st0;" d="M448.07129,33.22461h4.93848v1.75732h-6.98535V23.8584h2.04688V33.22461z"/>
	<path style="&st0;" d="M464.15332,25.61572h-5.40527v2.82568h4.73828v1.75732h-4.73828v3.02588h5.62793v1.75732h-7.6748V23.8584
		h7.45215V25.61572z"/>
	<path style="&st0;" d="M473.31641,25.61572v9.36621h-2.04688v-9.36621h-3.78223V23.8584h9.65527v1.75732H473.31641z"/>
	<path style="&st0;" d="M485.77148,25.61572v9.36621h-2.04688v-9.36621h-3.78223V23.8584h9.65527v1.75732H485.77148z"/>
	<path style="&st0;" d="M500.85254,25.61572h-5.40527v2.82568h4.73828v1.75732h-4.73828v3.02588h5.62793v1.75732h-7.6748V23.8584
		h7.45215V25.61572z"/>
	<path style="&st0;" d="M510.99512,30.51025l3.62598,4.18262v0.28906h-2.31348l-3.55957-4.27148h-1.29004v4.27148h-2.04688V23.8584
		h4.29297c2.29199,0,3.91602,1.37939,3.91602,3.40381C513.62012,28.9751,512.68555,30.13184,510.99512,30.51025z
		 M509.61523,25.50439h-2.15723v3.58203h2.11328c1.22363,0,1.95703-0.66748,1.95703-1.84668S510.72754,25.50439,509.61523,25.50439z
		"/>
	<path style="&st0;" d="M518.04395,32.22314c0.93457,0.62305,2.06934,1.20166,3.51465,1.20166
		c1.55762,0,2.31445-0.64551,2.31445-1.35742c0-0.88965-0.82324-1.42383-2.69238-2.15771
		c-2.26953-0.89014-3.22559-1.73535-3.22559-3.20361c0-1.51318,1.26758-3.07031,3.91504-3.07031
		c1.69141,0,2.95898,0.53418,3.71582,1.0459l-0.51172,1.71289c-0.86816-0.60059-2.06934-1.00098-3.18164-1.00098
		c-1.3125,0-1.95801,0.51123-1.95801,1.15674c0,0.73389,0.48926,1.13477,2.71484,2.06885
		c2.33594,0.979,3.26953,2.04688,3.26953,3.5376c0,2.04639-1.82422,3.04785-4.38184,3.04785
		c-1.84668,0-3.4043-0.60107-4.02734-1.1792L518.04395,32.22314z"/>
	<path style="&st0;" d="M533.94824,30.93311h-1.82422v4.04883h-2.04688V23.8584h4.07129c2.29102,0,3.91504,1.35693,3.91504,3.51514
		C538.06348,28.88623,537.04004,30.93311,533.94824,30.93311z M534.05957,25.54932h-1.93555v3.69287h1.89062
		c1.22363,0,1.95801-0.64502,1.95801-1.89111C535.97266,26.10547,535.17188,25.54932,534.05957,25.54932z"/>
	<path style="&st0;" d="M547.76074,32.5791h-4.60547l-1.04492,2.40283h-2.13574l5.25-11.23486h0.44531l5.29492,11.23486h-2.11426
		L547.76074,32.5791z M543.88965,30.86621h3.11523l-1.49121-3.33691h-0.15527L543.88965,30.86621z"/>
	<path style="&st0;" d="M562.57422,26.55029c-0.48926-0.33398-1.60156-1.09033-3.29199-1.06787
		c-1.91406,0.02197-3.89355,1.20117-3.89355,4.02686c0,2.24658,1.66895,3.84863,3.9375,3.84863
		c1.35742,0,2.55859-0.62305,3.27051-1.1792l0.77832,1.66846c-1.00098,0.73438-2.53613,1.35742-4.09277,1.35742
		c-3.51562,0-5.96289-2.53613-5.96289-5.65088c0-3.71533,2.91504-5.91797,6.00684-5.91797c1.71289,0,3.18164,0.64502,3.91602,1.1792
		L562.57422,26.55029z"/>
	<path style="&st0;" d="M569.62402,34.98193h-2.04688V23.8584h2.04688V34.98193z"/>
	<path style="&st0;" d="M582.63672,31.08887h0.17773V23.8584h2.04688v11.23486h-0.66699l-7.43066-7.31934h-0.17773v7.20801h-2.04688
		V23.74707h0.66699L582.63672,31.08887z"/>
	<path style="&st0;" d="M599.16309,33.84717c-1.02344,0.77881-2.80273,1.35742-4.53809,1.35742
		c-3.51562,0-5.96289-2.53613-5.96289-5.65088c0-3.71533,2.91504-5.91797,6.00684-5.91797c1.66895,0,3.13672,0.64502,3.84863,1.1792
		l-0.60059,1.84668c-0.4668-0.33398-1.66797-1.20166-3.29199-1.1792c-1.91309,0.02197-3.89355,1.20117-3.89355,4.02686
		c0,2.24658,1.66895,3.84863,3.9375,3.84863c0.93457,0,1.82422-0.2002,2.40332-0.57861v-2.26904h-2.82617v-1.75781h4.91699V33.84717
		z"/>
</g>
<g>
	<path style="&st0;" d="M11.30322,81.31006v12.66797l4.82373,0.73047v1.70508H2.19238V94.7085l4.38525-0.73047V64.45264
		l-4.38525-0.73047v-1.70605h12.32666c5.65186,0,12.08301,2.67969,12.08301,9.79297c0,5.84668-4.62891,9.50098-12.32666,9.50098
		H11.30322z M11.30322,79.06885h3.6543c3.6543,0,6.77246-2.67969,6.77246-6.96777c0-5.55371-2.82617-7.55078-7.21094-7.55078
		h-3.21582V79.06885z"/>
	<path style="&st0;" d="M52.08252,84.37939H40.53564l-3.16699,9.59863l4.53125,0.73047v1.70508H31.27832V94.7085l3.55664-0.73047
		l11.01123-31.96191h2.77686l11.40088,31.96191l3.80029,0.73047v1.70508H51.25439V94.7085l4.23877-0.73047L52.08252,84.37939z
		 M41.36377,81.9917h9.8418l-4.67725-13.20312h-0.77979L41.36377,81.9917z"/>
	<path style="&st0;" d="M71.22949,96.41357V94.7085l4.38525-0.73047V64.45264l-4.38525-0.73047v-1.70605h13.64209v1.70605
		l-4.57959,0.73047v29.86523h11.49805l4.9209-7.50195h1.8999l-1.75391,9.59766H71.22949z"/>
	<path style="&st0;" d="M125.11523,84.37939h-11.54688l-3.16699,9.59863l4.53125,0.73047v1.70508h-10.62158V94.7085l3.55664-0.73047
		l11.01123-31.96191h2.77686l11.40088,31.96191l3.80029,0.73047v1.70508h-12.56982V94.7085l4.23877-0.73047L125.11523,84.37939z
		 M114.39648,81.9917h9.8418l-4.67725-13.20312h-0.77979L114.39648,81.9917z"/>
	<path style="&st0;" d="M172.47119,86.57178h1.26709v6.6748c-3.55664,2.09473-6.96729,3.75098-13.05762,3.75098
		c-9.11084,0-16.5166-6.28418-16.5166-17.73438c0-10.96191,8.08789-17.83203,17.68604-17.83203
		c3.80029,0,8.18506,1.6084,11.49805,3.45996v6.87012h-1.31543c-1.99756-5.99316-6.28467-8.13672-10.18262-8.13672
		c-6.62598,0-12.47266,4.87109-12.47266,15.58984c0,10.37891,6.1875,15.34766,11.83936,15.34766
		C166.625,94.56201,170.76611,91.68701,172.47119,86.57178z"/>
	<path style="&st0;" d="M205.01758,94.31787l4.43359-7.01562h1.8999l-1.75391,9.11133H183.7749V94.7085l4.38525-0.73047V64.45264
		l-4.38525-0.73047v-1.70605h24.31201l0.77979,7.64941h-1.90039l-3.45898-5.55469H192.8374v13.00977h7.16162l1.55908-4.48242
		h1.70557v11.69238h-1.70557l-1.55908-4.82324h-7.16162v14.81055H205.01758z"/>
</g>
<g>
	<path style="&st0;" d="M262.81494,71.17529l1.16943,7.11328h-1.85156l-3.21582-5.06641h-5.45654v20.85254l3.89746,0.73145v1.60742
		h-12.13135v-1.60742l3.89746-0.73145V73.22217h-5.45654l-3.26465,5.06641h-1.80273l1.16943-7.11328H262.81494z"/>
	<path style="&st0;" d="M299.98926,71.17529v1.6084l-3.60547,0.73145v20.55957l3.60547,0.73145v1.60742h-11.54736v-1.60742
		l3.60547-0.73145v-9.64648h-12.76465v9.64648l3.55664,0.73145v1.60742h-11.49854v-1.60742l3.60547-0.73145V73.51514
		l-3.60547-0.73145v-1.6084h11.49854v1.6084l-3.55664,0.73145v8.91602h12.76465v-8.91602l-3.60547-0.73145v-1.6084H299.98926z"/>
	<path style="&st0;" d="M320.89062,71.17529v1.6084l-3.55664,0.73145v20.55957l3.55664,0.73145v1.60742h-11.49805v-1.60742
		l3.60547-0.73145V73.51514l-3.60547-0.73145v-1.6084H320.89062z"/>
	<path style="&st0;" d="M347.6377,94.27002l2.82617-4.58008h1.85156l-1.02344,6.72363h-20.9502v-1.60742l3.60547-0.73145V73.51514
		l-3.60547-0.73145v-1.6084h19.68359l0.63379,6.04199h-1.80273l-2.53418-3.89746h-8.03906v9.11133h5.16504l1.31543-2.92383h1.31543
		v8.13672h-1.31543l-1.31543-3.21582h-5.16504v9.8418H347.6377z"/>
	<path style="&st0;" d="M380.28125,71.17529l0.68262,6.04199h-1.85156l-2.58203-3.89746h-8.23438v9.11133h5.4082l1.31543-2.92383
		h1.31543v8.13672h-1.31543l-1.31543-3.21582h-5.4082v9.64648l3.75195,0.73145v1.60742h-11.69336v-1.60742l3.60547-0.73145V73.51514
		l-3.60547-0.73145v-1.6084H380.28125z"/>
</g>
<g>
	<path style="&st0;" d="M411.63867,94.65576h4.93848v1.75781h-6.98535V85.29053h2.04688V94.65576z"/>
	<path style="&st0;" d="M427.71973,87.04736h-5.40527v2.8252h4.73828v1.75781h-4.73828v3.02539h5.62793v1.75781h-7.6748V85.29053
		h7.45215V87.04736z"/>
	<path style="&st0;" d="M436.88379,87.04736v9.36621h-2.04688v-9.36621h-3.78223v-1.75684h9.65527v1.75684H436.88379z"/>
	<path style="&st0;" d="M449.33887,87.04736v9.36621h-2.04688v-9.36621h-3.78223v-1.75684h9.65527v1.75684H449.33887z"/>
	<path style="&st0;" d="M464.41895,87.04736h-5.40527v2.8252h4.73828v1.75781h-4.73828v3.02539h5.62793v1.75781h-7.6748V85.29053
		h7.45215V87.04736z"/>
	<path style="&st0;" d="M474.56152,91.94189l3.62598,4.18262v0.28906h-2.31348l-3.55957-4.27148h-1.29004v4.27148h-2.04688V85.29053
		h4.29297c2.29199,0,3.91602,1.37891,3.91602,3.40332C477.18652,90.40674,476.25195,91.56396,474.56152,91.94189z
		 M473.18164,86.93604h-2.15723v3.58203h2.11328c1.22363,0,1.95703-0.66699,1.95703-1.84668S474.29395,86.93604,473.18164,86.93604z
		"/>
	<path style="&st0;" d="M481.63379,93.65479c0.93457,0.62305,2.06934,1.20215,3.51465,1.20215
		c1.55762,0,2.31445-0.64648,2.31445-1.35742c0-0.89062-0.82324-1.42383-2.69238-2.1582
		c-2.26953-0.89062-3.22559-1.73535-3.22559-3.20312c0-1.51367,1.26758-3.07031,3.91504-3.07031
		c1.69141,0,2.95898,0.5332,3.71582,1.04492l-0.51172,1.71289c-0.86816-0.59961-2.06934-1-3.18164-1
		c-1.3125,0-1.95801,0.51074-1.95801,1.15625c0,0.73438,0.48926,1.13477,2.71484,2.06836
		c2.33594,0.97949,3.26953,2.04688,3.26953,3.53809c0,2.0459-1.82422,3.04785-4.38184,3.04785
		c-1.84668,0-3.4043-0.60156-4.02734-1.17969L481.63379,93.65479z"/>
	<path style="&st0;" d="M497.53809,92.36475h-1.82422v4.04883h-2.04688V85.29053h4.07129c2.29102,0,3.91504,1.35645,3.91504,3.51465
		C501.65332,90.31787,500.62988,92.36475,497.53809,92.36475z M497.64941,86.98096h-1.93555v3.69238h1.89062
		c1.22363,0,1.95801-0.64453,1.95801-1.89062S498.76172,86.98096,497.64941,86.98096z"/>
	<path style="&st0;" d="M511.35059,94.01123h-4.60547l-1.04492,2.40234h-2.13574l5.25-11.23438h0.44531l5.29492,11.23438h-2.11426
		L511.35059,94.01123z M507.47949,92.29834h3.11523l-1.49121-3.33789h-0.15527L507.47949,92.29834z"/>
	<path style="&st0;" d="M526.16406,87.98193c-0.48926-0.33398-1.60156-1.08984-3.29199-1.06836
		c-1.91406,0.02246-3.89355,1.20117-3.89355,4.02734c0,2.24609,1.66895,3.84863,3.9375,3.84863
		c1.35742,0,2.55859-0.62305,3.27051-1.17871l0.77832,1.66797c-1.00098,0.73438-2.53613,1.35742-4.09277,1.35742
		c-3.51562,0-5.96289-2.53613-5.96289-5.65039c0-3.71582,2.91504-5.91797,6.00684-5.91797
		c1.71289,0,3.18164,0.64453,3.91602,1.17871L526.16406,87.98193z"/>
	<path style="&st0;" d="M538.26367,87.04736h-5.40527v2.8252h4.73828v1.75781h-4.73828v3.02539h5.62793v1.75781h-7.6748V85.29053
		h7.45215V87.04736z"/>
	<path style="&st0;" d="M542.82129,96.41357V85.29053h3.69238c3.24805,0,5.85156,2.22461,5.85156,5.47266
		c0,3.64844-2.46973,5.65039-5.8291,5.65039H542.82129z M546.625,94.65576c2.29199,0,3.64844-1.46875,3.64844-3.9375
		c0-2.20312-1.93555-3.6709-3.6709-3.6709h-1.73438v7.6084H546.625z"/>
</g>
</svg>
